<?xml version="1.0" standalone="no"?>
<!DOCTYPE svg PUBLIC "-//W3C//DTD SVG 20010904//EN"
 "http://www.w3.org/TR/2001/REC-SVG-20010904/DTD/svg10.dtd">
<svg version="1.0" xmlns="http://www.w3.org/2000/svg"
 width="55.000000pt" height="55.000000pt" viewBox="0 0 55.000000 55.000000"
 preserveAspectRatio="xMidYMid meet">

<g transform="translate(0.000000,55.000000) scale(0.100000,-0.100000)"
fill="#000000" stroke="none">
<path d="M230 510 c-25 -25 -26 -62 -2 -83 39 -35 102 -9 102 41 0 28 -34 62
-60 62 -11 0 -29 -9 -40 -20z m65 -16 c19 -20 16 -43 -7 -58 -21 -13 -51 2
-56 26 -3 16 23 48 38 48 5 0 16 -7 25 -16z"/>
<path d="M150 330 c0 -39 1 -40 35 -40 l35 0 0 -89 0 -90 -32 -3 c-31 -3 -33
-5 -33 -43 l0 -40 120 0 120 0 0 40 c0 38 -2 40 -32 43 l-33 3 0 130 0 129
-90 0 -90 0 0 -40z m160 -110 l0 -130 30 0 c25 0 30 -4 30 -25 0 -25 0 -25
-95 -25 -95 0 -95 0 -95 25 0 21 5 25 30 25 l30 0 0 110 0 110 -30 0 c-23 0
-30 4 -30 20 0 18 7 20 65 20 l65 0 0 -130z"/>
</g>
</svg>
