<?xml version="1.0" standalone="no"?>
<!DOCTYPE svg PUBLIC "-//W3C//DTD SVG 20010904//EN"
 "http://www.w3.org/TR/2001/REC-SVG-20010904/DTD/svg10.dtd">
<svg version="1.0" xmlns="http://www.w3.org/2000/svg"
 width="55.000000pt" height="55.000000pt" viewBox="0 0 55.000000 55.000000"
 preserveAspectRatio="xMidYMid meet">

<g transform="translate(0.000000,55.000000) scale(0.100000,-0.100000)"
fill="#000000" stroke="none">
<path d="M144 507 c-9 -24 1 -162 11 -162 6 0 11 30 13 68 l3 67 154 0 155 0
0 -205 0 -205 -171 0 c-157 0 -170 -1 -167 -17 3 -16 21 -18 177 -21 119 -2
178 1 187 9 19 15 21 448 2 467 -18 18 -357 17 -364 -1z"/>
<path d="M210 415 c0 -13 16 -15 118 -13 153 4 151 22 -3 26 -99 2 -115 0
-115 -13z"/>
<path d="M247 354 c-19 -20 2 -24 93 -22 58 2 100 7 100 13 0 11 -182 20 -193
9z"/>
<path d="M41 316 c-8 -9 -11 -48 -9 -117 l3 -104 93 -3 93 -3 -3 118 -3 118
-81 3 c-61 2 -84 -1 -93 -12z m149 -111 l0 -85 -60 0 -60 0 0 85 0 85 60 0 60
0 0 -85z"/>
<path d="M90 255 c0 -11 11 -15 40 -15 29 0 40 4 40 15 0 11 -11 15 -40 15
-29 0 -40 -4 -40 -15z"/>
<path d="M90 205 c0 -11 11 -15 40 -15 29 0 40 4 40 15 0 11 -11 15 -40 15
-29 0 -40 -4 -40 -15z"/>
<path d="M90 155 c0 -11 11 -15 40 -15 29 0 40 4 40 15 0 11 -11 15 -40 15
-29 0 -40 -4 -40 -15z"/>
<path d="M260 275 c0 -13 14 -15 93 -13 121 4 121 22 0 26 -79 2 -93 0 -93
-13z"/>
<path d="M260 205 c0 -13 14 -15 93 -13 121 4 121 22 0 26 -79 2 -93 0 -93
-13z"/>
<path d="M260 135 c0 -13 14 -15 93 -13 53 2 92 7 92 13 0 6 -39 11 -92 13
-79 2 -93 0 -93 -13z"/>
</g>
</svg>
