<?xml version="1.0" standalone="no"?>
<!DOCTYPE svg PUBLIC "-//W3C//DTD SVG 20010904//EN"
 "http://www.w3.org/TR/2001/REC-SVG-20010904/DTD/svg10.dtd">
<svg version="1.0" xmlns="http://www.w3.org/2000/svg"
 width="55.000000pt" height="55.000000pt" viewBox="0 0 55.000000 55.000000"
 preserveAspectRatio="xMidYMid meet">

<g transform="translate(0.000000,55.000000) scale(0.100000,-0.100000)"
fill="#000000" stroke="none">
<path d="M347 492 c-10 -10 -17 -33 -17 -50 0 -67 74 -96 120 -47 13 14 34 25
47 25 20 0 24 5 21 23 -2 14 -11 23 -26 25 -13 2 -32 12 -43 23 -25 25 -80 25
-102 1z m81 -8 c24 -17 30 -62 10 -82 -7 -7 -24 -12 -40 -12 -55 0 -75 80 -25
100 30 12 30 12 55 -6z m72 -44 c0 -5 -7 -10 -15 -10 -8 0 -15 5 -15 10 0 6 7
10 15 10 8 0 15 -4 15 -10z"/>
<path d="M37 464 c-4 -4 -7 -16 -7 -26 0 -17 11 -18 141 -18 140 0 140 0 137
23 -3 21 -7 22 -134 25 -71 1 -133 -1 -137 -4z m253 -24 c0 -6 -47 -10 -120
-10 -73 0 -120 4 -120 10 0 6 47 10 120 10 73 0 120 -4 120 -10z"/>
<path d="M105 326 c-14 -14 -35 -26 -47 -28 -32 -4 -32 -42 0 -46 12 -2 33
-14 47 -28 30 -29 54 -30 89 -3 19 15 26 30 26 54 0 24 -7 39 -26 54 -35 27
-59 26 -89 -3z m92 -22 c15 -24 15 -29 2 -53 -28 -49 -99 -32 -99 24 0 55 67
75 97 29z m-124 -31 c-7 -2 -19 -2 -25 0 -7 3 -2 5 12 5 14 0 19 -2 13 -5z"/>
<path d="M240 275 l0 -26 138 3 c129 3 137 4 137 23 0 19 -8 20 -137 23 l-138
3 0 -26z m213 -2 c-34 -2 -93 -2 -130 0 -37 2 -9 3 62 3 72 0 102 -1 68 -3z"/>
<path d="M380 172 c-51 -16 -68 -84 -30 -122 27 -27 62 -25 98 5 17 14 40 25
52 25 32 0 24 44 -10 48 -13 2 -29 10 -35 18 -13 17 -56 32 -75 26z m52 -29
c36 -33 13 -93 -37 -93 -24 0 -55 33 -55 57 0 19 37 53 57 53 9 0 25 -7 35
-17z m73 -43 c-3 -5 -13 -10 -21 -10 -8 0 -14 5 -14 10 0 6 9 10 21 10 11 0
17 -4 14 -10z"/>
<path d="M37 123 c-4 -3 -7 -15 -7 -25 0 -17 11 -18 140 -18 l140 0 0 25 0 25
-133 0 c-74 0 -137 -3 -140 -7z m253 -23 c0 -6 -46 -10 -119 -10 -69 0 -122 4
-126 10 -4 6 38 10 119 10 77 0 126 -4 126 -10z"/>
</g>
</svg>
