<?xml version="1.0" standalone="no"?>
<!DOCTYPE svg PUBLIC "-//W3C//DTD SVG 20010904//EN"
 "http://www.w3.org/TR/2001/REC-SVG-20010904/DTD/svg10.dtd">
<svg version="1.0" xmlns="http://www.w3.org/2000/svg"
 width="55.000000pt" height="55.000000pt" viewBox="0 0 55.000000 55.000000"
 preserveAspectRatio="xMidYMid meet">
<metadata>
Created by potrace 1.16, written by Peter Selinger 2001-2019
</metadata>
<g transform="translate(0.000000,55.000000) scale(0.100000,-0.100000)"
fill="#000000" stroke="none">
<path d="M337 503 c-4 -3 -33 -10 -64 -14 -55 -8 -59 -10 -165 -116 -97 -97
-108 -111 -108 -144 0 -31 9 -45 79 -112 85 -83 107 -91 151 -58 18 14 29 17
43 10 32 -17 60 1 170 109 l107 107 0 102 c0 91 -2 103 -19 113 -22 11 -184
14 -194 3z m157 -39 c13 -5 16 -22 16 -78 l0 -71 -103 -103 c-56 -56 -107
-102 -112 -102 -16 0 -135 123 -135 140 0 9 47 62 104 118 l103 102 56 0 c30
0 62 -3 71 -6z m-307 -103 c-98 -100 -100 -118 -26 -196 50 -53 56 -75 20 -75
-17 0 -141 120 -141 136 0 12 203 214 214 214 5 0 -25 -35 -67 -79z"/>
</g>
</svg>
