<?xml version="1.0" standalone="no"?>
<!DOCTYPE svg PUBLIC "-//W3C//DTD SVG 20010904//EN"
 "http://www.w3.org/TR/2001/REC-SVG-20010904/DTD/svg10.dtd">
<svg version="1.0" xmlns="http://www.w3.org/2000/svg"
 width="55.000000pt" height="55.000000pt" viewBox="0 0 55.000000 55.000000"
 preserveAspectRatio="xMidYMid meet">

<g transform="translate(0.000000,55.000000) scale(0.100000,-0.100000)"
fill="#000000" stroke="none">
<path d="M201 434 c-54 -45 -58 -119 -9 -171 12 -12 16 -23 10 -23 -17 0 -81
-60 -98 -91 -19 -37 -18 -79 1 -79 8 0 15 7 15 15 0 32 41 94 75 115 47 29
126 25 174 -9 l33 -24 -37 -37 c-23 -24 -40 -53 -46 -80 -5 -23 -8 -44 -7 -46
2 -1 24 2 49 7 39 9 58 22 118 84 74 76 84 100 53 128 -26 23 -45 21 -81 -9
l-31 -26 -31 26 c-17 14 -35 26 -42 26 -6 0 -1 11 11 23 72 77 21 197 -83 197
-32 0 -51 -7 -74 -26z m130 -33 c37 -38 39 -82 4 -116 -51 -52 -145 -16 -145
55 0 40 47 90 85 90 16 0 38 -12 56 -29z m179 -214 c0 -16 -121 -137 -137
-137 -27 0 -11 26 54 92 62 62 83 74 83 45z"/>
</g>
</svg>
