<?xml version="1.0" standalone="no"?>
<!DOCTYPE svg PUBLIC "-//W3C//DTD SVG 1.1//EN" "http://www.w3.org/Graphics/SVG/1.1/DTD/svg11.dtd" >
<svg xmlns="http://www.w3.org/2000/svg" xmlns:xlink="http://www.w3.org/1999/xlink" version="1.1">
<metadata>
Created by FontForge 20170731 at Sun May 29 16:24:23 2022
 By Aleksey,,,
Copyright (c) Typographer Yining Chen, 2022. All rights reserved.
</metadata>
<defs>
<font id="LouisGeorgeCafe-BoldItalic" horiz-adv-x="496" >
  <font-face 
    font-family="Louis George Cafe"
    font-weight="700"
    font-style="italic"
    font-stretch="normal"
    units-per-em="1024"
    panose-1="0 0 0 0 0 0 0 0 0 0"
    ascent="819"
    descent="-205"
    x-height="479"
    cap-height="732"
    bbox="-96 -250 1398 1014"
    underline-thickness="35"
    underline-position="-153"
    unicode-range="U+000D-FB02"
  />
<missing-glyph horiz-adv-x="543" 
d="M51 102h307v528h-307v-528zM0 681h410v-630h-410v630z" />
    <glyph glyph-name=".notdef" horiz-adv-x="543" 
d="M51 102h307v528h-307v-528zM0 681h410v-630h-410v630z" />
    <glyph glyph-name=".null" horiz-adv-x="0" 
 />
    <glyph glyph-name=".null" horiz-adv-x="0" 
 />
    <glyph glyph-name="nonmarkingreturn" unicode="&#xd;" horiz-adv-x="0" 
 />
    <glyph glyph-name="space" unicode=" " horiz-adv-x="276" 
 />
    <glyph glyph-name="exclam" unicode="!" horiz-adv-x="312" 
d="M170 732h126v0q-20 -145 -80 -579v-1h-96l-1 1q13 145 50 579h1zM165 126q30 0 47 -26q11 -17 9 -35q0 -1 -1 -4q-3 -24 -24 -44q-16 -13 -31 -16q-7 -1 -11 -1h-7q-16 0 -32 12t-20 32q-1 6 -1 11q0 3 1 6v4q2 23 24 43q21 18 46 18z" />
    <glyph glyph-name="quotedbl" unicode="&#x22;" horiz-adv-x="477" 
d="M113 550q6 50 23 200h96q-5 -50 -22 -200h-97zM279 550q5 50 22 200h96q-5 -50 -22 -200h-96z" />
    <glyph glyph-name="numbersign" unicode="#" horiz-adv-x="481" 
d="M264 401q-7 -23 -27 -92h97q7 23 26 92h-96zM244 672q89 -16 92 -17q-15 -52 -44 -156h96l48 168q92 -16 93 -17q-14 -51 -42 -151h62q-3 -25 -10 -98h-80q-7 -23 -27 -92h68v-1q-2 -24 -10 -96h-1h-85q-14 -49 -56 -197v0q-23 4 -93 17v0l52 180h-97q-14 -48 -55 -192
q-23 4 -94 16q13 44 51 176h-56v0q2 24 10 96q0 1 1 1h72q7 23 27 92h-62v1q3 24 11 96v1h78q13 43 50 173h1z" />
    <glyph glyph-name="dollar" unicode="$" horiz-adv-x="610" 
d="M360 747h96l1 -1q-2 -13 -6 -54l11 -1q51 -11 93 -43q11 -8 28 -27q16 -21 20 -29q4 -7 6 -13v0q-65 -32 -90 -46q-3 7 -16 23q-39 43 -102 43q-53 0 -93 -26q-7 -4 -19 -14q-26 -27 -29 -58q-4 -27 12 -41q8 -7 16 -11q18 -12 55 -24q42 -13 108 -26q29 -8 48 -18
q19 -9 38 -25q7 -6 19 -19q20 -26 28 -57t4 -59v-5q-6 -52 -43 -103q-9 -12 -25 -27q-15 -14 -28 -22q-19 -12 -36 -20q-19 -9 -43 -16q-14 -5 -36 -8q-4 -30 -11 -88q0 -1 -1 -1h-96v1q3 22 11 89l-11 3q-56 13 -100 52q-21 21 -30 35q-15 22 -22 38q-5 12 -5 14
q83 39 91 42v0q24 -60 81 -82q28 -10 60 -10q53 0 99 28q16 11 26 24q19 26 23 54q4 42 -33 69q-10 5 -19 9q-13 6 -49 13q-96 22 -141 44q-98 48 -87 146v1q7 66 58 119q15 15 24 22q16 11 30 19q18 10 34 16q16 7 42 12h3q1 15 6 57v1zM366 781h95v-1q-20 -182 -81 -731
h-1h-95h-1q21 183 82 731q0 1 1 1z" />
    <glyph glyph-name="percent" unicode="%" horiz-adv-x="792" 
d="M156 570q-2 -24 20 -41q13 -10 32 -10q30 0 51 25q9 12 11 27q2 28 -25 45q-13 5 -26 5h-2q-25 0 -46 -20q-13 -13 -15 -31zM228 724q64 0 109 -44q15 -18 20 -29q19 -39 15 -80q-5 -59 -52 -105q-19 -17 -31 -23q-44 -27 -88 -27h-6q-42 0 -79 24q-12 7 -26 21
q-14 15 -19 26q-18 33 -18 67v13q1 2 2 7q3 39 31 79q8 11 25 26q23 19 38 25q39 20 79 20zM605 304h4q50 0 91 -31q8 -6 21 -19q18 -23 25 -49q6 -20 6 -40v-13q-1 -1 -1 -4q-4 -44 -37 -86q-6 -8 -22 -23q-25 -21 -52 -31q-31 -12 -64 -12q-59 0 -102 39q-17 17 -20 25
q-26 41 -22 90q6 58 53 104q18 16 23 19q14 10 27 15q36 16 70 16zM623 732h100h1q-137 -185 -548 -739h-1h-100v0q136 185 547 739h1zM535 149q-3 -24 19 -40q14 -10 33 -10q29 0 50 24q11 13 12 28q3 27 -25 44q-12 6 -26 6h-2q-26 0 -47 -21q-13 -13 -14 -31z" />
    <glyph glyph-name="ampersand" unicode="&#x26;" horiz-adv-x="682" 
d="M352 572q-3 -21 6 -36q13 -28 34 -66l4 -10q35 18 68 42q13 9 29 24q23 22 26 38v4q5 43 -35 57q-20 10 -41 10h-1q-36 0 -68 -24q-15 -14 -17 -20q-4 -5 -5 -19zM196 160q-8 -63 48 -85q16 -7 44 -7q85 0 180 65q-65 110 -116 198q-27 -16 -60 -41q-13 -10 -40 -33
q-4 -4 -11 -10q-25 -26 -34 -44q-9 -19 -11 -43zM453 732q50 0 96 -25q13 -8 24 -18q51 -46 42 -121q-4 -37 -21 -64q-38 -61 -153 -124q47 -83 103 -177q2 -2 4 -6q13 12 51 46q15 -17 61 -68q-52 -47 -63 -57q13 -21 38 -62v0q-3 -4 -81 -56q-2 -1 -3 -1q-12 18 -35 56
q-122 -83 -239 -83q-50 0 -84 15q-66 29 -88 97q-8 26 -8 52q0 10 2 20q0 3 1 8q3 29 15 62q9 20 20 35q12 18 31 39q30 32 68 61q37 27 62 43q4 3 12 7q-31 56 -45 89q-12 33 -8 69v6q8 74 85 124q56 33 113 33z" />
    <glyph glyph-name="quotesingle" unicode="'" horiz-adv-x="272" 
d="M93 550q6 50 23 200h96q-5 -50 -22 -200h-97z" />
    <glyph glyph-name="parenleft" unicode="(" horiz-adv-x="418" 
d="M359 768h9q1 -1 1 -2q-2 -23 -9 -94q-1 0 -3 -1h-11q-59 0 -122 -124q-41 -95 -57 -237q-18 -161 36 -270q30 -54 66 -54h14l1 -2q-3 -23 -11 -93l-1 -2h-13q-111 0 -166 151q-27 84 -27 184q0 43 5 88q22 206 104 335q81 121 184 121z" />
    <glyph glyph-name="parenright" unicode=")" horiz-adv-x="500" 
d="M343 647q38 -91 38 -220q0 -54 -7 -115q-17 -152 -82 -272q-88 -151 -200 -151h-12q0 1 -1 2q2 23 10 93q0 1 2 2h13q36 0 78 54q78 109 95 270q16 142 -5 237q-35 124 -95 124h-11l-2 1q3 24 11 94l1 2h10q51 -17 88 -39t69 -82z" />
    <glyph glyph-name="asterisk" unicode="*" horiz-adv-x="473" 
d="M231 753h96v-1l-12 -112q27 9 109 37q6 -22 23 -90q0 -1 -112 -39v0q14 -23 57 -91q-22 -14 -85 -57q-2 3 -24 39q-31 49 -34 53q-4 -4 -70 -83q-2 -3 -7 -9q-18 15 -72 57v1q19 22 76 90q-26 10 -103 39v0q11 23 43 90q99 -37 101 -37q4 37 12 112q1 1 2 1z" />
    <glyph glyph-name="plus" unicode="+" horiz-adv-x="432" 
d="M174 207h-130q3 24 12 97h129q4 32 15 128v0h96v0q-4 -32 -15 -128h129q0 -1 1 -1q-3 -24 -11 -95l-1 -1h-128q-4 -32 -15 -130h-96q3 33 14 130z" />
    <glyph glyph-name="comma" unicode="," horiz-adv-x="292" 
d="M145 123q31 0 48 -28q8 -14 8 -34q0 -6 -1 -13q-8 -78 -111 -160q-27 -24 -35 -27q-7 11 -22 33q71 59 76 106q-22 9 -30 31q-6 13 -5 29q4 31 35 52q17 11 37 11z" />
    <glyph glyph-name="hyphen" unicode="-" horiz-adv-x="473" 
d="M63 304h353v-1q-3 -24 -11 -95v-1h-353q3 24 11 97z" />
    <glyph glyph-name="period" unicode="." horiz-adv-x="276" 
d="M108 126q31 0 48 -26q9 -15 9 -30q0 -3 -1 -5v-4q-3 -24 -24 -44q-16 -13 -31 -16q-8 -1 -12 -1h-6q-16 0 -32 12t-20 32q-1 6 -1 11v6q0 1 1 4q2 23 23 43q21 18 46 18z" />
    <glyph glyph-name="slash" unicode="/" horiz-adv-x="420" 
d="M379 687h96v0q-82 -178 -327 -711l-1 -1h-95q-1 0 -1 1q82 177 327 711h1z" />
    <glyph glyph-name="zero" unicode="0" horiz-adv-x="712" 
d="M399 701h1q128 0 208 -117q54 -87 54 -196q0 -24 -2 -49q-16 -147 -119 -259q-102 -101 -222 -101q-126 0 -208 115q-55 89 -55 197q0 24 3 49q16 146 117 259q104 102 223 102zM155 339q-13 -118 50 -203q53 -61 125 -61q93 0 170 98q53 76 64 167q14 129 -63 216
q-50 49 -111 49h-2q-92 0 -168 -97q-55 -76 -65 -169z" />
    <glyph glyph-name="one" unicode="1" horiz-adv-x="323" 
d="M269 688q-19 -172 -77 -688v0h-96v0q17 148 67 592h-77h-1q3 24 11 96h173z" />
    <glyph glyph-name="two" unicode="2" horiz-adv-x="567" 
d="M330 712q74 0 123 -39q10 -6 26 -25q18 -23 27 -41q21 -46 21 -95q0 -13 -2 -25q-6 -59 -40 -105l-177 -174l-128 -124v-1h308v0q0 -5 -2 -17q-2 -20 -8 -79h-1h-441v0q3 23 10 93q43 42 174 169q27 28 111 110q21 20 82 81q12 20 15 45v3q5 39 -13 75q-6 9 -15 21
q-12 12 -22 17q-22 14 -57 14h-4q-89 0 -125 -83q-11 -29 -13 -47h-96v2q3 32 21 77q13 28 27 47q40 57 104 84q44 17 95 17z" />
    <glyph glyph-name="three" unicode="3" horiz-adv-x="571" 
d="M341 704v0q75 0 130 -47q18 -17 29 -33q9 -16 16 -31q13 -34 14 -69q0 -10 -2 -20v-5q-5 -47 -36 -94q-8 -14 -23 -29q-9 -11 -29 -28q8 -5 25 -24q19 -24 25 -39q26 -53 20 -110q0 -2 -1 -4q-6 -62 -49 -119q-12 -14 -27 -29q-21 -19 -30 -24q-20 -15 -39 -23
q-16 -8 -40 -16q-37 -10 -66 -10h-14q-36 0 -79 16q-22 10 -44 25q-13 9 -29 25q-14 16 -22 29q-11 21 -17 35q-12 35 -12 68q0 11 2 21v3v1h96v-1q-4 -43 22 -79q11 -13 16 -17q15 -12 27 -17q28 -12 58 -12q58 0 105 39q41 38 46 86q5 43 -21 79q-37 48 -104 48h-50v0
q3 24 10 96v1h56q2 -1 9 -1q10 0 30 5q12 4 22 9t26 18q36 32 41 74q4 43 -26 76q-31 31 -75 31q-48 0 -87 -36q-15 -13 -22 -26q-13 -21 -15 -49h-1h-96h-1q1 1 1 4q7 71 62 130q20 19 28 25q20 15 40 24q49 24 101 24z" />
    <glyph glyph-name="four" unicode="4" horiz-adv-x="656" 
d="M429 501q-26 -37 -105 -148q-99 -141 -103 -147q-1 -1 -8 -11h153h29q9 77 34 306v0zM452 692h95v-1q-14 -124 -55 -496h104v0q-3 -24 -11 -96h-1h-103q-3 -27 -12 -107h-1h-96v0q3 27 12 106h-352v1l144 204q36 50 141 200q31 43 123 173z" />
    <glyph glyph-name="five" unicode="5" horiz-adv-x="600" 
d="M559 692v-1q-3 -24 -11 -95v-1h-228q-11 -30 -47 -122h1q21 3 38 3h8q60 0 117 -29q21 -11 43 -28q8 -7 19 -19q20 -21 24 -29q12 -18 17 -31q22 -47 22 -99q0 -14 -2 -29q-9 -84 -71 -156q-9 -11 -30 -30q-23 -18 -42 -30q-77 -46 -160 -46h-2q-80 0 -146 44
q-14 10 -32 27q-18 19 -22 27q-16 24 -23 39q-8 17 -8 18q87 39 93 41q22 -61 85 -87q31 -12 66 -12q66 0 124 42q16 15 24 23q41 46 47 100l1 2q5 56 -28 103q-12 16 -20 22q-47 40 -112 40q-49 0 -98 -27q-32 -16 -97 -49q22 58 88 233q52 135 52 136q3 7 8 20h302z" />
    <glyph glyph-name="six" unicode="6" horiz-adv-x="613" 
d="M149 208q-6 -65 39 -116q14 -12 15 -12q42 -33 96 -33h2q63 0 118 42q17 13 23 21q39 45 46 97q5 49 -20 93q-6 8 -20 23q-12 12 -20 17q-41 28 -90 28h-4q-55 0 -107 -35q-10 -6 -23 -19q-48 -47 -55 -106zM359 691q76 -48 77 -51l-129 -177q20 2 40 2q86 0 153 -52
q12 -9 28 -26q17 -20 22 -30q10 -16 18 -32q18 -44 17 -90q0 -13 -1 -27v-1q-8 -79 -64 -147q-9 -12 -30 -31q-26 -22 -41 -32q-19 -11 -32 -17q-19 -9 -35 -15q-46 -15 -87 -15h-11q-47 0 -96 21q-20 8 -40 22q-67 47 -89 126q-8 31 -8 60q0 12 1 24q1 3 1 9q7 56 42 113
q9 14 82 115q42 58 127 176q13 18 55 75z" />
    <glyph glyph-name="seven" unicode="7" horiz-adv-x="537" 
d="M109 692h432h1q-2 -21 -9 -83q-1 -2 -32 -47q-53 -80 -158 -240q-40 -59 -157 -235q-18 -28 -74 -111v0q-20 12 -79 48q33 49 131 196q30 46 122 184q32 48 127 191h-314q-1 0 -1 1q3 24 10 96h1z" />
    <glyph glyph-name="eight" unicode="8" horiz-adv-x="591" 
d="M221 510q-4 -39 23 -70q31 -30 74 -30q44 0 81 31q33 31 37 70q5 40 -23 69q-16 16 -34 24q-19 6 -38 6h-2q-42 0 -78 -29q-35 -30 -40 -71zM145 181q-5 -53 34 -93q15 -14 25 -20q33 -19 74 -19q58 0 109 39q20 17 23 24q26 33 30 67v5q4 38 -19 74q-13 17 -24 25
q-39 30 -90 30q-56 0 -103 -35q-14 -10 -23 -20q-31 -35 -36 -77zM351 707q73 0 128 -47q17 -17 24 -28q25 -36 30 -80q3 -21 0 -39v-5q-5 -51 -41 -100q-9 -12 -24 -27q-2 -3 -14 -13q12 -8 27 -24q20 -20 22 -25q10 -15 18 -34q17 -39 17 -80q0 -12 -2 -24
q-8 -78 -69 -144q-16 -16 -30 -26q-17 -13 -29 -20q-68 -39 -140 -39h-1q-79 0 -141 47q-14 9 -27 25q-15 17 -22 28q-13 20 -17 38q-12 33 -12 66q0 11 1 21v8q7 51 40 103q12 19 34 41q20 19 28 24q13 10 21 15q-16 17 -21 27q-34 53 -27 115q8 72 64 130q23 19 28 23
q19 13 33 20q50 24 102 24z" />
    <glyph glyph-name="nine" unicode="9" horiz-adv-x="604" 
d="M138 448q-6 -56 26 -101q12 -15 20 -23q45 -37 104 -37q63 0 116 40q16 12 25 23q40 45 47 98q6 57 -28 104q-16 16 -23 22q-44 35 -101 35q-64 0 -119 -43q-21 -18 -23 -22q-38 -44 -44 -96zM336 705q84 0 149 -48q11 -9 28 -26q20 -23 26 -32q10 -18 18 -36
q17 -43 17 -88q-1 -13 -2 -27v-2q-8 -73 -59 -140q-52 -72 -156 -215q-86 -122 -89 -126h-1q-19 13 -76 50v1l37 52q31 41 91 124q-21 -2 -37 -2h-7q-62 0 -119 30q-17 10 -37 25q-11 10 -25 26q-18 21 -27 38q-11 22 -18 42q-10 35 -10 69q0 12 1 24q1 2 1 8q7 59 46 119
q12 18 32 40q12 13 30 28q42 33 87 49q49 17 100 17z" />
    <glyph glyph-name="colon" unicode=":" horiz-adv-x="261" 
d="M162 479h4q23 0 41 -19q13 -16 13 -36v-6v-3q-3 -26 -26 -46q-21 -16 -42 -16h-4q-24 0 -42 19q-14 20 -13 42q1 2 1 5q2 21 22 41q22 19 46 19zM126 126q30 0 47 -26q11 -17 9 -35q0 -1 -1 -4q-2 -24 -24 -44q-16 -13 -30 -16q-8 -1 -12 -1h-7q-16 0 -32 12t-20 32
q-1 6 -1 11q0 3 1 6v4q3 23 24 43q20 18 46 18z" />
    <glyph glyph-name="semicolon" unicode=";" horiz-adv-x="269" 
d="M170 479h4q23 0 41 -19q14 -16 14 -36q0 -3 -1 -6v-3q-3 -26 -25 -46q-22 -16 -43 -16h-4q-25 0 -43 22q-13 18 -11 41q3 24 22 44q23 19 46 19zM133 123q31 0 48 -28q10 -18 7 -47q-8 -78 -111 -160q-27 -24 -35 -27q-7 11 -22 33q71 59 76 106q-22 9 -30 31
q-6 13 -5 29q4 31 35 52q17 11 37 11z" />
    <glyph glyph-name="less" unicode="&#x3c;" horiz-adv-x="479" 
d="M365 513v0q13 -19 51 -76q-1 -1 -153 -110l-96 -69q22 -19 90 -77q30 -25 120 -102l-68 -76v0q-39 33 -156 133q-98 82 -99 84q2 25 8 76l156 112q37 26 147 105z" />
    <glyph glyph-name="equal" unicode="=" horiz-adv-x="409" 
d="M89 390h325l1 -1q-3 -23 -11 -95l-1 -1h-324q2 25 10 97zM68 197h324q1 0 1 -1q-3 -23 -10 -95q-1 0 -1 -1h-325q3 25 11 97z" />
    <glyph glyph-name="greater" unicode="&#x3e;" horiz-adv-x="469" 
d="M278 408l132 -112q-3 -19 -9 -76q-3 -2 -119 -84q-61 -45 -184 -133v0q-13 19 -51 76q36 26 143 102q26 20 105 77q-20 17 -80 69q-129 109 -129 110q23 25 68 76v0q31 -26 124 -105z" />
    <glyph glyph-name="question" unicode="?" horiz-adv-x="569" 
d="M297 126q29 0 47 -23q12 -19 9 -39v-3q-3 -25 -25 -45q-21 -16 -42 -16h-6q-16 0 -32 12t-20 35q-1 9 -1 16q4 29 29 49q19 14 41 14zM370 756h7q43 0 87 -20q19 -9 37 -25q11 -8 22 -21q17 -20 24 -35q24 -46 24 -97l-2 -26q-6 -59 -46 -116q-11 -16 -27 -32
q-19 -19 -33 -29q-19 -15 -63 -43q-11 -7 -24 -18q-7 -7 -11 -13q-2 -6 -3 -13q-4 -38 -13 -115l-1 -1h-96v1q3 28 12 114q8 68 77 116q18 13 59 40q24 16 40 36q19 24 28 53q4 12 4 20q6 50 -24 88q-34 40 -85 40q-50 0 -93 -37q-41 -39 -46 -91q-1 -6 -3 -17h-96q1 5 3 21
q5 49 36 100q10 17 27 36q8 9 25 24q16 13 27 20q21 13 41 23q45 17 86 17z" />
    <glyph glyph-name="at" unicode="@" horiz-adv-x="1115" 
d="M446 252v-3q-4 -36 11 -67q3 -8 15 -21q20 -21 48 -21h1q36 0 72 36q39 42 45 98q4 44 -17 78q-22 32 -57 32h-1q-34 0 -68 -31q-23 -23 -35 -51q-12 -26 -14 -50zM603 732h11q93 0 181 -32q120 -47 185 -147q16 -25 27 -49q33 -78 33 -166q0 -24 -2 -49q-6 -51 -30 -117
q-11 -28 -24 -49q-14 -22 -35 -46q-20 -21 -34 -31q-60 -43 -120 -43q-30 0 -62 10q-49 17 -73 58q-9 14 -12 25q-1 1 -1 3q-18 -15 -30 -23q-53 -33 -106 -33q-56 0 -101 36q-18 16 -29 33q-11 16 -16 28q-21 52 -16 111q8 73 55 137q32 41 73 66q48 27 96 27q59 0 103 -38
q16 -15 24 -27q7 -9 12 -19v0q8 15 16 32h1q21 -8 86 -34v0q-22 -43 -35 -75q-39 -87 -44 -141q-4 -47 18 -64q9 -8 31 -13q12 -2 19 -2h1q31 0 67 30q18 18 28 35q12 19 19 35q6 17 13 40q7 25 9 48v2q12 119 -47 210q-26 37 -55 60q-22 17 -42 28q-85 48 -198 48v0
q-115 0 -219 -65q-20 -13 -45 -32q-23 -21 -34 -32q-27 -29 -39 -47q-67 -92 -78 -200q-11 -109 39 -204q9 -17 25 -40q8 -11 28 -33q28 -27 46 -39q38 -28 86 -44q55 -19 113 -19h4q106 0 207 59q14 -27 43 -81q-27 -16 -52 -28q-23 -11 -60 -23q-75 -24 -143 -24h-13
q-72 0 -148 28q-44 16 -78 37q-28 18 -54 42q-11 8 -40 40q-31 37 -45 63q-15 26 -26 53q-11 28 -20 66q-11 50 -11 98q0 22 2 44q0 4 1 10q8 83 49 168q16 32 36 62q17 25 45 58q14 15 43 43l7 7q35 29 53 40q30 20 58 34q30 16 70 30q80 25 154 25z" />
    <glyph glyph-name="A" unicode="A" horiz-adv-x="732" 
d="M236 255h268q-25 82 -97 329q-2 0 -71 -135q-33 -65 -100 -194zM468 732q2 0 32 -108q62 -208 185 -624h-1h-104q-2 0 -11 33q-12 42 -37 124h-347q-20 -39 -81 -157h-104v0q81 157 323 625q13 27 55 107h90z" />
    <glyph glyph-name="B" unicode="B" horiz-adv-x="588" 
d="M178 332q-7 -58 -26 -235h166q86 0 128 63q12 21 16 53q1 6 2 18q7 65 -57 89q-31 14 -79 14h-148q-1 0 -2 -2zM213 636q-6 -51 -24 -206h140q88 0 131 62q12 19 13 35q1 8 3 22q6 55 -68 80q-22 7 -63 7h-132zM128 732h242q117 0 177 -79q26 -37 26 -86q0 -12 -1 -23
q-1 -4 -1 -11q-10 -84 -80 -142q-1 0 -1 -1q14 -7 37 -32q41 -53 33 -119q-1 -12 -4 -36q-12 -105 -106 -167q-50 -25 -62 -25q-30 -11 -89 -11h-6h-247l-2 1q21 183 83 730z" />
    <glyph glyph-name="C" unicode="C" horiz-adv-x="735" 
d="M461 732h1q142 0 235 -110q33 -43 46 -74q-5 -4 -91 -47q-10 25 -33 57q-70 78 -167 78q-100 0 -186 -79q-83 -84 -94 -190q-15 -124 71 -212q65 -58 145 -58h10q88 0 173 72q36 36 53 63q26 -15 79 -44v-3q-20 -31 -52 -66q-123 -119 -270 -119q-145 0 -241 117
q-67 93 -67 205q0 21 2 42q0 1 1 4q15 138 120 251q118 113 259 113h6z" />
    <glyph glyph-name="D" unicode="D" horiz-adv-x="679" 
d="M130 732h190q132 0 230 -89q38 -39 47 -57q52 -83 52 -177q0 -20 -2 -41q-1 -1 -1 -5q-14 -147 -136 -263q-67 -53 -128 -76q-74 -24 -139 -24h-195q-1 0 -1 1q20 183 81 729q1 0 2 2zM214 634q-15 -134 -61 -538h89q128 0 222 95q75 78 86 174q11 99 -47 177
q-35 42 -56 52q-18 14 -59 29q-36 12 -96 12h-76q-1 0 -2 -1z" />
    <glyph glyph-name="E" unicode="E" 
d="M129 732h394v0q-3 -24 -11 -96h-297q-7 -56 -26 -222h236v-1q-2 -23 -10 -94q0 -1 -1 -1h-235q-7 -55 -25 -222h298l-12 -96v0h-393v0q20 183 81 732h1z" />
    <glyph glyph-name="F" unicode="F" horiz-adv-x="467" 
d="M127 732h393v0q-3 -24 -11 -96h-1h-296q-7 -56 -25 -222h241q-3 -24 -11 -96h-241q-9 -79 -36 -318v0h-96v0q20 183 81 732h2z" />
    <glyph glyph-name="G" unicode="G" horiz-adv-x="800" 
d="M466 732h2q139 0 234 -105q34 -40 49 -76q2 -4 5 -11q-77 -39 -92 -44q-9 25 -31 54q-28 33 -42 41q-60 45 -134 45q-116 0 -209 -99q-67 -78 -77 -170q-13 -119 68 -206q66 -64 158 -64q107 0 195 85q53 55 75 117h-184q-1 0 -2 1q3 23 11 93v1v1q50 0 200 1h91
q0 -1 1 -2q-12 -77 -20 -101q-24 -79 -61 -126q-72 -102 -196 -147q-64 -20 -121 -20q-129 0 -224 93q-89 99 -90 228q0 22 3 44v3q17 155 142 271q31 24 39 28q97 65 210 65z" />
    <glyph glyph-name="H" unicode="H" horiz-adv-x="628" 
d="M127 732h93q1 0 2 -1l-36 -316h317l36 316l1 1h95l1 -1q-21 -183 -83 -730l-1 -1h-93q-1 0 -2 1l36 316h-317l-36 -316q-1 0 -1 -1h-95v1q20 183 81 730q1 0 2 1z" />
    <glyph glyph-name="I" unicode="I" horiz-adv-x="228" 
d="M127 732h95v0q-20 -183 -82 -732v0h-96v0q20 183 81 732h2z" />
    <glyph glyph-name="J" unicode="J" horiz-adv-x="515" 
d="M428 732h96q-15 -129 -59 -514q-5 -50 -38 -102q-11 -17 -28 -36q-23 -23 -38 -32q-22 -17 -43 -27q-49 -21 -91 -21h-51q-48 0 -93 25q-18 10 -35 26q-9 8 -20 21q-17 23 -24 37q-5 11 -12 33q-8 28 -8 55q0 10 1 20q2 13 5 39h1h95h1q-1 -9 -4 -35q-6 -45 24 -84
q13 -14 19 -18q29 -23 65 -23h44q37 0 74 27q18 13 27 24q29 35 33 76q20 169 58 509h1z" />
    <glyph glyph-name="K" unicode="K" horiz-adv-x="624" 
d="M127 732h93q1 0 2 -1q-11 -94 -42 -376q9 9 367 375l2 2h126l1 -1q-86 -88 -344 -351q67 -95 265 -379l-1 -1h-127q-53 77 -210 305q-24 -25 -96 -99q-6 -51 -23 -205q-1 0 -1 -1h-95v1q20 183 81 730q1 0 2 1z" />
    <glyph glyph-name="L" unicode="L" horiz-adv-x="505" 
d="M129 732h96v0q-18 -159 -71 -636h318v0q-3 -24 -11 -96h-1h-413v0q20 183 81 732h1z" />
    <glyph glyph-name="M" unicode="M" horiz-adv-x="896" 
d="M130 732h117q3 -3 98 -289q34 -100 101 -300h1q83 147 330 589h118l1 -1q-20 -183 -81 -730q-1 0 -2 -1h-100l-1 1q15 134 60 534v0q-75 -133 -299 -532q0 -1 -1 -3h-83q-1 0 -11 32q-56 168 -169 503h-1q-15 -134 -60 -534v-1h-100l-1 1q20 183 81 730q1 0 2 1z" />
    <glyph glyph-name="N" unicode="N" horiz-adv-x="710" 
d="M130 732h104q73 -131 293 -523q6 -12 26 -49v0q16 143 64 571q1 0 2 1h94l2 -1q-21 -183 -83 -730l-1 -1h-104q-23 38 -166 298q-52 91 -154 274q-16 -143 -64 -571q-1 0 -2 -1h-93l-1 1q20 183 81 730q1 0 2 1z" />
    <glyph glyph-name="O" unicode="O" horiz-adv-x="796" 
d="M452 732h2q145 0 242 -113q72 -94 72 -210q0 -21 -3 -43q-14 -157 -141 -272q-116 -94 -246 -94h-5q-130 0 -225 93q-41 48 -52 75q-37 73 -37 156q0 20 2 41v3q15 157 143 273q12 9 37 27q97 64 203 64h8zM157 367q-13 -119 67 -206q68 -64 160 -64q120 0 215 106
q60 76 69 159v6q12 103 -51 185q-70 83 -173 83q-116 0 -209 -99q-67 -78 -78 -170z" />
    <glyph glyph-name="P" unicode="P" horiz-adv-x="596" 
d="M143 732h241q116 0 188 -87q41 -59 41 -127q0 -13 -1 -27q-12 -109 -114 -187q-78 -54 -170 -54h-144q-7 -62 -28 -249q-1 0 -1 -1h-94l-1 1q20 183 81 730q1 0 2 1zM227 635l-32 -288h150q72 0 131 60q33 40 38 81q0 2 1 7q8 65 -51 112q-35 29 -104 29h-132z" />
    <glyph glyph-name="Q" unicode="Q" horiz-adv-x="784" 
d="M155 375q-12 -116 66 -202q66 -62 155 -62q68 0 132 37v0q-12 14 -50 56q18 17 73 68q14 -14 54 -58q60 73 69 156q0 2 1 6q11 101 -50 181q-69 81 -170 81q-113 0 -204 -96q-66 -78 -76 -167zM444 732h1q142 0 236 -111q71 -92 71 -205q0 -21 -3 -42q-13 -125 -102 -226
q24 -27 73 -80v-1q-19 -17 -73 -67q-19 20 -75 81q-100 -65 -206 -65q-128 0 -221 92q-40 47 -50 72q-36 71 -36 152q0 20 2 41v3q14 153 140 267q12 9 35 27q95 62 200 62h8z" />
    <glyph glyph-name="R" unicode="R" horiz-adv-x="588" 
d="M127 732h241q116 0 188 -87q41 -59 41 -127q0 -13 -1 -27q-12 -103 -103 -178q-49 -36 -83 -46q-1 -3 79 -170l45 -96l-1 -1h-113q-3 0 -23 48q-85 187 -90 202h-139q-7 -62 -28 -249q-1 0 -1 -1h-94l-1 1q20 183 81 730q1 0 2 1zM211 635l-32 -288h150q72 0 131 60
q33 40 38 81q0 2 1 7q8 65 -51 112q-35 29 -104 29h-132z" />
    <glyph glyph-name="S" unicode="S" horiz-adv-x="520" 
d="M318 740h9q57 0 109 -27q16 -9 32 -22q8 -6 24 -23q17 -21 24 -34q7 -11 12 -22q-31 -14 -92 -43q-3 9 -16 26q-41 49 -109 49q-67 0 -113 -40q-17 -16 -22 -27q-15 -22 -17 -47q-1 -1 -1 -3q-3 -35 20 -54q10 -9 20 -14q25 -15 74 -29q37 -11 89 -22q29 -9 48 -19
q19 -9 38 -25q17 -16 29 -33q33 -54 26 -119v-2q-7 -64 -52 -122q-7 -10 -26 -28q-26 -21 -42 -30q-17 -10 -37 -18q-55 -22 -111 -22q-86 0 -153 51q-12 10 -24 23q-18 20 -25 31q-13 21 -20 37q-7 17 -8 20q31 14 92 41q7 -18 19 -37q5 -9 17 -23q17 -17 29 -24
q38 -22 83 -22h3q45 0 87 22q12 7 25 17q15 14 23 25q20 29 23 61q6 51 -33 81q-12 8 -21 12q-18 8 -54 15q-102 24 -147 49q-101 53 -89 159q8 72 61 129q17 19 35 32q23 15 39 23q18 9 43 17q40 11 79 11z" />
    <glyph glyph-name="T" unicode="T" 
d="M96 732h484v0q-2 -24 -10 -96h-1h-193l-72 -636v0h-96h-1l72 636h-195v0q3 24 11 96h1z" />
    <glyph glyph-name="U" unicode="U" horiz-adv-x="701" 
d="M138 732h94v-1q-12 -112 -49 -446q-10 -81 13 -119q20 -43 77 -63q22 -6 43 -6h71q85 0 141 78q27 41 33 97l51 459q1 0 2 1h94l1 -1q-12 -109 -49 -435q-9 -87 -29 -125q-40 -87 -115 -132q-65 -39 -152 -39h-48q-113 0 -175 68q-27 31 -40 61q-19 49 -19 103q0 17 2 34
q17 155 52 465q1 0 2 1z" />
    <glyph glyph-name="V" unicode="V" horiz-adv-x="721" 
d="M99 732h108q1 -1 34 -112q47 -157 140 -472v0l292 576q4 8 6 8h112v0h1q-94 -180 -376 -717q-5 -15 -8 -15h-87q-2 0 -7 21q-153 502 -161 533q-5 10 -54 178v0z" />
    <glyph glyph-name="W" unicode="W" horiz-adv-x="1031" 
d="M216 732q3 0 7 -32q5 -27 78 -468q3 -15 9 -47h1q59 128 236 509q16 36 18 38h66q1 0 9 -33q41 -171 125 -514v0q52 137 207 547h1h109h1v0q-70 -178 -281 -709q-8 -23 -10 -23h-84q-1 3 -40 167q-11 37 -91 370q-4 -5 -23 -48q-76 -163 -227 -489h-85q-2 0 -8 44
q-41 229 -122 688v0h104z" />
    <glyph glyph-name="X" unicode="X" horiz-adv-x="667" 
d="M199 732q42 -71 170 -283q23 25 230 283h1h128q-1 0 -1 -1q-74 -89 -296 -353q58 -94 233 -377v-1h-123q-4 5 -137 227q-48 77 -48 80h-1q-63 -77 -254 -307h-121q-1 0 -2 1q76 91 306 364q3 3 11 12q-55 89 -219 355v0h123z" />
    <glyph glyph-name="Y" unicode="Y" horiz-adv-x="667" 
d="M98 732h122q5 -5 168 -283q223 271 235 283h127v0q-79 -95 -318 -379q-10 -88 -39 -352l-1 -1h-98l-2 1q10 88 39 351q1 3 -27 47q-69 111 -206 333v0z" />
    <glyph glyph-name="Z" unicode="Z" horiz-adv-x="606" 
d="M124 732h541l-1 -1q-121 -159 -484 -634h411l1 -1q-3 -24 -11 -95l-1 -1h-589v1q121 159 485 635h-363l-1 1q3 23 11 94z" />
    <glyph glyph-name="bracketleft" unicode="[" horiz-adv-x="381" 
d="M127 757h208v0q-3 -24 -11 -96v0h-112q-18 -163 -74 -665h112v0q-3 -24 -11 -96v0h-208v0q24 226 95 857h1z" />
    <glyph glyph-name="backslash" unicode="\" horiz-adv-x="321" 
d="M45 687q82 -178 327 -711v-1h-95l-1 1q-82 177 -327 711v0h96v0z" />
    <glyph glyph-name="bracketright" unicode="]" horiz-adv-x="400" 
d="M372 757q-23 -211 -95 -857h-1h-207h-1q3 24 11 96h1h111q20 168 74 665h-111h-1q3 24 11 96h1h207v0z" />
    <glyph glyph-name="asciicircum" unicode="^" horiz-adv-x="542" 
d="M276 700h74q2 -2 19 -35q11 -19 79 -145q17 -33 52 -99q-21 -13 -87 -53v0q-18 35 -73 137q-10 19 -40 75q-38 -51 -152 -202q-2 -2 -8 -10q-73 51 -76 53q52 67 154 203q56 74 58 76z" />
    <glyph glyph-name="underscore" unicode="_" horiz-adv-x="556" 
d="M45 0h475v-1q-2 -24 -10 -95q0 -1 -1 -1h-474q3 24 10 97z" />
    <glyph glyph-name="grave" unicode="`" horiz-adv-x="372" 
d="M192 1014q51 -29 204 -117v-1q-10 -20 -41 -81v0q-52 29 -205 117q10 21 42 82z" />
    <glyph glyph-name="a" unicode="a" horiz-adv-x="609" 
d="M336 487q83 0 136 -64q2 18 6 55l2 1h94l1 -1q-13 -119 -52 -477q-1 0 -2 -1h-94q-1 0 -2 1q2 12 6 48q-63 -61 -151 -61v0q-110 0 -177 88q-41 60 -41 131q0 15 2 30v0q12 111 105 191q78 59 167 59zM160 237q-8 -78 54 -129q35 -23 70 -23h11q48 0 97 39q52 48 60 113
v0q8 80 -55 130q-34 22 -71 22h-8q-60 0 -114 -55q-38 -46 -44 -97z" />
    <glyph glyph-name="b" unicode="b" horiz-adv-x="573" 
d="M163 238v-2q-6 -49 19 -91q6 -9 16 -21l8 -8q14 -12 26 -17q28 -15 59 -15q61 0 111 48q19 20 30 38q17 32 21 66q1 1 1 2q6 57 -26 102q-40 50 -104 50q-29 0 -65 -16q-16 -7 -32 -21q-16 -13 -20 -18q-38 -43 -44 -97zM123 732h95h1q-9 -78 -35 -309v0q8 9 23 20
q59 44 129 44v0q81 0 144 -53q8 -7 23 -25q30 -39 41 -79q8 -31 8 -64q0 -14 -1 -29q-7 -64 -45 -121q-12 -20 -33 -42t-34 -31q-16 -11 -28 -19q-64 -36 -128 -36h-7q-27 0 -63 11q-18 6 -33 15q-10 7 -24 19q-7 8 -15 17q-1 -17 -5 -50h-96q20 183 82 732h1z" />
    <glyph glyph-name="c" unicode="c" 
d="M315 487h1q75 0 135 -47q10 -8 24 -23q16 -19 21 -29q7 -9 7 -11q-29 -17 -87 -53v0q-4 9 -17 24q-39 42 -95 42q-54 0 -101 -39q-19 -16 -23 -23q-33 -41 -39 -91q-5 -54 24 -98q10 -14 20 -23q37 -32 86 -32q44 0 85 28q8 5 25 20q10 10 17 20h1q18 -14 74 -53
q-10 -14 -26 -31q-19 -18 -27 -23q-17 -13 -31 -21q-63 -36 -127 -36h-5q-68 0 -125 40q-12 9 -20 17q-17 17 -25 28q-18 24 -24 41q-8 16 -14 42q-6 28 -6 53q0 12 1 24q1 3 1 8q7 56 40 112q11 16 23 32q10 12 29 31q22 19 38 28q67 43 140 43z" />
    <glyph glyph-name="d" unicode="d" horiz-adv-x="588" 
d="M416 335q-4 5 -16 18q-13 14 -28 21q-31 16 -60 16q-65 0 -116 -50q-43 -45 -48 -102q-1 -1 -1 -2q-4 -34 7 -66q6 -18 22 -38q39 -48 100 -48q30 0 62 15q12 5 30 17q3 3 9 8q14 12 22 21q33 42 39 91l1 2q-6 24 -23 97zM591 732q-21 -183 -83 -732h-96q1 12 5 50
q-9 -9 -18 -17q-16 -12 -29 -19q-16 -9 -35 -15q-40 -11 -67 -11h-6q-65 0 -119 36q-11 8 -24 19q-11 9 -28 31q-15 22 -23 42q-20 45 -20 93q0 14 2 28q6 48 28 93q19 40 58 79q20 18 30 25q73 53 154 53v0q71 0 120 -44q12 -11 19 -20v0q9 77 35 309h1h95h1z" />
    <glyph glyph-name="e" unicode="e" horiz-adv-x="519" 
d="M160 299h243v1q-6 25 -33 57q-34 33 -79 33q-68 0 -120 -73q-4 -6 -11 -18zM295 487h14q74 0 135 -59q29 -32 39 -56q23 -51 23 -106q0 -14 -2 -29q0 -5 -1 -15q-2 -14 -3 -14h-359q6 -53 30 -80q35 -44 86 -44q66 0 117 66q10 17 12 17q82 -39 82 -40q-8 -18 -37 -52
q-83 -87 -183 -87h-2q-103 0 -167 92q-35 58 -35 126q0 15 1 30v2q14 117 112 198q71 51 138 51z" />
    <glyph glyph-name="f" unicode="f" horiz-adv-x="325" 
d="M344 732h28v0q-3 -24 -11 -96v-1h-25q-64 0 -100 -60q-21 -37 -28 -96h136v0q-3 -24 -11 -96h-1h-135q-11 -96 -43 -383h-1h-96q11 96 43 383h-92v0q2 24 10 96h1h93v2q14 131 94 199q30 25 59 36q40 16 79 16z" />
    <glyph glyph-name="g" unicode="g" horiz-adv-x="526" 
d="M165 302q-3 -33 26 -59q30 -26 73 -26h1q38 0 72 21q28 18 41 45q4 10 5 19q4 34 -26 59q-29 26 -73 26q-43 0 -79 -25q-36 -26 -40 -60zM109 -49v-2q-2 -22 28 -42q41 -26 105 -26h6q56 0 103 23q10 6 23 16q21 19 22 35q3 22 -28 38q-11 5 -28 9q-28 6 -51 6
q-18 -1 -56 -1q-37 0 -69 5q-10 -5 -21 -12q-31 -23 -34 -49zM492 486h19v-1q-3 -24 -11 -96v0h-22q-6 0 -13 -2q19 -40 15 -85q-7 -54 -45 -99q-7 -8 -26 -26q-34 -28 -69 -40q-43 -16 -87 -16q-45 0 -87 18q-10 -8 -11 -14v0q-2 -13 33 -18q24 -3 63 -3h43q98 0 150 -39
q9 -5 22 -20q12 -14 18 -27q13 -31 9 -63q-5 -50 -49 -94q-19 -18 -28 -24q-19 -13 -34 -20q-13 -6 -30 -13q-16 -5 -37 -11q-40 -9 -74 -9h-14q-58 0 -111 20q-22 9 -39 20q-12 7 -25 20q-16 17 -19 23q-9 13 -13 24q-8 22 -8 44v12q1 3 1 8q3 17 13 41q8 16 19 31
q7 9 22 22q3 3 10 9q-12 22 -9 47v3q4 33 36 77q-16 21 -20 32q-5 7 -11 27q-7 29 -5 55q1 2 1 6q6 46 39 90q8 10 20 22q20 19 28 23q19 13 40 23q49 20 96 20h5q57 0 106 -28q13 10 21 14q31 17 68 17z" />
    <glyph glyph-name="h" unicode="h" horiz-adv-x="521" 
d="M117 732h96l-32 -284h1q27 14 70 26q22 5 54 5h5q129 0 173 -98q11 -27 11 -61q0 -14 -2 -29q-10 -96 -32 -290l-1 -1h-94l-1 1q8 73 33 291q7 61 -42 81q-21 10 -55 10h-8q-61 0 -88 -19q-36 -20 -41 -75q-11 -96 -33 -289h-96q20 183 82 732z" />
    <glyph glyph-name="i" unicode="i" horiz-adv-x="264" 
d="M205 479q-13 -120 -53 -479h-1h-96v0q13 120 53 479h97zM184 732h4q21 0 39 -17q15 -17 15 -38q0 -3 -1 -6v-3q-2 -23 -21 -43q-23 -19 -48 -19h-3q-22 0 -40 18q-9 11 -11 19q-5 13 -3 24q0 1 1 4q2 23 23 43q3 2 8 6q19 12 37 12z" />
    <glyph glyph-name="j" unicode="j" horiz-adv-x="216" 
d="M172 732h5q23 0 42 -20q11 -16 12 -31v-4v-5q0 -2 -1 -7q-2 -16 -17 -34q-10 -11 -14 -14q-19 -11 -36 -11h-4q-20 0 -37 14q-20 20 -17 48q3 32 33 53q18 11 34 11zM98 480h96q0 -1 1 -1l-48 -424q-8 -75 -30 -124q-29 -66 -77 -103q-16 -12 -27 -17q-46 -27 -97 -27
h-12q3 25 11 97q67 0 102 58q26 44 32 105q17 145 49 436z" />
    <glyph glyph-name="k" unicode="k" horiz-adv-x="539" 
d="M123 732h93l1 -1q-12 -112 -49 -446v0q56 48 226 194h139v0q-61 -53 -245 -211q46 -67 182 -268h-1h-121q-11 14 -136 201h-1q-48 -41 -59 -50q-5 -50 -16 -150q-1 0 -2 -1h-94l-1 1q21 183 82 730z" />
    <glyph glyph-name="l" unicode="l" horiz-adv-x="243" 
d="M128 732h95v0q-20 -183 -82 -732h-1h-95h-1q21 183 83 732h1z" />
    <glyph glyph-name="m" unicode="m" horiz-adv-x="856" 
d="M311 479h4q97 0 150 -59q63 59 163 59h16q132 0 176 -99q10 -30 10 -60q0 -9 -1 -17q-11 -101 -33 -302q-1 0 -1 -1h-95v1q8 75 33 300q7 55 -52 75q-17 7 -45 7h-20q-78 0 -107 -52q-8 -15 -9 -32q-12 -99 -34 -298l-1 -1h-94l-1 1q8 73 33 290q5 53 -27 73
q-24 19 -69 19h-8q-62 0 -90 -19q-34 -20 -41 -75q-10 -96 -32 -288l-1 -1h-94l-1 1q13 119 53 474l2 1h93l1 -1q0 -7 -3 -27h1q27 14 69 26q23 5 55 5z" />
    <glyph glyph-name="n" unicode="n" horiz-adv-x="527" 
d="M311 479h5q128 0 173 -98q11 -27 11 -62q0 -14 -1 -28q-11 -96 -33 -290l-2 -1h-93l-1 1q8 73 33 291q6 61 -43 81q-20 10 -53 10h-8q-62 0 -89 -19q-35 -20 -42 -75q-10 -96 -32 -288l-1 -1h-95v1q13 119 53 474l2 1h93l1 -1q-1 -7 -3 -27h1q27 14 69 26q23 5 55 5z" />
    <glyph glyph-name="o" unicode="o" horiz-adv-x="560" 
d="M144 236q-6 -54 24 -99q14 -17 22 -22q36 -31 83 -31q56 0 106 44q19 18 28 32q24 36 29 76v1q6 58 -28 104q-16 18 -21 20q-8 7 -15 11q-31 18 -65 18q-54 0 -102 -39q-17 -16 -22 -23q-34 -41 -39 -92zM317 487q82 0 143 -53q9 -7 24 -25q31 -38 41 -79q9 -31 9 -64
q0 -15 -2 -30q-7 -63 -44 -120q-12 -20 -33 -42q-22 -22 -35 -31q-15 -11 -28 -19q-63 -36 -128 -36h-4q-68 0 -126 40q-11 9 -19 17q-18 16 -26 28q-9 12 -16 26q-9 16 -13 31q-14 40 -14 79q0 12 1 24q0 3 1 8q6 56 40 112q10 16 23 32q10 12 29 31q27 22 38 28
q66 43 139 43z" />
    <glyph glyph-name="p" unicode="p" horiz-adv-x="576" 
d="M160 247q-1 -5 -3 -20q-1 -15 3 -41q4 -17 10 -30q6 -11 18 -27q14 -15 20 -18q11 -8 19 -14q30 -13 55 -13h6q45 0 88 30q8 5 22 18q27 28 39 59q10 22 12 46q7 57 -25 102q-15 17 -18 19q-37 31 -85 31h-4q-26 0 -60 -13q-16 -8 -37 -24q-20 -19 -24 -26
q-9 -11 -15 -21q-5 -9 -13 -25q-8 -23 -8 -33zM328 486q72 0 125 -35q15 -10 35 -30q16 -18 20 -25q11 -16 19 -31q20 -46 20 -98q0 -15 -2 -31q-9 -83 -68 -152q-7 -10 -29 -31q-3 -2 -9 -7q-77 -58 -163 -58q-64 0 -111 36q-9 6 -23 21q-1 2 -5 6q-7 -67 -29 -267h-96
l-1 1q20 173 78 691v1h96q-1 -13 -5 -53q20 20 24 22q16 11 28 18q17 8 33 12q11 4 41 9q9 0 22 1z" />
    <glyph glyph-name="q" unicode="q" horiz-adv-x="585" 
d="M440 280q-4 16 -8 25q-3 10 -9 21q-3 7 -19 26q-17 16 -32 24q-30 13 -56 13h-4q-49 0 -92 -31q-4 -2 -22 -19q-42 -45 -49 -102q-2 -24 2 -46q5 -31 25 -59q12 -13 19 -18q36 -30 80 -30h6q26 0 59 13q9 6 22 14q6 3 24 18q15 16 25 27q8 13 16 30q10 26 12 41q0 6 2 20
q0 8 -1 33zM348 485q28 -5 40 -9q15 -4 29 -12q10 -7 24 -18q4 -2 20 -22q2 18 6 53h96l1 -1q-20 -172 -79 -691v-1h-96q7 67 30 267l-6 -6q-18 -15 -28 -21q-55 -36 -118 -36q-87 0 -150 58q-3 3 -8 7q-17 21 -23 31q-35 57 -35 123q0 14 1 29q8 69 49 129q11 15 25 31
q6 7 26 25q24 20 41 30q62 35 134 35q13 -1 21 -1z" />
    <glyph glyph-name="r" unicode="r" horiz-adv-x="411" 
d="M303 482h12q49 0 99 -29v-1q-31 -95 -34 -99q-44 31 -81 31h-8q-48 0 -89 -35q-31 -33 -42 -127q-8 -73 -24 -220q-1 0 -1 -2h-94q0 1 -1 2q13 117 52 470h2h94v0l-4 -36q60 46 119 46z" />
    <glyph glyph-name="s" unicode="s" horiz-adv-x="480" 
d="M286 507q91 0 149 -58q13 -13 18 -21l5 -10q-1 -2 -29 -17q-27 -16 -58 -34q-8 10 -16 17q-31 25 -79 25h-2q-53 0 -86 -25q-20 -15 -21 -32q-2 -11 7 -17q9 -8 35 -18q36 -12 115 -26q25 -6 43 -14q17 -7 33 -19q8 -6 20 -20q32 -40 27 -90v-1q-6 -51 -48 -96
q-19 -16 -26 -20q-21 -15 -35 -20q-54 -23 -111 -23h-3q-76 0 -133 39q-13 9 -27 24q-12 13 -17 21q-9 13 -15 27q30 16 89 48v0q1 -2 3 -7q5 -9 16 -20q20 -21 52 -31q22 -5 44 -5q44 0 80 20q8 4 18 12q14 16 17 32q2 27 -39 43q-13 5 -49 11q-79 15 -117 33q-17 6 -31 17
q-36 25 -43 63q-5 17 -3 36v3q6 47 46 89q17 16 24 20q18 13 34 20q52 24 113 24z" />
    <glyph glyph-name="t" unicode="t" horiz-adv-x="384" 
d="M170 732h96v0l-28 -252h124q0 -1 1 -1q-3 -24 -11 -96h-1h-124q-7 -61 -27 -242q-4 -28 15 -37q12 -8 26 -8q19 0 56 13q2 1 5 3q7 -23 26 -91q-13 -5 -40 -13q-33 -8 -57 -8h-2q-47 0 -85 29q-7 5 -17 16q-2 4 -7 11q-7 11 -11 20q-9 31 -6 61q9 82 28 246h-71h-1
q3 24 11 96l1 1h70q8 63 29 252z" />
    <glyph glyph-name="u" unicode="u" horiz-adv-x="531" 
d="M237 0h-5q-128 0 -173 97q-11 28 -11 63q0 14 1 28q11 96 33 289q0 1 2 2h93l2 -2q-9 -72 -34 -290q-6 -62 43 -81q20 -10 53 -10h8q62 0 89 20q35 20 42 73q11 96 32 288q0 1 1 2h95v-2q-13 -118 -53 -473l-1 -1h-94l-1 1l4 32h-1q-28 -19 -70 -31q-23 -5 -55 -5z" />
    <glyph glyph-name="v" unicode="v" horiz-adv-x="581" 
d="M175 479q1 -3 16 -50q23 -69 68 -207q7 -20 27 -80q22 41 89 162q22 44 90 175h116q-33 -60 -134 -240q-21 -38 -85 -152q-12 -22 -48 -87h-86q-1 0 -12 33q-23 68 -69 203q-18 54 -74 217q-2 6 -9 26h111z" />
    <glyph glyph-name="w" unicode="w" horiz-adv-x="775" 
d="M180 479q1 0 8 -35q18 -79 53 -238q3 -10 10 -40q23 57 95 227q9 22 36 86h86l1 -8q15 -73 44 -217q4 -22 17 -88q1 0 17 35q32 78 98 235q5 11 19 43h112v0q-27 -59 -105 -234q-25 -53 -99 -215q-3 -7 -12 -30h-96q-1 0 -4 14q-14 66 -26 129l-30 147v0
q-23 -54 -92 -218q-7 -18 -30 -72h-97l-6 27q-16 69 -48 206q-13 56 -51 222q-2 6 -6 24h106z" />
    <glyph glyph-name="x" unicode="x" horiz-adv-x="569" 
d="M179 479q4 -5 55 -79q19 -27 56 -80q36 40 145 159h129v0l-188 -200q-5 -6 -23 -25q22 -31 87 -126q23 -32 89 -128h-128q-6 10 -27 40q-25 37 -99 148l-168 -188h-128v0q46 50 182 200q13 13 50 54q-24 34 -98 137l-64 88h130z" />
    <glyph glyph-name="y" unicode="y" horiz-adv-x="589" 
d="M149 479l3 -10q18 -56 53 -169q14 -44 56 -179q3 3 110 202l81 156h122q-33 -61 -134 -244q-29 -52 -117 -205q-29 -53 -115 -211q-5 -9 -20 -35h-111v1q30 54 119 215q-18 56 -73 224q-19 57 -75 227q-3 7 -9 28h110z" />
    <glyph glyph-name="z" unicode="z" horiz-adv-x="516" 
d="M82 479h430l1 -2q-78 -95 -312 -381h263l1 -1q-3 -23 -10 -94q-1 0 -2 -1h-448v0q78 96 311 383h-244q-1 0 -2 1q3 23 10 93z" />
    <glyph glyph-name="braceleft" unicode="{" horiz-adv-x="397" 
d="M337 772h22l1 -1q-3 -24 -11 -95l-1 -1v0q-6 0 -24 1q-59 -3 -71 -33q-4 -8 -5 -20q-9 -78 -26 -233q-4 -37 -38 -74q25 -37 21 -74q-8 -78 -26 -233q-4 -34 24 -45q22 -8 40 -8q8 0 25 1v-1q-3 -24 -11 -95v-1h-23q-81 0 -124 48q-34 40 -27 101q9 77 26 231
q2 12 -23 28q-12 5 -35 16l8 64q0 2 37 16q29 16 30 28q9 77 26 230q11 94 98 133q41 17 87 17z" />
    <glyph glyph-name="bar" unicode="|" horiz-adv-x="155" 
d="M69 700h95h1q-20 -175 -78 -699q-1 0 -1 -1h-95l-1 1q20 175 78 699h1z" />
    <glyph glyph-name="braceright" unicode="}" horiz-adv-x="421" 
d="M272 755q79 -39 68 -133q-8 -77 -25 -230q-2 -12 24 -28q34 -14 34 -16q-3 -21 -8 -64q-9 -4 -38 -16q-28 -16 -30 -28q-8 -77 -25 -231q-7 -61 -49 -101q-55 -48 -135 -48h-24v1q3 24 11 95l1 1q6 0 24 -1q17 0 42 8q30 11 34 45q8 78 26 233q4 37 38 74q-25 37 -21 74
q8 78 25 233q2 12 0 20q-5 30 -63 33q-8 0 -25 -1v0v1q2 24 11 95l1 1h21q21 -4 83 -17z" />
    <glyph glyph-name="asciitilde" unicode="~" horiz-adv-x="650" 
d="M537 346q-24 -15 -48 -26q-36 -15 -70 -15q-37 0 -109 30q-73 29 -109 29q-32 0 -66 -17q-23 -11 -51 -38q0 33 15 99q24 21 48 31q36 16 69 16q39 0 112 -30q72 -30 106 -30q32 0 66 17q23 12 52 39q0 -35 -15 -105z" />
    <glyph glyph-name="nonbreakingspace" unicode="&#xa0;" horiz-adv-x="254" 
 />
    <glyph glyph-name="exclamdown" unicode="&#xa1;" horiz-adv-x="312" 
d="M142 0h-126v0q20 145 80 579v1h96v-1q-12 -145 -49 -579h-1zM147 606q-31 0 -48 26q-10 17 -8 35q0 1 1 4q2 24 24 44q16 13 30 16q8 1 12 1h7q16 0 32 -12q15 -12 20 -32q1 -6 1 -11q0 -3 -1 -6v-4q-2 -23 -24 -43q-21 -18 -46 -18z" />
    <glyph glyph-name="cent" unicode="&#xa2;" 
d="M244 612q3 19 9 79q1 0 1 1h95l1 -1q-2 -18 -8 -71q59 -7 109 -44q10 -9 24 -24q16 -19 21 -28q7 -11 7 -12q-29 -17 -87 -52v0q-4 8 -17 23q-29 31 -67 39q-11 -100 -33 -299q29 5 57 24q8 5 25 20q10 10 17 20h1q18 -14 74 -54q-10 -13 -26 -29q-19 -19 -27 -24
q-17 -13 -31 -21q-50 -29 -101 -35q-3 -23 -8 -71v-1h-96v1l8 80q-32 10 -60 31q-12 8 -20 16q-17 17 -25 28q-18 24 -24 41q-8 16 -14 43t-6 52q0 12 1 24q1 3 1 8q7 56 40 112q11 16 23 32q10 12 29 31q22 18 38 29q34 21 69 32zM204 237q7 68 29 270q-16 -8 -30 -21
q-19 -16 -23 -23q-33 -41 -39 -91q-5 -54 24 -99q10 -13 20 -22q9 -8 19 -14z" />
    <glyph glyph-name="sterling" unicode="&#xa3;" horiz-adv-x="583" 
d="M426 712h6q54 0 106 -29q17 -10 34 -26l5 -5q-19 -17 -74 -69q-19 17 -44 25q-21 7 -40 7q-40 0 -79 -25q-24 -15 -33 -34q-8 -13 -10 -31v-2q-4 -34 15 -79q12 -29 14 -37h165q-3 -25 -11 -97h-141q-5 -42 -35 -92q-13 -20 -33 -44q-11 -13 -22 -25q31 -3 51 -13
q16 -7 32 -18q8 -7 19 -18q33 -29 69 -29q52 0 120 62q20 -23 61 -68q-28 -25 -40 -33q-25 -19 -51 -32q-53 -25 -98 -25h-6q-46 0 -91 26q-17 10 -36 27q-15 15 -23 17q-16 8 -37 8h-2q-48 0 -119 -37q-6 -3 -17 -10q-12 19 -49 77q9 7 37 29t65 53q37 34 49 48
q21 23 32 38q25 36 27 59h-109q3 24 11 96v1h74q-23 61 -18 118q8 67 56 115q18 17 24 20q21 16 36 23q57 29 110 29z" />
    <glyph glyph-name="currency" unicode="&#xa4;" horiz-adv-x="633" 
d="M97 380q-6 -68 31 -126q7 -11 21 -27q20 -20 30 -26q14 -10 32 -18q46 -22 97 -22q70 0 134 39q46 28 78 72q36 52 41 108q7 74 -37 136q-16 21 -28 31q-20 16 -35 24q-49 28 -110 28q-70 0 -135 -39q-66 -40 -99 -109q-16 -35 -20 -71zM357 695h8q72 0 140 -33
q23 -12 42 -26q0 -1 1 -1q15 13 60 53q58 -65 60 -68v-1q-14 -13 -56 -51q15 -21 24 -43q29 -69 21 -144v-2q-9 -91 -70 -172q-8 -10 -8 -11q14 -15 42 -47q-18 -17 -74 -69l-44 48q-97 -63 -205 -63q-100 0 -180 55q-4 3 -12 8q-50 -45 -54 -48l-60 69q13 12 52 47
q-11 18 -20 36q-9 20 -16 49q-12 50 -8 95q1 3 1 8q7 66 46 132q13 22 33 48q2 1 5 4q-12 13 -46 52q18 17 74 68q12 -13 48 -53q20 13 42 24q24 11 57 21q51 15 97 15z" />
    <glyph glyph-name="yen" unicode="&#xa5;" horiz-adv-x="535" 
d="M108 695q25 -33 101 -131q21 -27 83 -106q42 43 171 171q17 16 66 66q64 -63 66 -64q-51 -50 -151 -150l-114 -114q0 -3 -2 -13h167q-3 -24 -11 -97h-1h-166q0 -5 -2 -21h165h1q-3 -24 -10 -95q-1 0 -1 -1h-166q-3 -34 -14 -139h-97q4 35 15 139h-165l-1 1q3 24 10 95h1
h165q1 6 2 21h-164h-1q3 25 11 97h166q0 3 1 13q-33 42 -132 169q-18 24 -73 95v0q4 4 80 64z" />
    <glyph glyph-name="brokenbar" unicode="&#xa6;" horiz-adv-x="189" 
d="M199 750q-9 -81 -36 -325h-1h-95h-1q9 82 37 325h96zM123 75l-36 -324l-1 -1h-95q-1 0 -1 1q9 81 37 324h96z" />
    <glyph glyph-name="section" unicode="&#xa7;" horiz-adv-x="476" 
d="M238 434q-30 0 -58 -19q-29 -22 -32 -51q-3 -27 19 -48q24 -21 58 -21q39 0 71 26q7 8 11 14q9 14 11 29q3 30 -23 52q-24 18 -52 18h-5zM275 744h7q49 0 91 -27q13 -9 27 -22q16 -19 20 -27q7 -12 11 -21q-31 -15 -91 -44v0q-11 25 -37 37q-16 7 -36 7q-32 0 -59 -15
q-6 -3 -15 -12q-11 -12 -13 -26v-3q-2 -18 17 -30q11 -9 36 -18q24 -9 68 -19q18 -5 32 -12q15 -8 32 -21q18 -16 28 -32q27 -44 22 -95v0q-7 -63 -60 -112q-5 -4 -14 -12q15 -12 26 -29q20 -34 15 -72q0 -2 -1 -5q-4 -41 -33 -78q-7 -8 -21 -23q-18 -13 -28 -19
q-12 -7 -32 -15q-39 -14 -79 -14v0q-77 0 -127 54q-13 17 -17 25q-6 10 -9 18q76 37 92 43q9 -24 37 -37q16 -7 35 -7q29 0 56 14q28 16 30 41q2 16 -8 25q-11 11 -27 18q-25 12 -75 22q-16 4 -29 9q-19 9 -35 20q-11 7 -26 23q-15 19 -21 33q-17 38 -13 75q0 2 1 7
q4 40 34 81q8 11 26 28q4 4 12 11q-15 12 -27 32q-18 31 -13 73q5 53 48 95q17 16 26 21q25 16 55 26q32 9 62 9z" />
    <glyph glyph-name="dieresis" unicode="&#xa8;" horiz-adv-x="449" 
d="M221 975q31 0 48 -27q10 -17 8 -35v-4q-3 -24 -25 -44q-16 -12 -29 -15q-8 -2 -12 -2h-7q-16 0 -32 12t-20 33q-1 6 -1 11v5t1 4q2 24 23 44q21 18 46 18zM412 975q29 0 47 -27q9 -14 9 -30v-5q-1 -1 -1 -4q-3 -24 -24 -44q-16 -12 -31 -15q-8 -2 -12 -2h-7q-16 0 -32 12
q-15 12 -20 33q-1 9 0 16v4q3 24 24 44q21 18 47 18z" />
    <glyph glyph-name="copyright" unicode="&#xa9;" horiz-adv-x="1015" 
d="M568 604h7q63 0 119 -35q15 -9 31 -24q16 -16 24 -28q7 -8 12 -17h-1l-84 -56q-5 9 -15 21q-16 16 -29 23q-32 20 -70 20q-45 0 -85 -27q-25 -16 -44 -40q-27 -37 -31 -78q-6 -57 30 -100q13 -15 23 -21q35 -25 77 -25h2q55 0 103 40q16 15 23 24h1q18 -13 74 -53
q-10 -13 -31 -34q-20 -18 -35 -28q-16 -10 -29 -17q-19 -9 -40 -17q-39 -11 -72 -11h-9q-46 0 -94 22q-85 41 -112 132q-12 43 -8 84q0 2 1 8q6 54 38 108q12 18 30 40q22 22 43 37q22 16 40 25q56 27 111 27zM569 788q130 0 232 -75q19 -13 43 -38q26 -27 31 -35
q17 -24 28 -42q46 -88 46 -186q0 -21 -2 -43q-12 -119 -87 -223q-16 -23 -44 -53q-29 -28 -48 -42q-29 -23 -49 -35q-113 -65 -234 -65t-221 67q-21 15 -47 39q-27 29 -33 37q-24 35 -36 57q-13 25 -23 54q-18 61 -18 121q0 19 1 38q1 4 1 12q8 79 51 160q17 32 43 68
q16 20 41 44q31 31 43 39q33 26 59 41q107 60 223 60zM204 370v-2q-10 -99 40 -184q9 -16 25 -35q19 -21 26 -28q21 -17 40 -30q73 -45 159 -45h2q94 0 181 53q14 7 32 21q9 7 36 31q3 4 11 12q21 22 35 43q52 77 61 163q9 102 -43 189q-9 15 -29 39q-24 27 -41 38
q-79 58 -179 58t-193 -60q-15 -9 -44 -34q-27 -24 -38 -39q-14 -18 -25 -36q-48 -73 -56 -154z" />
    <glyph glyph-name="ordfeminine" unicode="&#xaa;" horiz-adv-x="324" 
 />
    <glyph glyph-name="guillemotleft" unicode="&#xab;" horiz-adv-x="652" 
d="M64 201q1 17 7 67q47 31 188 121q7 5 26 17v0q3 -3 25 -42q7 -12 22 -37v0l-144 -92l124 -92q-61 -76 -64 -79q-61 45 -184 136v1zM339 201q1 17 7 67q47 31 188 121q7 5 26 17v0q3 -3 25 -42q7 -12 22 -37v0q-36 -23 -143 -92q30 -23 123 -92q-62 -76 -64 -79
q-61 45 -184 136v1z" />
    <glyph glyph-name="logicalnot" unicode="&#xac;" horiz-adv-x="460" 
d="M50 405h376l1 -1q-7 -57 -27 -229h-96q4 33 15 133h-280q3 25 11 97z" />
    <glyph glyph-name="uni00ad" unicode="&#xad;" horiz-adv-x="473" 
d="M63 304h353v-1q-3 -24 -11 -95v-1h-353q3 24 11 97z" />
    <glyph glyph-name="registered" unicode="&#xae;" horiz-adv-x="645" 
d="M316 596q-3 -26 -11 -101h48q24 0 43 17q14 14 16 33v4q3 26 -20 40q-13 7 -28 7h-48zM283 632h85q22 0 42 -11q7 -2 14 -9q3 -2 9 -8q9 -11 12 -23q6 -15 4 -30q0 -3 -1 -7q-1 -20 -13 -39q-4 -6 -11 -14q-8 -7 -14 -12q-10 -7 -17 -11q-4 -1 -6 -2q1 -1 17 -38
q10 -24 31 -71h-43q-1 2 -26 61q-5 13 -17 41h-46q0 -1 -1 -1q-3 -25 -10 -101h-36q6 69 27 275zM367 732q74 0 133 -43q10 -8 24 -21q14 -16 17 -20q11 -15 16 -24q26 -50 26 -106q0 -12 -1 -25q-7 -68 -50 -126q-8 -14 -24 -31q-17 -16 -28 -24q-16 -12 -28 -20
q-64 -37 -132 -37q-69 0 -126 38q-13 9 -27 23q-16 16 -19 21q-14 19 -20 32q-8 14 -13 31q-11 35 -11 69q0 11 1 22v6q5 45 29 91q10 19 25 39q9 11 22 25q19 17 26 23q18 14 33 22q61 35 127 35zM145 494v-2q-6 -60 24 -112q6 -10 16 -22q11 -13 16 -17q12 -10 24 -18
q46 -27 98 -27h1q58 0 111 32q9 4 20 13q5 3 22 18q2 3 6 8q13 13 22 26q31 47 37 100q6 63 -26 116q-5 10 -17 24q-15 16 -26 23q-49 36 -110 36q-62 0 -118 -36q-9 -7 -26 -22q-17 -14 -24 -23q-8 -11 -15 -23q-29 -44 -35 -94z" />
    <glyph glyph-name="macron" unicode="&#xaf;" horiz-adv-x="335" 
 />
    <glyph glyph-name="degree" unicode="&#xb0;" horiz-adv-x="488" 
d="M159 543q-3 -29 18 -51q18 -16 41 -16q29 0 53 24q17 19 20 43q3 32 -23 53q-16 12 -36 12q-32 0 -56 -27q-15 -17 -17 -38zM239 715h6q45 0 86 -26q48 -32 62 -90q5 -21 5 -40q0 -8 -1 -16q-6 -63 -54 -114q-18 -17 -27 -23q-52 -35 -108 -35q-63 0 -108 41
q-16 15 -20 22q-7 9 -12 21q-17 35 -17 70q0 7 1 14q0 3 1 8q4 44 35 88q36 49 96 70q29 10 55 10z" />
    <glyph glyph-name="plusminus" unicode="&#xb1;" horiz-adv-x="384" 
d="M12 0h353v0q-2 -24 -10 -96h-1h-353q3 24 11 96zM136 207h-129q3 24 11 97h130q3 32 14 128h1h95h1q-4 -32 -15 -128h128l1 -1q-3 -24 -11 -95q0 -1 -1 -1h-128q-4 -32 -14 -130h-97q4 33 14 130z" />
    <glyph glyph-name="twosuperior" unicode="&#xb2;" horiz-adv-x="507" 
 />
    <glyph glyph-name="threesuperior" unicode="&#xb3;" horiz-adv-x="507" 
 />
    <glyph glyph-name="acute" unicode="&#xb4;" horiz-adv-x="376" 
d="M396 932q-51 -29 -204 -117h-1q-10 20 -41 81v1q51 29 205 117z" />
    <glyph glyph-name="mu" unicode="&#xb5;" horiz-adv-x="558" 
d="M152 23q-6 -56 -24 -223h-1h-95h-1q19 170 77 679v1h96v-1q-8 -73 -33 -293q-7 -61 42 -80q20 -10 54 -10h8q61 0 89 20q35 20 41 73q11 96 32 288l2 2h94v-2q-13 -118 -53 -473v-1h-95l-1 1q1 7 4 27h-1q-27 -14 -70 -26q-22 -5 -54 -5h-5q-62 0 -106 23z" />
    <glyph glyph-name="paragraph" unicode="&#xb6;" horiz-adv-x="567" 
d="M367 51q14 132 59 530h-56q-15 -133 -59 -530l-1 -1h-96l-1 1q8 70 32 281q-66 9 -104 49t-38 100q0 11 1 23q9 78 68 126t148 48h221v-1h35v0q-3 -24 -11 -96h-1h-41q-15 -133 -59 -530l-1 -1h-96v1z" />
    <glyph glyph-name="periodcentered" unicode="&#xb7;" horiz-adv-x="259" 
d="M221 449q31 0 48 -26q9 -15 9 -30q0 -3 -1 -5v-4q-3 -24 -25 -44q-16 -12 -29 -16q-8 -1 -12 -1h-7q-16 0 -32 12t-20 33q-1 5 -1 10v6q0 1 1 4q2 24 23 44q21 17 46 17z" />
    <glyph glyph-name="cedilla" unicode="&#xb8;" horiz-adv-x="341" 
d="M224 16l76 -16v-1q-3 -8 -10 -31q15 -3 22 -5q29 -13 41 -42q7 -17 7 -34q0 -5 -1 -10v-3q-3 -33 -30 -62q-12 -11 -18 -15q-35 -24 -71 -24h-3q-40 0 -71 28q-13 14 -14 17q-1 1 -2 3v0q17 13 69 50q12 -18 28 -18q12 0 22 8q9 7 10 15q1 5 -3 11q-3 2 -11 2h-2
q-13 0 -35 -8q-17 -5 -53 -17h1l48 152v0z" />
    <glyph glyph-name="onesuperior" unicode="&#xb9;" horiz-adv-x="507" 
 />
    <glyph glyph-name="ordmasculine" unicode="&#xba;" horiz-adv-x="359" 
 />
    <glyph glyph-name="guillemotright" unicode="&#xbb;" horiz-adv-x="652" 
d="M591 200q-54 -34 -215 -136q-2 3 -46 79q48 31 143 92q-31 23 -123 92v0q8 9 30 37q31 39 34 42h1q5 -4 21 -17q41 -30 163 -121q-2 -16 -8 -67v-1zM316 200q-54 -34 -215 -136q-2 3 -46 79q48 31 143 92q-31 23 -123 92v0q8 9 30 37q31 39 34 42h1q5 -4 21 -17
q41 -30 163 -121q-2 -16 -8 -67v-1z" />
    <glyph glyph-name="onequarter" unicode="&#xbc;" horiz-adv-x="854" 
 />
    <glyph glyph-name="onehalf" unicode="&#xbd;" horiz-adv-x="982" 
 />
    <glyph glyph-name="threequarters" unicode="&#xbe;" horiz-adv-x="854" 
 />
    <glyph glyph-name="questiondown" unicode="&#xbf;" horiz-adv-x="569" 
d="M271 630q-28 0 -46 23q-12 19 -9 39v3q3 25 25 45q22 16 42 16h6q16 0 32 -12t20 -35q2 -9 0 -16q-2 -29 -29 -49q-19 -14 -41 -14zM199 0h-7q-44 0 -87 20q-18 9 -37 25q-11 8 -22 21q-17 20 -24 35q-24 46 -24 97q0 13 2 26q7 59 47 116q10 16 26 32q19 19 33 29
q19 15 62 43q12 7 24 18q8 7 11 13q4 6 4 13q4 38 13 115v1h96v-1q-3 -28 -12 -114q-8 -68 -77 -116q-16 -13 -59 -40q-23 -16 -40 -36q-18 -24 -28 -53q-3 -12 -4 -20q-5 -50 25 -88q34 -40 86 -40q49 0 92 37q41 39 46 91q1 6 3 17h96q-1 -5 -3 -21q-5 -49 -36 -100
q-10 -17 -28 -36q-7 -9 -25 -24q-15 -13 -27 -20q-20 -13 -41 -23q-44 -17 -85 -17z" />
    <glyph glyph-name="Agrave" unicode="&#xc0;" horiz-adv-x="732" 
d="M362 1014q51 -29 204 -117l1 -1q-11 -20 -42 -81v0q-51 29 -205 117q11 21 42 82zM236 255h268q-25 82 -97 329q-2 0 -71 -135q-33 -65 -100 -194zM468 732q2 0 32 -108q62 -208 185 -624h-1h-104q-2 0 -11 33q-12 42 -37 124h-347q-20 -39 -81 -157h-104v0
q81 157 323 625q13 27 55 107h90z" />
    <glyph glyph-name="Aacute" unicode="&#xc1;" horiz-adv-x="732" 
d="M320 896q52 30 205 118v-1q10 -20 42 -81h-1q-51 -30 -204 -117q-10 20 -42 81zM236 255h268q-25 82 -97 329q-2 0 -71 -135q-33 -65 -100 -194zM468 732q2 0 32 -108q62 -208 185 -624h-1h-104q-2 0 -11 33q-12 42 -37 124h-347q-20 -39 -81 -157h-104v0q81 157 323 625
q13 27 55 107h90z" />
    <glyph glyph-name="Acircumflex" unicode="&#xc2;" horiz-adv-x="732" 
d="M425 1004h56q7 -7 99 -125q-27 -21 -80 -64q-14 19 -59 76l-76 -76v0q-16 16 -65 64v0zM236 255h268q-25 82 -97 329q-2 0 -71 -135q-33 -65 -100 -194zM468 732q2 0 32 -108q62 -208 185 -624h-1h-104q-2 0 -11 33q-12 42 -37 124h-347q-20 -39 -81 -157h-104v0
q81 157 323 625q13 27 55 107h90z" />
    <glyph glyph-name="Atilde" unicode="&#xc3;" horiz-adv-x="732" 
d="M598 864q-18 -15 -36 -25q-27 -15 -51 -15q-27 0 -75 29q-48 28 -73 28q-23 0 -49 -16q-17 -11 -40 -37q3 31 10 92q20 20 37 29q27 16 51 16q28 0 76 -29t72 -29q21 0 48 16q17 12 40 37q-3 -32 -10 -96zM236 255h268q-25 82 -97 329q-2 0 -71 -135q-33 -65 -100 -194z
M468 732q2 0 32 -108q62 -208 185 -624h-1h-104q-2 0 -11 33q-12 42 -37 124h-347q-20 -39 -81 -157h-104v0q81 157 323 625q13 27 55 107h90z" />
    <glyph glyph-name="Adieresis" unicode="&#xc4;" horiz-adv-x="732" 
d="M353 956q31 0 48 -27q10 -17 8 -34v-4q-3 -24 -25 -44q-16 -13 -29 -16q-8 -2 -12 -2h-7q-16 0 -32 12t-20 33q-2 9 -1 17q0 1 1 4q2 23 23 43q21 18 46 18zM544 956q29 0 47 -27q10 -17 9 -34q-1 -2 -1 -4q-3 -24 -24 -44q-16 -13 -31 -16q-8 -2 -12 -2h-7q-16 0 -32 12
q-15 12 -20 33q-1 9 0 17v4q3 23 24 43q21 18 47 18zM236 255h268q-25 82 -97 329q-2 0 -71 -135q-33 -65 -100 -194zM468 732q2 0 32 -108q62 -208 185 -624h-1h-104q-2 0 -11 33q-12 42 -37 124h-347q-20 -39 -81 -157h-104v0q81 157 323 625q13 27 55 107h90z" />
    <glyph glyph-name="Aring" unicode="&#xc5;" horiz-adv-x="732" 
d="M397 814v-1q-1 -16 11 -28q9 -7 20 -7q17 0 30 14q9 11 10 21v2q1 13 -8 23t-24 10q-13 0 -25 -9q-12 -11 -14 -25zM236 255h268q-25 82 -97 329q-2 0 -71 -135q-33 -65 -100 -194zM378 732h-1q-6 4 -13 9q-7 8 -10 13q-6 10 -10 17q-8 21 -5 40v5q3 27 24 52q4 5 14 15
q31 24 64 24h2q33 0 58 -23q10 -11 12 -15q16 -25 13 -56q-4 -37 -36 -66q-2 -2 -5 -6q-8 -5 -16 -9v0q3 -8 31 -108q62 -208 185 -624h-1h-104q-2 0 -11 33q-12 42 -37 124h-347q-20 -39 -81 -157h-104v0q81 157 323 625q13 27 55 107z" />
    <glyph glyph-name="AE" unicode="&#xc6;" horiz-adv-x="963" 
d="M576 564q-53 -65 -211 -260v0h182l1 1q8 65 29 259h-1zM596 732h392l1 -1q-3 -24 -10 -94l-2 -1h-297q-6 -56 -24 -221l1 -2h235v-1q-3 -23 -10 -93l-1 -1h-236q-6 -56 -24 -222h297q0 -1 1 -1q-2 -24 -10 -94l-1 -1h-392l-1 1q6 52 22 206l-1 1h-249q-3 -4 -111 -136
q-55 -68 -59 -72h-115l-2 1q75 92 297 366q75 91 299 365z" />
    <glyph glyph-name="Ccedilla" unicode="&#xc7;" horiz-adv-x="735" 
d="M388 0q-3 -8 -11 -32q15 -3 23 -5q29 -13 40 -42q9 -22 7 -44v-3q-4 -33 -31 -62q-12 -11 -18 -15q-34 -24 -71 -24h-3q-39 0 -71 28q-12 14 -13 17l-3 3v0q18 13 69 50q13 -18 29 -18q11 0 21 8q9 7 11 15q0 5 -3 11q-4 2 -12 4h-3q-12 -2 -33 -7q-17 -6 -53 -18v1
q11 35 45 141q-97 23 -168 109q-67 93 -67 205q0 21 2 42q0 1 1 4q15 138 117 248q121 116 268 116h1q142 0 235 -110q33 -43 46 -74q-5 -4 -91 -47q-10 25 -33 57q-70 78 -167 78q-100 0 -186 -79q-83 -84 -94 -190q-15 -124 71 -212q65 -58 145 -58h10q88 0 173 72
q36 36 53 63q26 -15 79 -44v-3q-20 -31 -52 -66q-120 -116 -263 -119z" />
    <glyph glyph-name="Egrave" unicode="&#xc8;" 
d="M129 732h394v0q-3 -24 -11 -96h-297q-7 -56 -26 -222h236v-1q-2 -23 -10 -94q0 -1 -1 -1h-235q-7 -55 -25 -222h298l-12 -96v0h-393v0q20 183 81 732h1zM264 1014q52 -29 205 -117v-1q-10 -20 -41 -81v0q-51 29 -205 117q10 21 41 82z" />
    <glyph glyph-name="Eacute" unicode="&#xc9;" 
d="M469 932q-51 -29 -205 -117v0q-10 20 -41 81l1 1q51 29 204 117zM129 732h394v0q-3 -24 -11 -96h-297q-7 -56 -26 -222h236v-1q-2 -23 -10 -94q0 -1 -1 -1h-235q-7 -55 -25 -222h298l-12 -96v0h-393v0q20 183 81 732h1z" />
    <glyph glyph-name="Ecircumflex" unicode="&#xca;" 
d="M129 732h394v0q-3 -24 -11 -96h-297q-7 -56 -26 -222h236v-1q-2 -23 -10 -94q0 -1 -1 -1h-235q-7 -55 -25 -222h298l-12 -96v0h-393v0q20 183 81 732h1zM328 1004h57q6 -7 98 -125q-27 -21 -80 -64q-15 19 -59 76l-76 -76v0q-17 16 -65 64v0z" />
    <glyph glyph-name="Edieresis" unicode="&#xcb;" 
d="M129 732h394v0q-3 -24 -11 -96h-297q-7 -56 -26 -222h236v-1q-2 -23 -10 -94q0 -1 -1 -1h-235q-7 -55 -25 -222h298l-12 -96v0h-393v0q20 183 81 732h1zM256 956q31 0 48 -27q10 -17 8 -34v-4q-3 -24 -25 -44q-15 -13 -30 -16q-8 -2 -12 -2h-6q-16 0 -33 12
q-15 12 -19 33q-2 9 -2 17q1 1 1 4q2 23 24 43q21 18 46 18zM447 956q29 0 47 -27q10 -17 8 -34q0 -2 -1 -4q-2 -24 -24 -44q-16 -13 -30 -16q-7 -2 -11 -2h-8q-16 0 -32 12t-20 33q-1 9 0 17v4q3 23 24 43q21 18 47 18z" />
    <glyph glyph-name="Igrave" unicode="&#xcc;" horiz-adv-x="228" 
d="M127 732h95v0q-20 -183 -82 -732v0h-96v0q20 183 81 732h2zM112 1014q52 -29 205 -117v-1q-10 -20 -41 -81v0q-51 29 -205 117q10 21 41 82z" />
    <glyph glyph-name="Iacute" unicode="&#xcd;" horiz-adv-x="228" 
d="M127 732h95v0q-20 -183 -82 -732v0h-96v0q20 183 81 732h2zM317 932q-51 -29 -205 -117v0q-10 20 -41 81l1 1q51 29 204 117z" />
    <glyph glyph-name="Icircumflex" unicode="&#xce;" horiz-adv-x="228" 
d="M127 732h95v0q-20 -183 -82 -732v0h-96v0q20 183 81 732h2zM176 1004h57q6 -7 98 -125q-27 -21 -80 -64q-15 19 -59 76l-76 -76v0q-17 16 -65 64v0z" />
    <glyph glyph-name="Idieresis" unicode="&#xcf;" horiz-adv-x="228" 
d="M114 956q30 0 47 -27q11 -17 9 -34q0 -2 -1 -4q-2 -24 -24 -44q-16 -13 -30 -16q-8 -2 -12 -2h-7q-16 0 -32 12t-20 33q-1 6 -1 11q0 3 1 6v4q3 23 24 43q20 18 46 18zM284 956q30 0 48 -27q8 -14 8 -29v-5v-4q-4 -24 -25 -44q-16 -13 -31 -16q-7 -2 -11 -2h-7
q-16 0 -32 12t-20 33q-2 9 -1 17q1 1 1 4q2 23 23 43q22 18 47 18zM127 732h95v0q-20 -183 -82 -732v0h-96v0q20 183 81 732h2z" />
    <glyph glyph-name="Eth" unicode="&#xd0;" horiz-adv-x="708" 
d="M243 634q-7 -55 -25 -219h99q-3 -25 -11 -98h-99q-6 -55 -25 -221h89q128 0 222 95q75 78 86 174q10 99 -47 177q-36 42 -56 52q-1 1 -3 2q-17 13 -57 27q-36 12 -96 12h-76zM75 1l36 316h-64q2 24 10 98h64q9 78 36 315l2 2h190q132 0 230 -89q37 -39 46 -57
q52 -83 52 -177q0 -20 -2 -41v-5q-15 -147 -136 -263q-67 -53 -128 -76q-75 -24 -139 -24h-196z" />
    <glyph glyph-name="Ntilde" unicode="&#xd1;" horiz-adv-x="710" 
d="M596 864q-18 -15 -36 -25q-27 -15 -52 -15q-26 0 -74 29q-47 28 -74 28q-21 0 -48 -16q-17 -11 -40 -37q4 31 11 92q18 20 36 29q28 16 51 16q29 0 76 -29q48 -29 72 -29q22 0 48 16q18 12 42 37zM130 732h104q73 -131 293 -523q6 -12 26 -49v0q16 143 64 571q1 0 2 1h94
l2 -1q-21 -183 -83 -730l-1 -1h-104q-23 38 -166 298q-52 91 -154 274q-16 -143 -64 -571q-1 0 -2 -1h-93l-1 1q20 183 81 730q1 0 2 1z" />
    <glyph glyph-name="Ograve" unicode="&#xd2;" horiz-adv-x="796" 
d="M392 1014q51 -29 204 -117v-1q-10 -20 -40 -81h-1q-51 29 -204 117q10 21 41 82zM452 732h2q145 0 242 -113q72 -94 72 -210q0 -21 -3 -43q-14 -157 -141 -272q-116 -94 -246 -94h-5q-130 0 -225 93q-41 48 -52 75q-37 73 -37 156q0 20 2 41v3q15 157 143 273q12 9 37 27
q100 67 211 64zM157 367q-13 -119 67 -206q68 -64 160 -64q120 0 215 106q60 76 69 159v6q12 103 -51 185q-70 83 -173 83q-116 0 -209 -99q-67 -78 -78 -170z" />
    <glyph glyph-name="Oacute" unicode="&#xd3;" horiz-adv-x="796" 
d="M351 896q51 30 204 118l1 -1q10 -20 40 -81v0q-51 -30 -204 -117q-10 20 -41 81zM452 732h2q145 0 242 -113q72 -94 72 -210q0 -21 -3 -43q-14 -157 -141 -272q-116 -94 -246 -94h-5q-130 0 -225 93q-41 48 -52 75q-37 73 -37 156q0 20 2 41v3q15 157 143 273q12 9 37 27
q100 67 211 64zM157 367q-13 -119 67 -206q68 -64 160 -64q120 0 215 106q60 76 69 159v6q12 103 -51 185q-70 83 -173 83q-116 0 -209 -99q-67 -78 -78 -170z" />
    <glyph glyph-name="Ocircumflex" unicode="&#xd4;" horiz-adv-x="796" 
d="M455 1004h57q5 -7 97 -125q-26 -21 -79 -64q-15 19 -59 76l-76 -76v0q-17 16 -66 64v0q32 31 126 125zM452 732h2q145 0 242 -113q72 -94 72 -210q0 -21 -3 -43q-14 -157 -141 -272q-116 -94 -246 -94h-5q-130 0 -225 93q-41 48 -52 75q-37 73 -37 156q0 20 2 41v3
q15 157 143 273q12 9 37 27q100 67 211 64zM157 367q-13 -119 67 -206q68 -64 160 -64q120 0 215 106q60 76 69 159v6q12 103 -51 185q-70 83 -173 83q-116 0 -209 -99q-67 -78 -78 -170z" />
    <glyph glyph-name="Otilde" unicode="&#xd5;" horiz-adv-x="796" 
d="M628 864q-19 -15 -36 -25q-28 -15 -52 -15q-27 0 -74 29q-48 28 -74 28q-21 0 -48 -16q-17 -11 -40 -37q3 31 10 92q19 20 37 29q26 16 50 16q28 0 76 -29t72 -29q22 0 48 16q19 12 42 37q-4 -32 -11 -96zM452 732h2q145 0 242 -113q72 -94 72 -210q0 -21 -3 -43
q-14 -157 -141 -272q-116 -94 -246 -94h-5q-130 0 -225 93q-41 48 -52 75q-37 73 -37 156q0 20 2 41v3q15 157 143 273q12 9 37 27q100 67 211 64zM157 367q-13 -119 67 -206q68 -64 160 -64q120 0 215 106q60 76 69 159v6q12 103 -51 185q-70 83 -173 83q-116 0 -209 -99
q-67 -78 -78 -170z" />
    <glyph glyph-name="Odieresis" unicode="&#xd6;" horiz-adv-x="796" 
d="M383 956q29 0 48 -27q9 -17 8 -34q-1 -2 -1 -4q-2 -24 -25 -44q-15 -13 -29 -16q-8 -2 -12 -2h-7q-16 0 -33 12q-15 12 -20 33q-1 9 0 17v4q3 23 24 43q21 18 47 18zM572 956q31 0 48 -27q11 -17 8 -34v-4q-3 -24 -24 -44q-16 -13 -31 -16q-7 -2 -11 -2h-7q-16 0 -32 12
t-20 33q-2 9 -1 17q0 1 1 4q2 23 23 43q21 18 46 18zM452 732h2q145 0 242 -113q72 -94 72 -210q0 -21 -3 -43q-14 -157 -141 -272q-116 -94 -246 -94h-5q-130 0 -225 93q-41 48 -52 75q-37 73 -37 156q0 20 2 41v3q15 157 143 273q12 9 37 27q100 67 211 64zM157 367
q-13 -119 67 -206q68 -64 160 -64q120 0 215 106q60 76 69 159v6q12 103 -51 185q-70 83 -173 83q-116 0 -209 -99q-67 -78 -78 -170z" />
    <glyph glyph-name="multiply" unicode="&#xd7;" horiz-adv-x="371" 
d="M188 175q-25 -23 -102 -92q-15 17 -61 68q26 23 103 92q-21 23 -83 92h1q19 17 74 68h1q20 -23 82 -92q26 23 102 92h1q15 -17 61 -68h-1q-25 -23 -102 -92q20 -23 82 -92l-76 -68q-20 23 -82 92z" />
    <glyph glyph-name="Oslash" unicode="&#xd8;" horiz-adv-x="796" 
d="M244 27q-15 -20 -57 -79v0q-19 12 -75 47v1q14 20 56 79l-20 18q-8 9 -14 17q21 29 62 87q12 -18 28 -36q3 -2 5 -4q109 150 326 450q-15 9 -31 15q13 30 41 91q26 -9 50 -24q22 30 65 91h1q18 -11 74 -47v0l-72 -100q6 -7 13 -14q19 -25 32 -51q-28 -18 -85 -54
q-10 18 -22 34q-105 -146 -317 -437q21 -8 44 -11q-12 -32 -36 -95q-17 6 -68 22zM452 732h2q145 0 242 -113q72 -94 72 -210q0 -21 -3 -43q-14 -157 -141 -272q-117 -95 -251 -94q-130 0 -225 93q-41 48 -52 75q-37 73 -37 156q0 20 2 41v3q15 157 143 273q12 9 37 27
q100 67 211 64zM157 367q-13 -119 67 -206q68 -64 160 -64q120 0 215 106q60 76 69 159v6q12 103 -51 185q-70 83 -173 83q-116 0 -209 -99q-67 -78 -78 -170z" />
    <glyph glyph-name="Ugrave" unicode="&#xd9;" horiz-adv-x="701" 
d="M362 1014q51 -29 205 -117v-1q-11 -20 -41 -81h-1q-51 29 -205 117q11 21 42 82zM138 732h94v-1q-12 -112 -49 -446q-10 -81 13 -119q20 -43 77 -63q22 -6 43 -6h71q85 0 141 78q27 41 33 97l51 459q1 0 2 1h94l1 -1q-12 -109 -49 -435q-9 -87 -29 -125
q-40 -87 -115 -132q-65 -39 -152 -39h-48q-113 0 -175 68q-27 31 -40 61q-19 49 -19 103q0 17 2 34q17 155 52 465q1 0 2 1z" />
    <glyph glyph-name="Uacute" unicode="&#xda;" horiz-adv-x="701" 
d="M320 896q52 30 205 118q1 0 1 -1q10 -20 41 -81v0q-52 -30 -205 -117q-10 20 -42 81zM138 732h94v-1q-12 -112 -49 -446q-10 -81 13 -119q20 -43 77 -63q22 -6 43 -6h71q85 0 141 78q27 41 33 97l51 459q1 0 2 1h94l1 -1q-12 -109 -49 -435q-9 -87 -29 -125
q-40 -87 -115 -132q-65 -39 -152 -39h-48q-113 0 -175 68q-27 31 -40 61q-19 49 -19 103q0 17 2 34q17 155 52 465q1 0 2 1z" />
    <glyph glyph-name="Ucircumflex" unicode="&#xdb;" horiz-adv-x="701" 
d="M425 1004h57q6 -7 98 -125q-27 -21 -80 -64q-14 19 -59 76l-76 -76v0q-16 16 -65 64v0zM138 732h94v-1q-12 -112 -49 -446q-10 -81 13 -119q20 -43 77 -63q22 -6 43 -6h71q85 0 141 78q27 41 33 97l51 459q1 0 2 1h94l1 -1q-12 -109 -49 -435q-9 -87 -29 -125
q-40 -87 -115 -132q-65 -39 -152 -39h-48q-113 0 -175 68q-27 31 -40 61q-19 49 -19 103q0 17 2 34q17 155 52 465q1 0 2 1z" />
    <glyph glyph-name="Udieresis" unicode="&#xdc;" horiz-adv-x="701" 
d="M355 956q29 0 48 -27q9 -17 8 -34q-1 -2 -1 -4q-3 -24 -25 -44q-16 -13 -30 -16q-7 -2 -11 -2h-8q-16 0 -32 12q-15 12 -20 33q-1 9 0 17v4q3 23 24 43q21 18 47 18zM544 956q31 0 48 -27q11 -17 8 -34v-4q-3 -24 -24 -44q-16 -13 -31 -16q-8 -2 -12 -2h-6q-16 0 -32 12
t-20 33q-2 9 -1 17q0 1 1 4q2 23 24 43q20 18 45 18zM138 732h94v-1q-12 -112 -49 -446q-10 -81 13 -119q20 -43 77 -63q22 -6 43 -6h71q85 0 141 78q27 41 33 97l51 459q1 0 2 1h94l1 -1q-12 -109 -49 -435q-9 -87 -29 -125q-40 -87 -115 -132q-65 -39 -152 -39h-48
q-113 0 -175 68q-27 31 -40 61q-19 49 -19 103q0 17 2 34q17 155 52 465q1 0 2 1z" />
    <glyph glyph-name="Yacute" unicode="&#xdd;" horiz-adv-x="667" 
d="M567 932q-51 -29 -204 -117h-1q-10 20 -41 81v1q51 29 204 117q11 -20 42 -82zM98 732h122q5 -5 168 -283q223 271 235 283h127v0q-79 -95 -318 -379q-10 -88 -39 -352l-1 -1h-98l-2 1q10 88 39 351q1 3 -27 47q-69 111 -206 333v0z" />
    <glyph glyph-name="Thorn" unicode="&#xde;" horiz-adv-x="709" 
d="M153 111q-3 -28 -12 -111h-1h-95h-1q21 183 83 732h1h95v0q-3 -28 -12 -111h220q77 0 136 -33q14 -8 30 -22q6 -5 19 -21q38 -50 38 -116q0 -14 -2 -29q-2 -22 -7 -68q-10 -86 -71 -147q-18 -16 -27 -22q-20 -14 -34 -20q-13 -7 -29 -13q-53 -19 -111 -19h-220zM200 525
q-9 -79 -36 -317h216q88 0 134 47q11 13 16 21q14 24 19 62q2 19 7 57q4 41 -7 65q-14 36 -58 53q-31 12 -77 12h-214z" />
    <glyph glyph-name="germandbls" unicode="&#xdf;" horiz-adv-x="684" 
d="M345 732q90 0 149 -36q66 -46 58 -120q-1 -1 -1 -4q-7 -62 -69 -132q-38 -45 -41 -67q-2 -22 64 -57q115 -70 115 -158v-15q-9 -72 -88 -131q-69 -45 -141 -45q-108 0 -173 100q-10 17 -10 20q29 17 87 50l12 -20q37 -53 94 -53q54 0 100 40q20 23 22 39q5 48 -106 106
q-80 51 -72 127q6 52 67 124q40 43 43 72v3q5 50 -102 60q-6 0 -19 1q-84 0 -118 -60q-10 -16 -11 -24q-20 -183 -61 -551q-1 0 -2 -1h-94l-1 1q16 139 62 556q4 36 42 88q72 87 194 87z" />
    <glyph glyph-name="agrave" unicode="&#xe0;" horiz-adv-x="609" 
d="M272 764q51 -29 204 -117v-1q-10 -20 -41 -81v-1q-52 30 -205 118q10 20 42 82zM336 487q83 0 136 -64q2 18 6 55l2 1h94l1 -1q-13 -119 -52 -477q-1 0 -2 -1h-94q-1 0 -2 1q2 12 6 48q-63 -61 -151 -61v0q-110 0 -177 88q-41 60 -41 131q0 15 2 30v0q12 111 105 191
q78 59 167 59zM160 237q-8 -78 54 -129q35 -23 70 -23h11q48 0 97 39q52 48 60 113v0q8 80 -55 130q-34 22 -71 22h-8q-60 0 -114 -55q-38 -46 -44 -97z" />
    <glyph glyph-name="aacute" unicode="&#xe1;" horiz-adv-x="609" 
d="M230 647q51 29 205 117v0q10 -21 41 -81v-2q-51 -29 -204 -117q-11 21 -42 83zM336 487q83 0 136 -64q2 18 6 55l2 1h94l1 -1q-13 -119 -52 -477q-1 0 -2 -1h-94q-1 0 -2 1q2 12 6 48q-63 -61 -151 -61v0q-110 0 -177 88q-41 60 -41 131q0 15 2 30v0q12 111 105 191
q78 59 167 59zM160 237q-8 -78 54 -129q35 -23 70 -23h11q48 0 97 39q52 48 60 113v0q8 80 -55 130q-34 22 -71 22h-8q-60 0 -114 -55q-38 -46 -44 -97z" />
    <glyph glyph-name="acircumflex" unicode="&#xe2;" horiz-adv-x="609" 
d="M334 755h57q5 -7 97 -126q-26 -22 -79 -65q-14 19 -59 76q-19 -19 -75 -76h-1q-16 16 -65 64v1q31 31 125 126zM336 487q83 0 136 -64q2 18 6 55l2 1h94l1 -1q-13 -119 -52 -477q-1 0 -2 -1h-94q-1 0 -2 1q2 12 6 48q-63 -61 -151 -61v0q-110 0 -177 88q-41 60 -41 131
q0 15 2 30v0q12 111 105 191q78 59 167 59zM160 237q-8 -78 54 -129q35 -23 70 -23h11q48 0 97 39q52 48 60 113v0q8 80 -55 130q-34 22 -71 22h-8q-60 0 -114 -55q-38 -46 -44 -97z" />
    <glyph glyph-name="atilde" unicode="&#xe3;" horiz-adv-x="609" 
d="M508 614q-19 -15 -36 -25q-28 -14 -52 -14q-27 0 -75 28q-48 29 -73 29q-23 0 -48 -17q-18 -11 -40 -36l9 90q19 21 37 31q27 15 51 15q28 0 76 -29q48 -30 72 -30q22 0 48 17q18 11 41 38q-3 -33 -10 -97zM336 487q83 0 136 -64q2 18 6 55l2 1h94l1 -1
q-13 -119 -52 -477q-1 0 -2 -1h-94q-1 0 -2 1q2 12 6 48q-63 -61 -151 -61v0q-110 0 -177 88q-41 60 -41 131q0 15 2 30v0q12 111 105 191q78 59 167 59zM160 237q-8 -78 54 -129q35 -23 70 -23h11q48 0 97 39q52 48 60 113v0q8 80 -55 130q-34 22 -71 22h-8q-60 0 -114 -55
q-38 -46 -44 -97z" />
    <glyph glyph-name="adieresis" unicode="&#xe4;" horiz-adv-x="609" 
d="M263 705q30 0 48 -25q9 -18 8 -36q-1 -1 -1 -4q-2 -24 -24 -44q-16 -12 -30 -15q-8 -1 -12 -1h-7q-16 0 -33 11q-15 13 -19 33q-1 9 -1 16v4q3 24 24 44q21 17 47 17zM453 705q30 0 47 -25q11 -18 8 -36v-4q-3 -24 -24 -44q-16 -12 -31 -15q-7 -1 -11 -1h-7q-16 0 -32 11
q-16 13 -20 33q-2 9 -1 16q0 2 1 4q2 24 24 44q21 17 46 17zM336 487q83 0 136 -64q2 18 6 55l2 1h94l1 -1q-13 -119 -52 -477q-1 0 -2 -1h-94q-1 0 -2 1q2 12 6 48q-63 -61 -151 -61v0q-110 0 -177 88q-41 60 -41 131q0 15 2 30v0q12 111 105 191q78 59 167 59zM160 237
q-8 -78 54 -129q35 -23 70 -23h11q48 0 97 39q52 48 60 113v0q8 80 -55 130q-34 22 -71 22h-8q-60 0 -114 -55q-38 -46 -44 -97z" />
    <glyph glyph-name="aring" unicode="&#xe5;" horiz-adv-x="609" 
d="M319 648v-1q-3 -15 10 -26q8 -7 19 -7q16 0 27 13q8 9 9 20v1q2 12 -7 22t-22 10t-24 -9q-11 -11 -12 -23zM360 734h1q31 0 55 -21q8 -10 11 -13q15 -25 12 -53q-4 -35 -34 -63q-1 -1 -5 -4q-27 -20 -59 -20q-30 0 -53 20q-8 7 -10 12q-6 8 -9 15q-8 20 -5 37v5
q3 26 23 50q3 4 13 13q28 22 60 22zM336 487q83 0 136 -64q2 18 6 55l2 1h94l1 -1q-13 -119 -52 -477q-1 0 -2 -1h-94q-1 0 -2 1q2 12 6 48q-63 -61 -151 -61v0q-110 0 -177 88q-41 60 -41 131q0 15 2 30v0q12 111 105 191q78 59 167 59zM160 237q-8 -78 54 -129
q35 -23 70 -23h11q48 0 97 39q52 48 60 113v0q8 80 -55 130q-34 22 -71 22h-8q-60 0 -114 -55q-38 -46 -44 -97z" />
    <glyph glyph-name="ae" unicode="&#xe6;" horiz-adv-x="945" 
d="M160 237q-8 -78 54 -129q35 -23 70 -23h11q48 0 97 39q52 48 60 113v0q8 80 -55 130q-34 22 -71 22h-8q-60 0 -114 -55q-38 -46 -44 -97zM586 299h242v1q-5 25 -32 57q-35 33 -80 33q-68 0 -120 -73q-3 -6 -10 -18zM528 51q-1 -12 -5 -50q-1 0 -2 -1h-94q-1 0 -2 1
q2 12 6 48q-63 -61 -151 -61v0q-110 0 -177 88q-41 60 -41 131q0 15 2 30v0q12 111 105 191q78 59 167 59q83 0 136 -64q2 18 6 55l2 1h94l1 -1q-1 -13 -6 -54l14 12q71 51 137 51h15q73 0 134 -59q30 -32 39 -56q24 -51 24 -106q0 -14 -1 -29l-3 -15q-1 -14 -3 -14h-358
q5 -53 29 -80q36 -44 88 -44q64 0 116 66q10 17 12 17q81 -39 82 -40q-9 -18 -37 -52q-83 -87 -183 -87h-2q-85 0 -144 63z" />
    <glyph glyph-name="ccedilla" unicode="&#xe7;" 
d="M286 -11q-2 -5 -6 -21q14 -3 21 -5q30 -13 41 -42q9 -22 6 -44v-3q-4 -33 -30 -62q-12 -11 -18 -15q-35 -24 -71 -24h-2q-40 0 -72 28q-12 14 -14 17q0 1 -2 3v0q17 13 69 50q12 -18 28 -18q12 0 23 8q9 7 9 15q0 5 -2 11q-4 2 -11 2h-3q-13 0 -34 -8q-18 -5 -54 -17v0
q11 33 41 130q-38 10 -73 34q-12 9 -20 17q-17 17 -25 28q-18 24 -24 41q-8 16 -14 42q-6 28 -6 53q0 12 1 24q1 3 1 8q7 56 40 112q11 16 23 32q10 12 29 31q22 19 38 28q67 43 140 43h1q75 0 135 -47q10 -8 24 -23q16 -19 21 -29q7 -9 7 -11q-29 -17 -87 -53v0
q-4 9 -17 24q-39 42 -95 42q-54 0 -101 -39q-19 -16 -23 -23q-33 -41 -39 -91q-5 -54 24 -98q10 -14 20 -23q37 -32 86 -32q44 0 85 28q8 5 25 20q10 10 17 20h1q18 -14 74 -53q-10 -14 -26 -31q-19 -18 -27 -23q-17 -13 -31 -21q-50 -29 -103 -35z" />
    <glyph glyph-name="egrave" unicode="&#xe8;" horiz-adv-x="519" 
d="M417 564q-51 30 -204 117v2q10 20 41 81h1q51 -29 204 -117q-10 -21 -42 -83zM160 299h243v1q-6 25 -33 57q-34 33 -79 33q-68 0 -120 -73q-4 -6 -11 -18zM295 487h14q74 0 135 -59q29 -32 39 -56q23 -51 23 -106q0 -14 -2 -29q0 -5 -1 -15q-2 -14 -3 -14h-359
q6 -53 30 -80q35 -44 86 -44q66 0 117 66q10 17 12 17q82 -39 82 -40q-8 -18 -37 -52q-83 -87 -183 -87h-2q-103 0 -167 92q-35 58 -35 126q0 15 1 30v2q14 117 112 198q71 51 138 51z" />
    <glyph glyph-name="eacute" unicode="&#xe9;" horiz-adv-x="519" 
d="M213 647q51 29 204 117h1q10 -21 41 -81v-2q-51 -29 -204 -117q-11 21 -42 83zM160 299h243v1q-6 25 -33 57q-34 33 -79 33q-68 0 -120 -73q-4 -6 -11 -18zM295 487h14q74 0 135 -59q29 -32 39 -56q23 -51 23 -106q0 -14 -2 -29q0 -5 -1 -15q-2 -14 -3 -14h-359
q6 -53 30 -80q35 -44 86 -44q66 0 117 66q10 17 12 17q82 -39 82 -40q-8 -18 -37 -52q-83 -87 -183 -87h-2q-103 0 -167 92q-35 58 -35 126q0 15 1 30v2q14 117 112 198q71 51 138 51z" />
    <glyph glyph-name="ecircumflex" unicode="&#xea;" horiz-adv-x="519" 
d="M317 755h57q6 -7 98 -126q-27 -22 -80 -65q-14 19 -59 76l-76 -76v0q-16 16 -65 64v1q31 31 125 126zM160 299h243v1q-6 25 -33 57q-34 33 -79 33q-68 0 -120 -73q-4 -6 -11 -18zM295 487h14q74 0 135 -59q29 -32 39 -56q23 -51 23 -106q0 -14 -2 -29q0 -5 -1 -15
q-2 -14 -3 -14h-359q6 -53 30 -80q35 -44 86 -44q66 0 117 66q10 17 12 17q82 -39 82 -40q-8 -18 -37 -52q-83 -87 -183 -87h-2q-103 0 -167 92q-35 58 -35 126q0 15 1 30v2q14 117 112 198q71 51 138 51z" />
    <glyph glyph-name="edieresis" unicode="&#xeb;" horiz-adv-x="519" 
d="M245 705q31 0 48 -25q10 -18 8 -36v-4q-3 -24 -25 -44q-16 -12 -29 -15q-8 -1 -12 -1h-7q-16 0 -32 11q-16 13 -20 33q-2 9 -1 16q0 2 1 4q2 24 23 44q21 17 46 17zM436 705q29 0 47 -25q10 -18 9 -36q-1 -1 -1 -4q-3 -24 -24 -44q-16 -12 -31 -15q-8 -1 -12 -1h-7
q-16 0 -32 11q-15 13 -20 33q-1 9 0 16v4q3 24 24 44q21 17 47 17zM160 299h243v1q-6 25 -33 57q-34 33 -79 33q-68 0 -120 -73q-4 -6 -11 -18zM295 487h14q74 0 135 -59q29 -32 39 -56q23 -51 23 -106q0 -14 -2 -29q0 -5 -1 -15q-2 -14 -3 -14h-359q6 -53 30 -80
q35 -44 86 -44q66 0 117 66q10 17 12 17q82 -39 82 -40q-8 -18 -37 -52q-83 -87 -183 -87h-2q-103 0 -167 92q-35 58 -35 126q0 15 1 30v2q14 117 112 198q71 51 138 51z" />
    <glyph glyph-name="igrave" unicode="&#xec;" horiz-adv-x="264" 
d="M205 479q-13 -120 -53 -479h-1h-96v0q13 120 53 479h97zM96 764q51 -29 204 -117v-1q-10 -20 -40 -81v-1q-52 30 -205 118z" />
    <glyph glyph-name="iacute" unicode="&#xed;" horiz-adv-x="264" 
d="M205 479q-13 -120 -53 -479h-1h-96v0q13 120 53 479h97zM300 682q-51 -29 -204 -118v1q-11 20 -41 81v1q51 29 205 117q10 -21 40 -82z" />
    <glyph glyph-name="icircumflex" unicode="&#xee;" horiz-adv-x="264" 
d="M160 755h56q6 -7 97 -126q-26 -22 -78 -65q-15 19 -59 76l-76 -76h-1q-16 16 -65 64v1zM205 479q-13 -120 -53 -479h-1h-96v0q13 120 53 479h97z" />
    <glyph glyph-name="idieresis" unicode="&#xef;" horiz-adv-x="264" 
d="M98 705q30 0 47 -25q11 -18 9 -36q0 -1 -1 -4q-2 -24 -24 -44q-16 -12 -30 -15q-8 -1 -12 -1h-7q-16 0 -32 11q-16 13 -20 33q-1 6 -1 11q0 3 1 5v4q3 24 24 44q20 17 46 17zM268 705q30 0 48 -25q8 -15 8 -30v-6v-4q-4 -24 -25 -44q-16 -12 -31 -15q-7 -1 -11 -1h-7
q-16 0 -32 11q-16 13 -20 33q-2 9 -1 16q1 2 1 4q2 24 23 44q22 17 47 17zM205 479q-13 -120 -53 -479h-1h-96v0q13 120 53 479h97z" />
    <glyph glyph-name="eth" unicode="&#xf0;" horiz-adv-x="569" 
 />
    <glyph glyph-name="ntilde" unicode="&#xf1;" horiz-adv-x="527" 
d="M481 614q-17 -15 -35 -25q-27 -14 -51 -14q-27 0 -75 28q-48 29 -74 29q-22 0 -48 -17q-18 -11 -41 -36q4 30 11 90q20 21 37 31q27 15 51 15q28 0 76 -29q48 -30 72 -30q21 0 48 17q17 11 40 38q-3 -33 -11 -97zM311 479h5q128 0 173 -98q11 -27 11 -62q0 -14 -1 -28
q-11 -96 -33 -290l-2 -1h-93l-1 1q8 73 33 291q6 61 -43 81q-20 10 -53 10h-8q-62 0 -89 -19q-35 -20 -42 -75q-10 -96 -32 -288l-1 -1h-95v1q13 119 53 474l2 1h93l1 -1q-1 -7 -3 -27h1q27 14 69 26q23 5 55 5z" />
    <glyph glyph-name="ograve" unicode="&#xf2;" horiz-adv-x="560" 
d="M255 764q51 -29 204 -117v-1q-10 -20 -41 -81l-1 -1q-51 30 -204 118q10 20 42 82zM144 236q-6 -54 24 -99q14 -17 22 -22q36 -31 83 -31q56 0 106 44q19 18 28 32q24 36 29 76v1q6 58 -28 104q-16 18 -21 20q-8 7 -15 11q-31 18 -65 18q-54 0 -102 -39q-17 -16 -22 -23
q-34 -41 -39 -92zM317 487q82 0 143 -53q9 -7 24 -25q31 -38 41 -79q9 -31 9 -64q0 -15 -2 -30q-7 -63 -44 -120q-12 -20 -33 -42q-22 -22 -35 -31q-15 -11 -28 -19q-63 -36 -128 -36h-4q-68 0 -126 40q-11 9 -19 17q-18 16 -26 28q-9 12 -16 26q-9 16 -13 31q-14 40 -14 79
q0 12 1 24q0 3 1 8q6 56 40 112q10 16 23 32q10 12 29 31q27 22 38 28q66 43 139 43z" />
    <glyph glyph-name="oacute" unicode="&#xf3;" horiz-adv-x="560" 
d="M459 682q-51 -29 -204 -118l-1 1q-10 20 -41 81v1q51 29 204 117q11 -21 42 -82zM144 236q-6 -54 24 -99q14 -17 22 -22q36 -31 83 -31q56 0 106 44q19 18 28 32q24 36 29 76v1q6 58 -28 104q-16 18 -21 20q-8 7 -15 11q-31 18 -65 18q-54 0 -102 -39q-17 -16 -22 -23
q-34 -41 -39 -92zM317 487q82 0 143 -53q9 -7 24 -25q31 -38 41 -79q9 -31 9 -64q0 -15 -2 -30q-7 -63 -44 -120q-12 -20 -33 -42q-22 -22 -35 -31q-15 -11 -28 -19q-63 -36 -128 -36h-4q-68 0 -126 40q-11 9 -19 17q-18 16 -26 28q-9 12 -16 26q-9 16 -13 31q-14 40 -14 79
q0 12 1 24q0 3 1 8q6 56 40 112q10 16 23 32q10 12 29 31q27 22 38 28q66 43 139 43z" />
    <glyph glyph-name="ocircumflex" unicode="&#xf4;" horiz-adv-x="560" 
d="M318 755h57q5 -7 97 -126q-26 -22 -79 -65q-15 19 -59 76l-76 -76h-1q-16 16 -65 64v1q32 31 126 126zM144 236q-6 -54 24 -99q14 -17 22 -22q36 -31 83 -31q56 0 106 44q19 18 28 32q24 36 29 76v1q6 58 -28 104q-16 18 -21 20q-8 7 -15 11q-31 18 -65 18
q-54 0 -102 -39q-17 -16 -22 -23q-34 -41 -39 -92zM317 487q82 0 143 -53q9 -7 24 -25q31 -38 41 -79q9 -31 9 -64q0 -15 -2 -30q-7 -63 -44 -120q-12 -20 -33 -42q-22 -22 -35 -31q-15 -11 -28 -19q-63 -36 -128 -36h-4q-68 0 -126 40q-11 9 -19 17q-18 16 -26 28
q-9 12 -16 26q-9 16 -13 31q-14 40 -14 79q0 12 1 24q0 3 1 8q6 56 40 112q10 16 23 32q10 12 29 31q27 22 38 28q66 43 139 43z" />
    <glyph glyph-name="otilde" unicode="&#xf5;" horiz-adv-x="560" 
d="M491 614q-19 -15 -36 -25q-27 -14 -52 -14q-27 0 -74 28q-48 29 -74 29q-22 0 -48 -17q-18 -11 -40 -36l9 90q20 21 37 31q27 15 51 15q28 0 76 -29q48 -30 72 -30q22 0 48 17q18 11 41 38q-4 -33 -10 -97zM144 236q-6 -54 24 -99q14 -17 22 -22q36 -31 83 -31
q56 0 106 44q19 18 28 32q24 36 29 76v1q6 58 -28 104q-16 18 -21 20q-8 7 -15 11q-31 18 -65 18q-54 0 -102 -39q-17 -16 -22 -23q-34 -41 -39 -92zM317 487q82 0 143 -53q9 -7 24 -25q31 -38 41 -79q9 -31 9 -64q0 -15 -2 -30q-7 -63 -44 -120q-12 -20 -33 -42
q-22 -22 -35 -31q-15 -11 -28 -19q-63 -36 -128 -36h-4q-68 0 -126 40q-11 9 -19 17q-18 16 -26 28q-9 12 -16 26q-9 16 -13 31q-14 40 -14 79q0 12 1 24q0 3 1 8q6 56 40 112q10 16 23 32q10 12 29 31q27 22 38 28q66 43 139 43z" />
    <glyph glyph-name="odieresis" unicode="&#xf6;" horiz-adv-x="560" 
d="M246 705q30 0 47 -25q11 -18 8 -36v-4q-2 -24 -24 -44q-16 -12 -30 -15q-8 -1 -12 -1h-7q-16 0 -32 11q-16 13 -20 33q-1 9 0 16v4q3 24 24 44q20 17 46 17zM436 705q30 0 48 -25q9 -18 8 -36v-4q-4 -24 -25 -44q-16 -12 -31 -15q-7 -1 -11 -1h-7q-16 0 -32 11
q-16 13 -20 33q-2 9 -1 16v4q3 24 24 44q22 17 47 17zM144 236q-6 -54 24 -99q14 -17 22 -22q36 -31 83 -31q56 0 106 44q19 18 28 32q24 36 29 76v1q6 58 -28 104q-16 18 -21 20q-8 7 -15 11q-31 18 -65 18q-54 0 -102 -39q-17 -16 -22 -23q-34 -41 -39 -92zM317 487
q82 0 143 -53q9 -7 24 -25q31 -38 41 -79q9 -31 9 -64q0 -15 -2 -30q-7 -63 -44 -120q-12 -20 -33 -42q-22 -22 -35 -31q-15 -11 -28 -19q-63 -36 -128 -36h-4q-68 0 -126 40q-11 9 -19 17q-18 16 -26 28q-9 12 -16 26q-9 16 -13 31q-14 40 -14 79q0 12 1 24q0 3 1 8
q6 56 40 112q10 16 23 32q10 12 29 31q27 22 38 28q66 43 139 43z" />
    <glyph glyph-name="divide" unicode="&#xf7;" horiz-adv-x="413" 
d="M235 470h4q23 0 41 -18q16 -20 13 -43v-4q-3 -25 -25 -45q-22 -16 -43 -16h-4q-25 0 -43 21q-14 19 -11 42q2 25 22 44q23 19 46 19zM201 167h4q23 0 42 -19q16 -20 13 -43v-3q-4 -25 -26 -46q-22 -16 -42 -16h-4q-25 0 -44 22q-13 19 -11 42q3 24 23 44q22 19 45 19z
M40 304h355q0 -1 1 -1q-3 -24 -11 -95q0 -1 -1 -1h-354q3 24 10 97z" />
    <glyph glyph-name="oslash" unicode="&#xf8;" horiz-adv-x="620" 
d="M401 375q-29 15 -61 15q-53 0 -102 -39q-17 -16 -22 -23q-33 -41 -39 -92q-4 -31 6 -59q73 66 218 198zM461 304q-56 -50 -223 -200q30 -20 68 -20q57 0 106 44q19 18 28 32q24 36 28 76v1q4 36 -7 67zM480 444l56 52h1q16 -17 61 -68h-1q-14 -13 -57 -52q12 -23 18 -46
q13 -45 7 -94q-7 -63 -44 -120q-13 -20 -33 -42q-22 -22 -35 -31q-14 -11 -28 -19q-63 -36 -128 -36h-4q-68 0 -126 40q-3 3 -7 5q-19 -17 -57 -52h-1q-15 17 -61 68v1q16 14 62 55q-7 13 -11 25q-17 52 -12 103q0 3 1 8q6 56 40 112q10 16 23 32q9 12 29 31q27 22 38 28
q66 43 139 43t130 -43z" />
    <glyph glyph-name="ugrave" unicode="&#xf9;" horiz-adv-x="531" 
d="M397 564q-51 30 -204 117v2q10 20 41 81v0q51 -29 205 -117q-10 -21 -42 -83zM237 0h-5q-128 0 -173 97q-11 28 -11 63q0 14 1 28q11 96 33 289q0 1 2 2h93l2 -2q-9 -72 -34 -290q-6 -62 43 -81q20 -10 53 -10h8q62 0 89 20q35 20 42 73q11 96 32 288q0 1 1 2h95v-2
q-13 -118 -53 -473l-1 -1h-94l-1 1l4 32h-1q-28 -19 -70 -31q-23 -5 -55 -5z" />
    <glyph glyph-name="uacute" unicode="&#xfa;" horiz-adv-x="531" 
d="M439 682q-51 -29 -205 -118v1q-10 20 -41 81v1q51 29 204 117q11 -21 42 -82zM237 0h-5q-128 0 -173 97q-11 28 -11 63q0 14 1 28q11 96 33 289q0 1 2 2h93l2 -2q-9 -72 -34 -290q-6 -62 43 -81q20 -10 53 -10h8q62 0 89 20q35 20 42 73q11 96 32 288q0 1 1 2h95v-2
q-13 -118 -53 -473l-1 -1h-94l-1 1l4 32h-1q-28 -19 -70 -31q-23 -5 -55 -5z" />
    <glyph glyph-name="ucircumflex" unicode="&#xfb;" horiz-adv-x="531" 
d="M298 755h57q5 -7 97 -126q-27 -22 -80 -65q-14 19 -58 76q-19 -19 -77 -76v0q-16 16 -65 64v1q32 31 126 126zM237 0h-5q-128 0 -173 97q-11 28 -11 63q0 14 1 28q11 96 33 289q0 1 2 2h93l2 -2q-9 -72 -34 -290q-6 -62 43 -81q20 -10 53 -10h8q62 0 89 20q35 20 42 73
q11 96 32 288q0 1 1 2h95v-2q-13 -118 -53 -473l-1 -1h-94l-1 1l4 32h-1q-28 -19 -70 -31q-23 -5 -55 -5z" />
    <glyph glyph-name="udieresis" unicode="&#xfc;" horiz-adv-x="531" 
d="M227 705q29 0 47 -25q10 -18 8 -36v-4q-3 -24 -25 -44q-16 -12 -30 -15q-7 -1 -11 -1h-8q-16 0 -32 11q-16 13 -20 33q-1 9 0 16v4q3 24 24 44q21 17 47 17zM416 705q31 0 48 -25q10 -18 8 -36v-4q-3 -24 -24 -44q-16 -12 -31 -15q-8 -1 -12 -1h-6q-16 0 -33 11
q-15 13 -19 33q-2 9 -1 16v4q3 24 24 44q21 17 46 17zM237 0h-5q-128 0 -173 97q-11 28 -11 63q0 14 1 28q11 96 33 289q0 1 2 2h93l2 -2q-9 -72 -34 -290q-6 -62 43 -81q20 -10 53 -10h8q62 0 89 20q35 20 42 73q11 96 32 288q0 1 1 2h95v-2q-13 -118 -53 -473l-1 -1h-94
l-1 1l4 32h-1q-28 -19 -70 -31q-23 -5 -55 -5z" />
    <glyph glyph-name="yacute" unicode="&#xfd;" horiz-adv-x="594" 
d="M444 682q-52 -29 -205 -118v1q-11 20 -42 81v1q52 29 205 117q10 -21 42 -82zM149 479l3 -10q18 -56 53 -169q14 -44 56 -179q3 3 110 202l81 156h122q-33 -61 -134 -244q-29 -52 -117 -205q-29 -53 -115 -211q-5 -9 -20 -35h-111v1q30 54 119 215q-18 56 -73 224
q-19 57 -75 227q-3 7 -9 28h110z" />
    <glyph glyph-name="thorn" unicode="&#xfe;" horiz-adv-x="603" 
d="M201 424q20 20 25 22q17 11 28 18q17 8 33 12q12 4 41 9q8 0 21 1q72 0 126 -35q14 -10 34 -30q17 -18 21 -25q10 -16 18 -31q21 -46 21 -98q0 -15 -1 -31q-10 -83 -68 -152q-8 -10 -30 -31q-3 -2 -10 -7q-76 -58 -163 -58q-63 0 -110 36q-8 6 -23 21q-2 2 -5 6
q-7 -63 -28 -251h-96v0l104 932h1h96v0q-9 -77 -35 -308zM179 227q-2 -15 3 -41q4 -17 10 -30q6 -11 18 -27q14 -15 19 -18q11 -8 20 -14q30 -13 55 -13h7q44 0 87 30q7 5 22 18q27 28 39 59q9 22 12 46q6 57 -26 102q-14 17 -17 19q-36 31 -85 31h-4q-27 0 -60 -13
q-16 -8 -37 -24q-20 -19 -25 -26q-9 -11 -14 -21q-6 -9 -13 -25q-7 -23 -9 -33q-1 -7 -2 -20z" />
    <glyph glyph-name="ydieresis" unicode="&#xff;" horiz-adv-x="594" 
d="M231 705q29 0 47 -25q10 -18 8 -36q0 -1 -1 -4q-2 -24 -24 -44q-16 -12 -30 -15q-7 -1 -11 -1h-8q-16 0 -32 11q-16 13 -20 33q-1 9 0 16v4q3 24 24 44q21 17 47 17zM420 705q31 0 48 -25q10 -18 8 -36v-4q-3 -24 -24 -44q-16 -12 -31 -15q-8 -1 -12 -1h-6q-16 0 -32 11
q-16 13 -20 33q-2 9 -2 16q1 2 1 4q2 24 24 44q21 17 46 17zM149 479l3 -10q18 -56 53 -169q14 -44 56 -179q3 3 110 202l81 156h122q-33 -61 -134 -244q-29 -52 -117 -205q-29 -53 -115 -211q-5 -9 -20 -35h-111v1q30 54 119 215q-18 56 -73 224q-19 57 -75 227q-3 7 -9 28
h110z" />
    <glyph glyph-name="OE" unicode="&#x152;" horiz-adv-x="1106" 
d="M452 732h2q145 0 242 -114q85 -110 70 -252q-15 -157 -143 -272q-115 -94 -245 -94h-4q-132 0 -226 94q-42 48 -52 73q-37 74 -37 157q0 20 2 42l1 1q14 158 142 274q12 9 37 27q101 67 211 64zM158 367q-13 -119 67 -206q67 -64 159 -64q120 0 215 106q59 76 69 159v7
q12 102 -51 184q-71 83 -173 83q-116 0 -210 -99q-67 -79 -76 -170zM731 733h393v-1q-2 -24 -10 -96h-298q-6 -55 -25 -221h236v-1q-2 -23 -10 -95h-1h-236q-6 -55 -24 -222h297q-2 -24 -11 -96v0h-393h-1q21 183 82 731z" />
    <glyph glyph-name="oe" unicode="&#x153;" horiz-adv-x="922" 
d="M144 236q-6 -54 25 -99q13 -17 21 -23q36 -30 83 -30q56 0 105 43q20 19 29 32q24 37 29 77v2q6 57 -29 103q-14 18 -20 20q-8 8 -15 11q-30 18 -66 18q-53 0 -101 -39q-17 -16 -22 -24q-33 -40 -39 -91zM317 487q82 0 143 -53q9 -7 24 -25q30 -39 41 -79q12 -45 7 -94
q-7 -62 -44 -120q-12 -19 -33 -42q-22 -22 -35 -32q-15 -11 -27 -18q-64 -36 -128 -36h-5q-68 0 -126 40q-11 9 -20 17q-17 17 -25 28q-8 12 -16 26q-8 16 -13 31q-14 40 -14 79q0 12 1 24q0 3 1 8q6 56 40 112q10 16 23 32q10 12 29 30q27 23 38 29q66 43 139 43zM568 299
h243v1q-6 25 -33 58q-34 32 -79 32q-69 0 -121 -72q-3 -7 -10 -19zM703 487h14q73 0 134 -59q30 -32 40 -56q23 -51 23 -106q0 -14 -2 -29q0 -5 -1 -15q-2 -14 -4 -14h-358q6 -53 29 -80q36 -43 87 -43q65 0 117 65q10 17 12 17q81 -39 82 -40q-9 -17 -37 -52
q-83 -87 -183 -87h-2q-103 0 -167 92q-43 71 -34 156v2q13 117 112 198q71 51 138 51z" />
    <glyph glyph-name="perthousand" unicode="&#x2030;" horiz-adv-x="1188" 
d="M156 570q-2 -24 19 -41q15 -10 34 -10q29 0 50 24q9 13 11 28q3 28 -24 44q-13 7 -27 7h-2q-26 0 -47 -21q-12 -13 -14 -31zM228 724q64 0 109 -45q16 -17 21 -29q19 -38 14 -80q-5 -58 -52 -104q-18 -17 -31 -24q-43 -26 -88 -26h-7q-41 0 -78 23q-13 8 -26 22
q-14 15 -19 26q-18 33 -18 67q0 6 1 13q0 2 1 7q3 40 31 79q8 10 25 26q23 19 38 26q39 19 79 19zM605 304h4q50 0 91 -31q8 -6 21 -19q18 -23 25 -48q8 -28 5 -54v-4q-5 -45 -37 -86q-6 -8 -22 -23q-26 -21 -52 -31q-31 -12 -63 -12q-60 0 -103 39q-17 17 -20 25
q-26 41 -21 90q5 58 52 104q18 16 23 19q14 9 27 16q36 15 70 15zM623 732h100h1q-137 -185 -548 -739h-1h-101v0q137 185 548 739h1zM535 150q-3 -24 19 -41q14 -11 33 -11q29 0 51 25q9 13 11 28q3 27 -24 44q-13 6 -27 6h-2q-26 0 -46 -21q-13 -13 -15 -30zM976 304h5
q49 0 91 -31q7 -6 20 -19q18 -24 25 -49q6 -20 6 -40v-13q-1 -2 -1 -5q-4 -44 -37 -85q-5 -8 -22 -23q-25 -21 -52 -31q-31 -13 -63 -13q-60 0 -103 40q-17 17 -20 25q-26 41 -21 90q5 58 52 104q18 16 24 19q13 9 26 15q36 16 70 16zM906 149q-2 -24 19 -40q14 -11 33 -11
q29 0 51 25q10 13 11 27q3 28 -24 45q-13 6 -27 6h-2q-26 0 -46 -21q-13 -13 -15 -31z" />
    <glyph glyph-name="uni20ac" unicode="&#x20ac;" horiz-adv-x="740" 
d="M471 684q101 0 185 -53q18 -11 38 -29q4 -3 9 -8q0 -1 -71 -73q-26 24 -50 37q-57 28 -119 28h-6q-71 0 -141 -36q-77 -44 -118 -116h438v-1q-3 -24 -11 -96v0h-458q-1 -11 -1 -22h457v-1q-3 -24 -11 -96v0h-427q36 -77 118 -112q48 -20 99 -20h5q72 0 141 37q16 9 33 21
q3 2 10 7q48 -63 56 -72q-31 -24 -48 -33q-33 -20 -72 -34q-66 -23 -133 -23q-104 0 -189 55q-19 12 -42 33q-10 9 -25 25q-21 27 -32 47q-16 28 -25 60l-2 9h-52h-1q3 24 11 96q0 1 1 1h30q0 10 2 20v2h-30h-1q3 24 11 96v1h45q10 24 23 45q17 29 43 60q12 15 35 36
q29 26 42 34q27 19 53 32q87 43 180 43z" />
    <glyph glyph-name="trademark" unicode="&#x2122;" horiz-adv-x="1393" 
d="M663 150q16 145 65 582h1h110q23 -48 95 -194q20 -42 82 -167q1 -3 5 -11h1q33 47 134 187q33 46 132 185h110v0q-16 -146 -65 -582h-101q11 102 46 409q-5 -6 -106 -147q-107 -148 -111 -155l-18 -24h-72q0 1 -32 65q-31 64 -93 190q-4 8 -35 71q-16 -136 -46 -409h-102
zM307 150q14 121 55 486h-194h-1q3 24 11 96h1h485v0q-3 -24 -11 -96v0h-194q-14 -122 -55 -486h-97z" />
    <glyph glyph-name="approxequal" unicode="&#x2248;" horiz-adv-x="650" 
d="M537 346q-24 -15 -48 -26q-36 -15 -70 -15q-37 0 -109 30q-73 29 -109 29q-32 0 -66 -17q-23 -11 -51 -38q0 34 15 102q24 21 48 31q36 16 69 16q39 0 112 -30q72 -30 106 -30q32 0 66 17q23 11 52 38q0 -35 -15 -107zM537 184q-24 -16 -48 -26q-36 -15 -70 -15
q-37 0 -109 29q-73 30 -109 30q-32 0 -66 -17q-23 -11 -51 -38q0 34 15 102q24 21 48 31q21 16 54 16q39 0 127 -30q72 -30 106 -30q32 0 66 16q23 12 52 39q0 -36 -15 -107z" />
    <glyph glyph-name="fi" unicode="&#xfb01;" horiz-adv-x="561" 
d="M481 732h4q22 0 39 -17q15 -17 15 -38v-6q0 -1 -1 -3q-2 -23 -21 -43q-22 -19 -47 -19h-3q-23 0 -40 17q-9 11 -12 20q-4 12 -3 24q1 1 1 4q2 23 23 43q3 2 8 7q19 11 37 11zM503 479q-14 -120 -54 -478v-1h-96q-1 0 -1 1q14 119 54 478h97zM343 732h29v0q-3 -24 -11 -96
v-1h-25q-65 0 -100 -60q-21 -37 -28 -96h135v0q-2 -24 -10 -96h-1h-135q-11 -96 -43 -382q0 -1 -1 -1h-96q11 96 43 383h-92h-1q3 24 11 96h1h92v2q15 131 95 199q30 25 59 36q40 16 78 16z" />
    <glyph glyph-name="fl" unicode="&#xfb02;" horiz-adv-x="563" 
d="M343 732h29v0q-3 -24 -11 -96v-1h-25q-65 0 -100 -60q-21 -37 -28 -96h135v0q-2 -24 -10 -96h-1h-135q-11 -96 -43 -382q0 -1 -1 -1h-96q11 96 43 383h-92h-1q3 24 11 96h1h92v2q15 131 95 199q30 25 59 36q40 16 78 16zM444 732h96v-1q-21 -183 -82 -731h-1h-95h-1
q21 183 82 731z" />
    <glyph glyph-name="circumflex" horiz-adv-x="379" 
d="M276 1004h56q5 -7 97 -125q-26 -21 -78 -64q-15 19 -59 76l-76 -76h-1q-16 16 -65 64v0q31 31 126 125z" />
    <glyph glyph-name="caron" horiz-adv-x="379" 
d="M304 815h-56q-6 6 -98 125q26 21 79 64q15 -19 59 -76l76 76v0q17 -16 65 -64v0z" />
    <glyph glyph-name="uni02c9" horiz-adv-x="443" 
d="M160 907h333v0q-2 -24 -10 -96v0h-333q3 24 10 96z" />
    <glyph glyph-name="dotaccent" horiz-adv-x="228" 
d="M221 907q31 0 48 -26q9 -15 9 -30q0 -2 -1 -5v-4q-3 -24 -25 -44q-16 -13 -29 -15q-8 -2 -12 -2h-7q-16 0 -32 11q-16 13 -20 33q-1 6 -1 11v6q0 1 1 4q2 23 23 43q21 18 46 18z" />
    <glyph glyph-name="ring" horiz-adv-x="292" 
d="M211 815v-1q-2 -17 11 -28q9 -7 19 -7q18 0 31 13q8 11 9 22v1q2 13 -8 24q-9 10 -24 10q-13 0 -25 -9q-12 -12 -13 -25zM255 907h1q33 0 59 -23q9 -10 12 -14q13 -22 13 -47v-9q-5 -38 -36 -67l-5 -5q-30 -22 -64 -22q-33 0 -58 22q-6 7 -9 13q-7 9 -11 16q-5 17 -5 32
v8v5q4 28 24 53q4 5 15 15q30 23 64 23z" />
    <glyph glyph-name="uni037e" horiz-adv-x="269" 
d="M170 479h4q23 0 41 -19q14 -16 14 -36q0 -3 -1 -6v-3q-3 -26 -25 -46q-22 -16 -43 -16h-4q-25 0 -43 22q-13 18 -11 41q3 24 22 44q23 19 46 19zM133 123q31 0 48 -28q10 -18 7 -47q-8 -78 -111 -160q-27 -24 -35 -27q-7 11 -22 33q71 59 76 106q-22 9 -30 31
q-6 13 -5 29q4 31 35 52q17 11 37 11z" />
    <glyph glyph-name="endash" horiz-adv-x="691" 
d="M58 284h574h1q-3 -24 -10 -96h-2h-573q2 24 10 96z" />
    <glyph glyph-name="quoteleft" horiz-adv-x="324" 
d="M152 593q-32 0 -49 28q-7 13 -7 33v13q9 78 111 161q28 23 36 27q7 -11 21 -34q-70 -59 -75 -105q22 -10 30 -32q5 -12 4 -28q-3 -32 -35 -52q-16 -11 -36 -11z" />
    <glyph glyph-name="quoteright" horiz-adv-x="324" 
d="M173 855q31 0 48 -28q7 -14 7 -34v-13q-9 -78 -111 -160q-28 -24 -36 -27l-21 33q70 59 76 106q-23 9 -31 31q-5 13 -4 29q3 31 35 52q16 11 37 11z" />
    <glyph glyph-name="quotesinglbase" horiz-adv-x="292" 
d="M145 123q31 0 48 -28q8 -14 8 -34q0 -6 -1 -13q-8 -78 -111 -160q-27 -24 -35 -27q-7 11 -22 33q71 59 76 106q-22 9 -30 31q-6 13 -5 29q4 31 35 52q17 11 37 11z" />
    <glyph glyph-name="quotedblleft" horiz-adv-x="564" 
d="M372 593q-32 0 -49 28q-10 18 -7 46q9 78 111 161q28 23 36 27q7 -11 21 -34q-70 -59 -75 -105q22 -10 30 -32q5 -12 4 -28q-3 -32 -35 -52q-16 -11 -36 -11zM172 593q-32 0 -49 28q-7 13 -7 33v13q9 78 111 161q28 23 36 27q7 -11 21 -34q-70 -59 -75 -105
q22 -10 30 -32q5 -12 4 -28q-3 -32 -35 -52q-16 -11 -36 -11z" />
    <glyph glyph-name="quotedblright" horiz-adv-x="564" 
d="M193 855q31 0 48 -28q10 -18 7 -47q-9 -78 -111 -160q-28 -24 -36 -27l-21 33q70 59 76 106q-23 9 -31 31q-5 13 -4 29q3 31 35 52q16 11 37 11zM393 855q31 0 48 -28q7 -14 7 -34v-13q-9 -78 -111 -160q-28 -24 -36 -27l-21 33q70 59 76 106q-23 9 -31 31q-5 13 -4 29
q3 31 35 52q16 11 37 11z" />
    <glyph glyph-name="quotedblbase" horiz-adv-x="492" 
d="M145 123q31 0 48 -28q10 -18 7 -47q-8 -78 -111 -160q-27 -24 -35 -27q-7 11 -22 33q71 59 76 106q-22 9 -30 31q-6 13 -5 29q4 31 35 52q17 11 37 11zM345 123q31 0 48 -28q8 -14 8 -34q0 -6 -1 -13q-8 -78 -111 -160q-27 -24 -35 -27q-7 11 -22 33q71 59 76 106
q-22 9 -30 31q-6 13 -5 29q4 31 35 52q17 11 37 11z" />
    <glyph glyph-name="dagger" horiz-adv-x="399" 
d="M185 417q3 29 13 115h97q-4 -28 -14 -115h114h1q-3 -24 -11 -96h-1h-113l-36 -320q-1 0 -1 -1h-95q-1 0 -1 1l36 320h-114q3 24 11 96h114z" />
    <glyph glyph-name="daggerdbl" horiz-adv-x="412" 
d="M199 417q3 29 13 115h96q-3 -28 -13 -115h113h1q-2 -24 -10 -96h-2h-113q-3 -28 -12 -110h113h2q-3 -24 -11 -96h-1h-114q-3 -29 -13 -114v-1h-96v1q3 28 12 114h-113q2 24 10 96h115q3 28 12 110h-115q3 24 11 96h115z" />
    <glyph glyph-name="ellipsis" horiz-adv-x="670" 
d="M108 126q30 0 48 -26q9 -17 8 -35v-4q-4 -24 -25 -44q-16 -13 -30 -16q-8 -1 -12 -1h-7q-16 0 -32 12q-15 12 -20 32q-1 6 -1 11v6q1 1 1 4q2 23 23 43q22 18 47 18zM321 126q30 0 47 -26q11 -17 9 -35q0 -1 -1 -4q-3 -24 -24 -44q-16 -13 -30 -16q-8 -1 -12 -1h-7
q-16 0 -32 12q-15 12 -20 32q-2 9 0 17v4q2 23 24 43q21 18 46 18zM534 127q30 0 47 -27q9 -14 9 -30v-5q0 -1 -1 -4q-2 -24 -24 -44q-16 -12 -30 -15q-8 -2 -12 -2h-7q-16 0 -32 12t-20 33q-1 9 0 16v4q3 24 24 44q20 18 46 18z" />
    <glyph glyph-name="guilsinglleft" horiz-adv-x="418" 
d="M74 201q1 17 7 67q47 31 188 121q7 5 26 17v0q3 -3 25 -42q7 -12 22 -37v0l-144 -92l124 -92q-61 -76 -64 -79q-61 45 -184 136v1z" />
    <glyph glyph-name="guilsinglright" horiz-adv-x="417" 
d="M336 200q-54 -34 -215 -136q-2 3 -46 79q48 31 143 92q-31 23 -123 92v0q8 9 30 37q31 39 34 42h1q5 -4 21 -17q41 -30 163 -121q-2 -16 -8 -67v-1z" />
    <glyph glyph-name="fraction" horiz-adv-x="310" 
d="M306 687h96v0q-94 -178 -377 -711q0 -1 -1 -1h-96v1q95 177 377 711h1z" />
    <glyph glyph-name="franc" horiz-adv-x="508" 
d="M196 157q-5 -39 -18 -157h-1h-95h-1q5 40 18 157h-59q3 25 11 97h59q13 119 54 478v0h393v0q-2 -24 -10 -96v0h-298q-6 -56 -25 -222h242q-3 -24 -11 -96h-242q-1 -16 -6 -64h97l-12 -96v-1h-96z" />
    <glyph glyph-name="uni20a4" horiz-adv-x="583" 
d="M425 713h8q50 0 100 -25q15 -8 33 -23q6 -5 11 -11q-25 -23 -74 -70v0q-20 20 -51 28q-16 5 -33 5v0q-50 0 -95 -37q-23 -20 -27 -52v-4q-3 -28 10 -65h189q-2 -24 -10 -96h-1h-147q3 -23 2 -31h142h1q-3 -24 -11 -96v0h-160q-7 -13 -19 -32q-15 -21 -38 -48q-2 -1 -6 -4
q16 -3 28 -5q15 -5 29 -11q15 -8 31 -20q24 -24 36 -30q23 -14 47 -14q52 0 120 63q20 -23 61 -68v0q-23 -22 -37 -31q-24 -19 -45 -29q-57 -31 -107 -31h-5q-55 0 -107 36q-13 10 -31 28q-20 16 -50 16h-1q-52 0 -127 -42q-3 -2 -10 -6q-12 19 -49 77q10 8 40 31
q28 21 66 55q36 33 51 50l12 15v0h-76h-1q3 24 11 96h1h107q1 5 -7 28v3h-97v0q2 24 10 96h54q-7 35 -3 68q8 70 61 121q18 15 31 23q22 13 44 23q47 19 89 19z" />
    <glyph glyph-name="uni20a7" horiz-adv-x="1400" 
d="M739 732h96v0l-28 -252h124q0 -1 1 -1l-12 -96v0h-124q-7 -61 -27 -242q-4 -28 15 -37q12 -8 26 -8q19 0 57 13q1 1 4 3q7 -23 26 -91q-13 -5 -41 -13q-32 -8 -56 -8h-1q-48 0 -87 29l-16 16q-3 4 -8 11q-6 11 -9 20q-11 31 -7 61q9 82 28 246h-72v0q3 24 11 96l1 1h71z
M1201 504q92 0 150 -57q13 -14 17 -22q2 -3 5 -9q-1 -2 -28 -17q-28 -16 -58 -35q-8 11 -16 17q-31 26 -79 26h-3q-52 0 -86 -25q-19 -15 -21 -33q-2 -10 7 -17q9 -8 35 -17q37 -12 116 -27q25 -5 43 -13q17 -7 33 -19q7 -6 20 -20q32 -40 27 -91v-1q-7 -51 -49 -96
q-18 -16 -26 -20q-21 -14 -35 -20q-53 -23 -110 -23h-4q-75 0 -133 39q-13 9 -26 24q-13 14 -18 22q-9 13 -14 26q29 16 88 48h1q1 -2 3 -7q4 -9 16 -20q20 -21 52 -30q21 -5 44 -5q44 0 80 19q7 4 17 13q15 15 17 31q3 27 -38 43q-13 5 -50 12q-79 15 -117 32q-16 7 -31 18
q-35 25 -43 62q-4 17 -2 36v4q6 47 46 88q16 16 23 20q18 13 34 20q53 24 113 24zM143 732h241q116 0 188 -87q41 -59 41 -127q0 -13 -1 -27q-12 -109 -114 -187q-78 -54 -170 -54h-144q-7 -62 -28 -249q-1 0 -1 -1h-94l-1 1q20 183 81 730q1 0 2 1zM227 635l-32 -288h150
q72 0 131 60q33 40 38 81q0 2 1 7q8 65 -51 112q-35 29 -104 29h-132z" />
    <glyph glyph-name="uni2116" horiz-adv-x="1260" 
d="M739 98h400l1 -1q-3 -23 -11 -95l-1 -1h-400q3 25 11 97zM828 416q-5 -54 25 -99q14 -17 22 -22q36 -31 82 -31q57 0 106 44q20 18 28 32q25 36 29 76v1q6 58 -28 104q-15 18 -20 20q-8 7 -16 11q-30 18 -65 18q-54 0 -102 -39q-17 -16 -21 -23q-34 -41 -40 -92z
M1001 667q82 0 143 -53q9 -7 24 -25q31 -38 41 -79q9 -32 9 -66q0 -14 -2 -28q-7 -63 -44 -120q-12 -20 -32 -42q-23 -22 -36 -31q-15 -11 -28 -19q-63 -36 -127 -36h-5q-68 0 -125 40q-11 9 -20 17q-18 16 -25 28q-9 12 -17 26q-8 16 -13 31q-18 52 -12 103v8q7 56 40 112
q11 16 23 32q10 12 29 31q27 22 38 28q66 43 139 43zM130 732h104q73 -131 293 -523q6 -12 26 -49v0q16 143 64 571q1 0 2 1h94l2 -1q-21 -183 -83 -730l-1 -1h-104q-23 38 -166 298q-52 91 -154 274q-16 -143 -64 -571q-1 0 -2 -1h-93l-1 1q20 183 81 730q1 0 2 1z" />
    <glyph glyph-name="uni2215" horiz-adv-x="310" 
d="M306 687h96v0q-94 -178 -377 -711q0 -1 -1 -1h-96v1q95 177 377 711h1z" />
    <glyph glyph-name="uni2219" horiz-adv-x="259" 
d="M221 449q31 0 48 -26q9 -15 9 -30q0 -3 -1 -5v-4q-3 -24 -25 -44q-16 -12 -29 -16q-8 -1 -12 -1h-7q-16 0 -32 12t-20 33q-1 5 -1 10v6q0 1 1 4q2 24 23 44q21 17 46 17z" />
    <glyph glyph-name="lessequal" horiz-adv-x="533" 
d="M404 597h1q13 -19 51 -76q0 -1 -153 -110l-96 -69q22 -19 89 -77q30 -25 120 -102q-17 -19 -67 -76h-1q-38 33 -155 133q-97 82 -100 84q3 25 8 76q40 28 157 112q37 26 146 105zM52 4h347v-1q-3 -24 -11 -95v-1h-347q3 24 11 97z" />
    <glyph glyph-name="greaterequal" horiz-adv-x="524" 
d="M322 492l132 -112q-3 -19 -9 -76q-3 -2 -118 -84q-62 -45 -185 -133v0q-13 19 -51 76q36 26 143 102q26 20 106 77q-20 17 -81 69q-129 109 -129 110q23 25 68 76v0q31 -26 124 -105zM410 -93h-347l-1 1q3 23 11 95l1 1h346q-3 -25 -10 -97z" />
    <glyph glyph-name="glyph229" horiz-adv-x="551" 
 />
  </font>
</defs>
</svg>
