<?xml version="1.0" standalone="no"?>
<!DOCTYPE svg PUBLIC "-//W3C//DTD SVG 20010904//EN"
 "http://www.w3.org/TR/2001/REC-SVG-20010904/DTD/svg10.dtd">
<svg version="1.0" xmlns="http://www.w3.org/2000/svg"
 width="55.000000pt" height="55.000000pt" viewBox="0 0 55.000000 55.000000"
 preserveAspectRatio="xMidYMid meet">
<metadata>
Created by potrace 1.16, written by Peter Selinger 2001-2019
</metadata>
<g transform="translate(0.000000,55.000000) scale(0.100000,-0.100000)"
fill="#000000" stroke="none">
<path d="M138 402 c-59 -59 -112 -120 -117 -136 -30 -77 -3 -167 61 -206 39
-24 126 -27 166 -6 15 8 87 75 160 149 l132 134 0 49 c0 56 -17 87 -60 109
-36 19 -73 19 -108 1 -15 -8 -78 -66 -139 -129 -122 -123 -131 -142 -92 -191
37 -47 70 -37 160 51 78 76 92 104 55 111 -12 3 -43 -20 -93 -70 -60 -59 -75
-70 -83 -58 -8 12 15 40 103 128 97 95 118 112 145 112 38 0 67 -37 58 -73 -3
-13 -63 -80 -134 -149 -101 -100 -136 -128 -164 -133 -73 -14 -137 50 -123
124 5 29 28 57 116 143 111 108 129 139 84 146 -15 2 -51 -29 -127 -106z"/>
</g>
</svg>
