<?xml version="1.0" standalone="no"?>
<!DOCTYPE svg PUBLIC "-//W3C//DTD SVG 20010904//EN"
 "http://www.w3.org/TR/2001/REC-SVG-20010904/DTD/svg10.dtd">
<svg version="1.0" xmlns="http://www.w3.org/2000/svg"
 width="55.000000pt" height="55.000000pt" viewBox="0 0 55.000000 55.000000"
 preserveAspectRatio="xMidYMid meet">
<metadata>
Created by potrace 1.16, written by Peter Selinger 2001-2019
</metadata>
<g transform="translate(0.000000,55.000000) scale(0.100000,-0.100000)"
fill="#000000" stroke="none">
<path d="M50 493 c0 -5 3 -12 6 -15 3 -4 5 -92 4 -196 -1 -164 1 -192 16 -206
14 -14 42 -17 205 -16 103 1 193 -1 199 -5 6 -4 12 -5 13 -4 1 2 0 98 -3 212
-4 170 -8 209 -20 217 -8 5 -99 10 -202 10 -102 0 -193 3 -202 6 -9 3 -16 2
-16 -3z m410 -209 c0 -153 -2 -175 -14 -164 -8 6 -12 18 -9 26 3 9 -2 14 -14
14 -36 0 -43 20 -43 122 0 98 0 98 -25 98 -24 0 -25 -2 -27 -72 l-2 -73 -3 73
c-3 64 -6 72 -23 72 -17 0 -20 -8 -22 -47 l-2 -48 -3 48 c-5 53 -22 64 -25 15
l-1 -33 -4 33 c-4 28 -8 33 -27 30 -29 -3 -56 18 -56 44 0 13 -5 18 -14 15 -8
-3 -20 1 -26 9 -11 12 11 14 164 14 l176 0 0 -176z m-289 -18 c-1 -62 2 -96 8
-96 7 0 11 32 11 87 0 47 3 83 6 80 4 -4 6 -43 5 -87 -2 -75 -1 -80 18 -80 19
0 21 6 21 62 0 34 3 58 7 55 4 -4 5 -32 4 -62 -1 -34 2 -55 8 -55 6 0 11 20
11 47 0 25 3 43 7 39 4 -4 6 -25 4 -46 -2 -35 0 -40 18 -40 15 0 21 6 21 21 0
11 4 18 10 14 5 -3 6 -13 3 -22 -5 -12 -2 -15 9 -11 10 4 31 -9 59 -38 l43
-44 -177 0 -177 0 0 177 0 178 41 -42 42 -41 -2 -96z"/>
</g>
</svg>
