<?xml version="1.0" standalone="no"?>
<!DOCTYPE svg PUBLIC "-//W3C//DTD SVG 20010904//EN"
 "http://www.w3.org/TR/2001/REC-SVG-20010904/DTD/svg10.dtd">
<svg version="1.0" xmlns="http://www.w3.org/2000/svg"
 width="55.000000pt" height="55.000000pt" viewBox="0 0 55.000000 55.000000"
 preserveAspectRatio="xMidYMid meet">

<g transform="translate(0.000000,55.000000) scale(0.100000,-0.100000)"
fill="#000000" stroke="none">
<path d="M106 459 c-18 -14 -26 -30 -26 -51 0 -18 -8 -37 -17 -44 -16 -12 -13
-13 25 -14 l42 0 0 -75 0 -75 -42 0 c-39 0 -41 -1 -25 -17 9 -10 25 -28 37
-40 19 -21 28 -23 136 -23 107 0 118 -2 152 -25 l37 -25 3 24 c2 15 11 26 26
30 12 3 28 17 34 31 15 32 16 102 2 110 -6 4 -10 -12 -10 -40 0 -55 -14 -85
-40 -85 -10 0 -23 -7 -28 -16 -9 -16 -11 -16 -33 0 -18 13 -48 16 -139 16 -77
0 -120 4 -128 12 -17 17 -15 28 6 28 10 0 23 5 28 10 8 8 19 8 38 0 15 -5 52
-10 81 -10 66 0 73 10 71 100 l-1 65 -37 3 c-35 3 -37 5 -31 32 4 23 1 31 -12
36 -13 5 -27 -4 -50 -32 -30 -35 -36 -38 -54 -26 -11 6 -28 12 -36 12 -24 0
-20 67 4 80 11 6 87 10 175 10 182 0 186 -2 186 -86 0 -34 4 -53 10 -49 6 3
10 29 10 56 0 40 -5 55 -25 74 -24 24 -28 25 -183 25 -146 0 -162 -2 -186 -21z
m138 -94 l-6 -35 41 0 c22 0 41 -4 41 -10 0 -5 -7 -10 -15 -10 -8 0 -15 -4
-15 -10 0 -5 8 -10 17 -10 15 0 14 -2 -3 -15 -17 -13 -17 -14 -1 -15 21 0 23
-20 2 -20 -8 0 -15 -4 -15 -10 0 -5 5 -10 10 -10 6 0 10 -4 10 -10 0 -14 -103
-13 -135 2 -22 10 -25 17 -25 64 0 47 2 52 26 58 14 4 33 20 42 36 23 40 34
38 26 -5z"/>
<path d="M360 410 c0 -5 5 -10 10 -10 6 0 10 5 10 10 0 6 -4 10 -10 10 -5 0
-10 -4 -10 -10z"/>
<path d="M335 391 c-3 -6 1 -11 9 -11 9 0 16 -7 16 -15 0 -8 5 -15 10 -15 16
0 12 15 -9 34 -12 11 -21 14 -26 7z"/>
<path d="M401 214 c0 -11 3 -14 6 -6 3 7 2 16 -1 19 -3 4 -6 -2 -5 -13z"/>
<path d="M370 190 c0 -5 5 -10 10 -10 6 0 10 5 10 10 0 6 -4 10 -10 10 -5 0
-10 -4 -10 -10z"/>
<path d="M420 190 c0 -5 5 -10 10 -10 6 0 10 5 10 10 0 6 -4 10 -10 10 -5 0
-10 -4 -10 -10z"/>
</g>
</svg>
