<?xml version="1.0" standalone="no"?>
<!DOCTYPE svg PUBLIC "-//W3C//DTD SVG 20010904//EN"
 "http://www.w3.org/TR/2001/REC-SVG-20010904/DTD/svg10.dtd">
<svg version="1.0" xmlns="http://www.w3.org/2000/svg"
 width="55.000000pt" height="55.000000pt" viewBox="0 0 55.000000 55.000000"
 preserveAspectRatio="xMidYMid meet">

<g transform="translate(0.000000,55.000000) scale(0.100000,-0.100000)"
fill="#000000" stroke="none">
<path d="M100 397 c0 -128 -1 -133 -22 -142 -28 -12 -36 -56 -14 -75 10 -7 16
-28 16 -51 0 -22 5 -39 10 -39 6 0 10 -16 10 -35 l0 -35 204 0 c177 0 205 2
210 16 8 20 8 458 0 478 -5 14 -33 16 -210 16 l-204 0 0 -133z m70 -1 c0 -126
-3 -136 -41 -136 -5 0 -9 58 -9 130 l0 130 25 0 25 0 0 -124z m228 76 c3 -37
6 -42 18 -31 11 9 17 9 28 0 12 -11 15 -6 18 31 2 30 7 43 18 43 13 0 15 -33
15 -240 l0 -240 -152 -3 -153 -3 0 56 c0 51 10 69 25 45 13 -20 36 -9 42 20 3
17 10 33 14 36 12 7 11 54 -1 54 -5 0 -10 9 -10 19 0 50 -20 63 -52 34 -17
-15 -18 -12 -18 106 l0 122 103 -3 102 -3 3 -43z m50 22 c2 -14 -3 -20 -18
-20 -12 0 -20 7 -20 16 0 35 33 38 38 4z m-208 -279 c0 -43 -4 -75 -10 -75 -6
0 -10 32 -10 75 0 43 4 75 10 75 6 0 10 -32 10 -75z m-30 -1 c0 -50 -2 -55
-17 -49 -10 4 -26 10 -35 12 -12 4 -18 15 -18 37 0 26 6 34 28 43 15 6 30 11
35 12 4 1 7 -24 7 -55z m-120 1 c0 -14 -4 -25 -10 -25 -5 0 -10 11 -10 25 0
14 5 25 10 25 6 0 10 -11 10 -25z m30 0 c0 -14 -4 -25 -10 -25 -5 0 -10 11
-10 25 0 14 5 25 10 25 6 0 10 -11 10 -25z m10 -81 c0 -28 -3 -35 -17 -32 -12
2 -19 14 -21 36 -3 27 0 32 17 32 17 0 21 -6 21 -36z m40 -39 c0 -63 -1 -65
-25 -65 -21 0 -25 5 -25 30 0 20 5 30 15 30 10 0 15 11 15 35 0 19 5 35 10 35
6 0 10 -28 10 -65z"/>
<path d="M228 468 c9 -9 15 -9 24 0 9 9 7 12 -12 12 -19 0 -21 -3 -12 -12z"/>
<path d="M275 470 c3 -5 24 -10 46 -10 21 0 39 5 39 10 0 6 -21 10 -46 10 -27
0 -43 -4 -39 -10z"/>
<path d="M225 440 c-4 -6 20 -10 64 -10 41 0 71 4 71 10 0 6 -28 10 -64 10
-36 0 -68 -4 -71 -10z"/>
<path d="M225 390 c-4 -6 12 -10 39 -10 25 0 46 5 46 10 0 6 -18 10 -39 10
-22 0 -43 -4 -46 -10z"/>
<path d="M330 390 c0 -6 28 -10 65 -10 37 0 65 4 65 10 0 6 -28 10 -65 10 -37
0 -65 -4 -65 -10z"/>
<path d="M225 350 c3 -5 35 -10 71 -10 36 0 64 4 64 10 0 6 -30 10 -71 10 -44
0 -68 -4 -64 -10z"/>
<path d="M380 350 c0 -5 18 -10 40 -10 22 0 40 5 40 10 0 6 -18 10 -40 10 -22
0 -40 -4 -40 -10z"/>
<path d="M260 320 c0 -6 40 -10 100 -10 60 0 100 4 100 10 0 6 -40 10 -100 10
-60 0 -100 -4 -100 -10z"/>
<path d="M295 270 c-10 -11 -13 -20 -8 -20 13 0 38 29 31 35 -3 3 -13 -4 -23
-15z"/>
<path d="M380 280 c0 -5 18 -10 40 -10 22 0 40 5 40 10 0 6 -18 10 -40 10 -22
0 -40 -4 -40 -10z"/>
<path d="M380 250 c0 -5 18 -10 40 -10 22 0 40 5 40 10 0 6 -18 10 -40 10 -22
0 -40 -4 -40 -10z"/>
<path d="M313 213 c9 -2 23 -2 30 0 6 3 -1 5 -18 5 -16 0 -22 -2 -12 -5z"/>
<path d="M398 213 c12 -2 32 -2 45 0 12 2 2 4 -23 4 -25 0 -35 -2 -22 -4z"/>
<path d="M380 180 c0 -5 18 -10 40 -10 22 0 40 5 40 10 0 6 -18 10 -40 10 -22
0 -40 -4 -40 -10z"/>
<path d="M295 160 c10 -11 20 -18 23 -15 7 6 -18 35 -31 35 -5 0 -2 -9 8 -20z"/>
<path d="M398 143 c12 -2 32 -2 45 0 12 2 2 4 -23 4 -25 0 -35 -2 -22 -4z"/>
<path d="M275 110 c3 -5 35 -10 71 -10 36 0 64 4 64 10 0 6 -30 10 -71 10 -44
0 -68 -4 -64 -10z"/>
<path d="M430 110 c0 -5 7 -10 15 -10 8 0 15 5 15 10 0 6 -7 10 -15 10 -8 0
-15 -4 -15 -10z"/>
<path d="M225 80 c-4 -6 37 -10 114 -10 74 0 121 4 121 10 0 6 -45 10 -114 10
-66 0 -117 -4 -121 -10z"/>
</g>
</svg>
