<?xml version="1.0" standalone="no"?>
<!DOCTYPE svg PUBLIC "-//W3C//DTD SVG 20010904//EN"
 "http://www.w3.org/TR/2001/REC-SVG-20010904/DTD/svg10.dtd">
<svg version="1.0" xmlns="http://www.w3.org/2000/svg"
 width="1499.000000pt" height="1556.000000pt" viewBox="0 0 1499.000000 1556.000000"
 preserveAspectRatio="xMidYMid meet">

<g transform="translate(0.000000,1556.000000) scale(0.100000,-0.100000)"
fill="#000000" stroke="none">
<path d="M6512 13079 c-111 -22 -400 -165 -605 -301 l-88 -59 -39 31 c-86 68
-162 77 -256 30 -120 -60 -377 -305 -569 -544 -65 -81 -82 -96 -99 -91 -12 3
-45 8 -73 12 -113 13 -182 -43 -291 -234 -214 -378 -354 -834 -388 -1265 -4
-49 -9 -88 -12 -88 -2 0 -39 32 -82 70 -43 39 -80 70 -84 70 -15 0 23 -315 60
-504 80 -405 234 -766 451 -1054 30 -41 52 -76 49 -80 -3 -3 -78 -6 -165 -6
l-159 -1 16 -30 c91 -178 358 -476 597 -668 110 -88 295 -218 390 -273 l50
-29 -75 -6 c-41 -4 -112 -7 -157 -8 -46 0 -83 -4 -83 -7 0 -16 98 -129 170
-197 186 -175 483 -335 760 -409 l80 -21 -68 -71 c-65 -67 -99 -113 -90 -122
9 -8 418 -204 427 -204 5 0 12 -28 16 -62 58 -557 175 -893 436 -1252 92 -126
356 -392 499 -502 84 -65 298 -213 357 -247 6 -4 60 25 120 65 616 409 963
859 1109 1436 31 124 60 299 81 486 l8 69 214 102 c118 56 217 107 219 114 5
15 -39 73 -105 137 l-53 51 88 23 c180 47 408 152 579 267 99 66 244 200 310
285 l44 58 -88 1 c-48 1 -121 4 -162 8 l-74 6 74 44 c375 222 770 596 948 899
17 29 31 54 31 55 0 1 -72 2 -160 3 -88 0 -163 3 -166 6 -3 3 25 46 61 95 279
368 451 873 500 1463 9 98 15 98 -98 -2 -35 -32 -66 -58 -69 -58 -3 0 -8 42
-12 93 -27 374 -143 782 -321 1138 -112 223 -189 322 -270 349 -36 12 -111 9
-161 -5 -17 -5 -36 14 -114 112 -110 138 -329 360 -449 455 -146 116 -233 127
-352 42 l-47 -32 -63 42 c-166 111 -452 260 -578 301 -131 43 -233 7 -306
-107 -9 -15 -21 -26 -25 -23 -5 3 -73 20 -152 37 -116 25 -167 32 -268 32
-118 1 -128 -1 -183 -27 -32 -16 -67 -41 -79 -57 l-20 -28 -29 33 c-86 98
-275 108 -594 31 -52 -13 -95 -20 -95 -17 0 4 -20 29 -45 57 -65 75 -134 101
-223 83z m166 -114 l46 -48 -120 -42 c-242 -85 -417 -172 -616 -305 -186 -124
-282 -202 -443 -364 -415 -417 -681 -944 -771 -1531 -10 -68 -19 -206 -23
-361 l-6 -252 -67 44 -68 44 0 167 c0 639 221 1263 626 1773 96 120 350 372
474 470 197 157 456 313 670 406 121 52 128 54 194 50 56 -2 61 -5 104 -51z
m1953 -9 c1068 -482 1749 -1504 1749 -2628 l0 -177 -27 -19 c-16 -11 -46 -31
-69 -44 l-40 -26 -1 212 c-1 367 -56 668 -184 996 -214 549 -605 1020 -1114
1341 -173 109 -476 248 -627 290 -46 12 -48 26 -5 66 51 48 67 54 132 50 46
-3 90 -18 186 -61z m-1259 -34 c48 -24 72 -52 83 -95 6 -24 6 -24 -77 -26
-264 -6 -622 -88 -888 -205 -754 -331 -1308 -1015 -1469 -1812 -47 -232 -64
-542 -41 -743 5 -47 8 -87 5 -89 -2 -2 -40 13 -84 33 -80 38 -80 38 -87 82 -3
25 -4 149 -1 276 5 251 22 379 77 597 221 874 882 1588 1746 1883 338 116 622
154 736 99z m653 -7 c561 -119 1083 -415 1452 -823 425 -472 657 -1016 703
-1652 10 -137 5 -386 -9 -408 -7 -12 -153 -84 -158 -78 -2 1 1 45 7 97 21 206
5 502 -39 724 -111 546 -408 1053 -830 1416 -422 363 -963 583 -1489 606 -129
6 -132 7 -126 27 16 53 51 86 122 112 53 20 219 11 367 -21z m-2355 -176 c21
-6 50 -21 65 -33 l27 -22 -98 -79 c-127 -101 -378 -352 -480 -480 -127 -160
-237 -335 -333 -529 -200 -402 -289 -757 -309 -1232 l-7 -161 -82 64 -83 65 0
108 c0 290 68 648 181 955 52 142 181 401 263 533 172 273 396 528 651 739 49
41 126 82 154 83 7 0 31 -5 51 -11z m2201 -13 c454 -74 873 -262 1209 -544 91
-76 330 -315 330 -330 0 -4 -58 -50 -128 -103 -70 -53 -177 -135 -237 -182
l-111 -85 -68 74 c-220 241 -554 445 -881 540 -178 51 -245 59 -495 59 -206
-1 -248 -4 -339 -23 -384 -84 -712 -263 -990 -542 l-106 -106 -230 176 c-126
97 -230 181 -232 187 -6 16 215 242 327 335 198 167 482 330 735 423 130 48
339 100 478 120 62 8 126 17 142 19 72 10 504 -3 596 -18z m1564 0 c28 -13
100 -66 160 -118 439 -377 780 -917 925 -1463 67 -250 100 -477 100 -687 l0
-127 -82 -64 -83 -65 -8 186 c-12 306 -58 565 -148 835 -176 531 -517 1019
-957 1370 -126 101 -125 97 -37 138 52 24 70 24 130 -5z m-4598 -639 c2 -3
-18 -38 -45 -78 -280 -419 -446 -918 -483 -1452 -5 -83 -11 -155 -12 -159 -1
-3 -33 19 -70 50 l-68 57 5 104 c23 416 167 901 378 1276 104 184 144 220 237
211 29 -3 55 -7 58 -9z m5467 -10 c25 -13 57 -47 84 -87 52 -78 197 -370 246
-497 105 -271 178 -606 193 -877 l6 -111 -69 -58 -69 -58 -12 173 c-38 522
-198 1010 -469 1426 -30 45 -54 87 -54 92 0 26 97 24 144 -3z m-2507 -272 c67
-30 123 -76 172 -139 50 -65 111 -166 111 -183 0 -8 -78 -52 -182 -102 -101
-49 -268 -130 -373 -181 -104 -51 -209 -100 -232 -110 l-42 -19 -60 152 c-73
187 -122 319 -118 323 2 2 21 -8 42 -23 l39 -26 25 34 c13 19 64 72 111 119
172 170 352 225 507 155z m-801 -228 c4 -4 -223 -717 -234 -737 -11 -19 30 2
-516 -265 -440 -216 -459 -226 -438 -241 27 -19 28 -44 3 -75 -20 -27 -54
-125 -70 -207 -14 -69 -14 -207 0 -272 l11 -52 82 6 c44 4 132 11 194 17 l112
10 105 -98 c140 -131 395 -417 395 -444 0 -11 -91 21 -160 56 -30 15 -100 57
-154 92 -213 139 -323 179 -466 170 -111 -7 -186 -34 -318 -114 -241 -147
-267 -163 -278 -163 -15 0 -104 216 -138 333 -14 48 -32 136 -42 195 -9 59
-20 114 -24 123 -15 29 -33 269 -28 381 4 106 7 118 41 190 49 101 123 178
212 220 57 26 78 31 143 30 53 0 96 -6 137 -21 32 -11 59 -21 60 -21 0 0 0 44
1 98 3 332 243 561 525 503 68 -14 166 -60 232 -108 47 -34 50 -35 60 -17 20
37 78 83 112 90 53 10 102 -13 177 -84 l70 -66 -9 49 c-4 28 -8 104 -8 170 0
104 3 125 22 160 38 71 98 109 157 99 16 -2 31 -6 32 -7z m-45 -413 c-22 -133
-45 -250 -52 -261 -7 -11 -34 -30 -61 -41 -44 -18 -48 -19 -44 -4 86 283 190
589 193 567 2 -11 -14 -129 -36 -261z m89 11 c10 -206 8 -211 -69 -246 l-44
-19 7 37 c4 21 22 137 42 258 19 120 38 224 42 230 8 11 8 2 22 -260z m74 60
c25 -99 46 -188 46 -197 0 -22 -47 -55 -60 -42 -8 8 -51 394 -50 439 1 28 22
-38 64 -200z m1028 110 l14 -35 109 -3 c119 -3 170 -19 232 -71 29 -24 89
-114 81 -120 -4 -4 -361 -236 -400 -260 -31 -19 -31 -19 -48 1 -11 14 -20 49
-24 95 -7 82 -22 144 -36 153 -10 6 -56 -70 -190 -319 l-97 -181 -124 -78
c-68 -43 -125 -74 -127 -69 -11 35 201 510 268 599 84 110 294 323 320 323 4
0 14 -16 22 -35z m-973 -117 c44 -95 53 -132 40 -167 -14 -36 -23 -18 -52 94
-48 189 -46 199 12 73z m321 -127 c5 -11 10 -33 10 -50 0 -17 2 -31 5 -31 3 0
25 16 51 35 25 19 55 35 67 35 31 0 79 -32 96 -63 13 -25 11 -33 -37 -129 -28
-57 -73 -161 -101 -233 -27 -71 -58 -150 -68 -174 l-19 -45 -73 182 c-40 99
-90 232 -111 294 l-38 113 87 42 c98 48 116 51 131 24z m544 -181 c-7 -52 -13
-111 -13 -130 -1 -33 -6 -38 -87 -89 -47 -29 -87 -51 -90 -48 -3 2 31 73 75
156 74 140 120 217 126 209 1 -2 -4 -46 -11 -98z m-713 -95 c38 -99 88 -226
110 -282 22 -56 39 -112 37 -124 -2 -15 -20 -33 -52 -51 -27 -16 -50 -27 -53
-25 -2 3 -39 146 -83 318 -59 235 -76 318 -69 332 22 40 41 11 110 -168z
m1616 166 c55 -25 128 -94 160 -150 15 -25 28 -48 29 -50 2 -2 25 12 51 32
279 203 602 143 737 -135 30 -62 37 -90 46 -182 19 -206 6 -525 -24 -591 -8
-16 -22 -79 -31 -140 -9 -60 -32 -160 -50 -221 -38 -123 -105 -286 -121 -291
-6 -2 -48 20 -95 48 -46 29 -129 80 -185 114 -236 144 -420 152 -641 29 -35
-19 -63 -32 -63 -28 0 15 147 265 206 352 l64 92 -27 1 c-16 1 -122 5 -237 8
l-210 6 75 90 c42 50 82 96 91 102 26 22 105 -10 193 -77 95 -71 155 -97 193
-84 14 5 62 54 108 110 l83 102 -62 6 c-70 8 -82 14 -157 71 -67 51 -131 85
-162 85 -15 0 -54 -31 -120 -97 -54 -54 -98 -101 -98 -106 0 -5 -39 -53 -87
-108 l-87 -100 -75 3 -76 3 -8 55 c-5 30 -6 134 -4 230 4 155 8 188 35 290 31
117 111 311 152 372 30 43 92 108 103 108 5 0 22 9 38 20 71 51 182 64 256 31z
m-1692 -270 c36 -145 71 -273 77 -284 5 -11 10 -38 10 -59 -1 -54 -36 -97
-111 -137 -54 -28 -61 -30 -61 -14 0 43 -61 666 -66 674 -11 19 9 50 44 68 20
11 38 18 39 17 1 -1 31 -120 68 -265z m861 103 c-3 -8 -10 -14 -16 -14 -6 0
-10 27 -9 68 l1 67 14 -54 c8 -30 13 -60 10 -67z m-1031 -417 l15 -339 -35
-73 c-19 -40 -41 -75 -49 -78 -15 -6 -213 17 -222 25 -6 7 18 177 77 540 27
168 49 318 49 331 0 36 28 63 85 85 l50 20 7 -87 c4 -47 14 -238 23 -424z
m1329 469 c36 -15 76 -60 76 -86 0 -9 -18 -60 -39 -113 -90 -220 -115 -360
-109 -614 1 -90 0 -163 -4 -163 -58 0 -55 -3 -67 63 -6 34 -29 186 -51 337
-22 151 -47 307 -56 345 -27 118 -22 131 69 193 85 56 120 64 181 38z m-1518
-83 c-15 -130 -129 -829 -137 -837 -8 -9 -229 -9 -237 -1 -5 5 18 85 118 400
49 154 94 300 100 325 16 61 55 116 104 145 23 14 45 25 50 25 5 0 6 -26 2
-57z m-163 -55 c-16 -68 -69 -243 -118 -386 -30 -90 -62 -193 -71 -230 -31
-136 -68 -172 -176 -172 l-57 0 -213 185 c-117 102 -213 193 -213 202 0 12
117 74 415 219 228 112 420 203 427 203 6 1 9 -8 6 -21z m1397 16 c0 -21 74
-505 96 -623 16 -87 23 -157 19 -178 l-6 -34 -57 3 -57 3 -8 60 c-8 66 -26
755 -20 768 5 8 33 10 33 1z m-117 -72 c3 -4 -8 -115 -24 -247 -17 -132 -33
-286 -38 -341 -5 -71 -13 -110 -25 -129 -18 -27 -19 -28 -94 -21 -41 3 -90 6
-108 6 -32 0 -33 1 -73 104 -44 113 -47 131 -29 173 39 90 174 326 196 344 38
29 176 118 184 119 4 0 9 -3 11 -8z m-3878 -223 c161 -142 324 -270 460 -362
125 -85 312 -186 382 -207 39 -12 41 -15 48 -59 52 -362 228 -743 503 -1091
93 -116 347 -372 462 -464 213 -170 450 -306 649 -373 90 -30 123 -36 221 -40
101 -5 122 -2 173 17 76 29 129 80 169 166 27 58 33 83 36 162 4 88 3 94 -24
133 -31 46 -76 73 -104 64 -10 -3 -33 -22 -50 -42 -30 -33 -32 -34 -45 -17
-17 24 -29 112 -20 153 11 51 98 111 162 111 7 0 21 17 32 38 30 58 101 118
162 136 29 9 84 16 122 16 56 0 81 -6 133 -30 100 -48 106 -61 153 -312 46
-239 66 -308 112 -380 75 -116 166 -163 314 -162 410 5 1004 405 1392 939 210
289 359 636 404 938 l12 78 41 16 c234 93 527 293 861 587 60 54 111 93 113
87 5 -16 -27 -237 -54 -365 -91 -429 -246 -772 -481 -1063 l-82 -101 67 -11
c37 -5 114 -14 171 -18 l103 -8 -57 -80 c-63 -87 -222 -272 -276 -320 -155
-138 -205 -180 -279 -237 -113 -87 -302 -210 -428 -278 -56 -30 -102 -58 -102
-61 0 -4 64 -10 143 -13 78 -4 169 -9 202 -13 l60 -6 -87 -82 c-207 -197 -554
-375 -839 -430 -46 -9 -100 -19 -119 -24 l-35 -7 70 -37 c41 -22 96 -62 129
-96 l59 -59 -74 -37 c-40 -21 -120 -59 -177 -86 l-104 -49 3 180 4 181 -275 3
c-232 2 -292 6 -385 24 -260 51 -429 131 -578 272 l-82 78 -62 -63 c-219 -222
-544 -321 -1035 -313 l-218 3 0 -182 0 -182 -170 82 c-93 44 -170 86 -170 93
0 21 113 118 179 152 34 19 60 36 58 38 -2 3 -44 11 -93 19 -315 52 -688 239
-903 453 l-66 65 40 8 c22 4 111 11 198 14 86 4 157 10 157 14 0 3 -42 29 -92
56 -331 180 -670 452 -892 715 -88 103 -160 204 -149 207 4 1 72 7 150 13 78
5 151 14 162 18 19 7 18 9 -10 42 -197 232 -326 462 -433 770 -62 176 -118
424 -141 615 -3 28 -8 65 -11 83 -7 43 -8 43 131 -79z m3575 -6 c-35 -80 -111
-203 -125 -203 -16 0 -61 128 -49 140 18 17 187 120 191 116 3 -2 -5 -26 -17
-53z m-186 -125 c8 -18 21 -55 30 -83 14 -46 13 -53 -3 -90 -32 -72 -90 -160
-95 -144 -71 214 -72 298 -5 335 39 22 58 17 73 -18z m-1580 -112 c44 -35 128
-105 186 -156 58 -51 107 -95 110 -97 2 -2 -2 -8 -10 -13 -25 -16 -99 -11
-140 10 -46 23 -64 19 -80 -20 -12 -28 -45 -47 -125 -70 -22 -7 -56 -25 -76
-41 -37 -28 -37 -28 -43 -6 -11 42 -6 175 10 252 15 74 66 205 80 205 3 0 43
-29 88 -64z m1468 -120 c16 -66 27 -130 24 -142 -7 -27 -56 -44 -124 -44 -24
0 -57 -7 -73 -16 -17 -8 -32 -14 -34 -12 -2 2 -9 65 -16 142 -11 119 -11 139
2 147 8 5 48 31 89 57 l75 49 14 -31 c7 -17 27 -85 43 -150z m1581 62 c18 -12
52 -39 76 -60 39 -34 50 -38 98 -38 l54 0 -22 -31 c-21 -30 -24 -31 -83 -27
-55 3 -69 9 -138 58 -73 50 -76 54 -55 64 12 7 23 22 25 34 4 27 6 27 45 0z
m-1364 -100 c17 -39 31 -77 31 -84 0 -23 -36 -34 -109 -34 -65 0 -71 2 -71 21
0 11 11 37 25 57 14 20 25 41 25 47 0 23 40 74 54 69 7 -3 28 -37 45 -76z
m-519 -142 c0 -8 -4 -18 -10 -21 -5 -3 -10 3 -10 14 0 12 5 21 10 21 6 0 10
-6 10 -14z m582 -27 c10 -19 20 -49 24 -66 l6 -32 -92 -3 c-50 -2 -100 0 -109
4 -10 3 -22 21 -26 40 l-8 33 -6 -40 c-6 -40 -6 -40 -46 -37 -22 2 -42 6 -44
8 -6 5 21 57 45 89 15 20 15 20 30 1 12 -17 14 -17 14 -4 0 25 18 32 100 39
97 7 92 9 112 -32z m227 25 c24 -8 -19 -46 -46 -41 -23 4 -27 -1 -35 -58 -3
-20 -57 -38 -76 -26 -15 10 -52 102 -46 113 12 19 51 26 119 21 39 -2 76 -7
84 -9z m-1475 -14 c30 -11 32 -22 10 -45 -15 -15 -19 -14 -46 12 -30 28 -30
28 9 42 1 1 13 -3 27 -9z m1794 -15 c3 -3 -12 -6 -34 -6 -73 -2 -100 5 -75 20
12 8 99 -3 109 -14z m-1531 5 c40 0 43 -14 6 -28 -36 -13 -205 -23 -222 -12
-9 5 -11 16 -6 30 7 22 10 23 98 16 49 -3 105 -6 124 -6z m689 -4 c8 -21 -24
-76 -49 -85 -27 -10 -135 -2 -143 10 -3 5 -3 18 1 29 13 40 178 80 191 46z
m-1049 -18 c33 -30 29 -38 -19 -38 -29 0 -49 7 -65 22 -33 30 -29 38 19 38 29
0 49 -7 65 -22z m-284 -22 c27 -21 20 -33 -20 -40 -60 -9 -168 -7 -157 3 7 8
133 48 154 50 3 0 13 -6 23 -13z m1047 -31 c0 -13 -24 -15 -162 -14 -170 2
-176 4 -43 18 138 14 205 13 205 -4z m-1038 -500 c65 -22 174 -82 309 -171 36
-24 102 -61 145 -81 75 -36 84 -38 179 -38 95 0 104 2 177 37 42 20 125 67
185 105 202 129 263 157 373 173 150 21 265 -15 491 -158 81 -50 177 -107 215
-124 64 -30 77 -33 169 -33 97 0 103 1 187 42 47 23 119 63 160 91 293 196
458 232 668 143 82 -34 330 -189 330 -205 0 -19 -78 -136 -90 -136 -6 0 -36
16 -66 36 -166 105 -264 137 -407 132 -132 -5 -188 -27 -411 -166 -198 -124
-266 -152 -370 -152 -110 0 -159 20 -351 141 -240 152 -309 179 -452 179 -141
0 -237 -37 -443 -169 -214 -138 -260 -156 -389 -149 -103 6 -159 30 -326 137
-135 87 -243 144 -314 165 -68 20 -219 21 -282 2 -53 -16 -173 -75 -244 -120
-27 -18 -55 -35 -61 -39 -8 -4 -30 22 -60 70 -26 42 -44 78 -38 80 5 2 59 35
119 74 168 108 255 147 360 162 55 8 169 -5 237 -28z m-29 -390 c67 -20 152
-65 276 -144 221 -141 287 -166 407 -159 88 6 169 42 336 149 254 164 387 204
553 164 87 -20 143 -47 305 -148 80 -50 179 -106 220 -126 70 -34 82 -36 170
-36 91 0 99 2 180 41 47 23 132 72 190 109 302 197 461 221 694 104 45 -22 85
-44 90 -49 11 -11 -7 -40 -65 -103 l-44 -47 -65 27 c-58 24 -77 28 -175 28
-103 0 -115 -2 -195 -36 -47 -19 -150 -76 -230 -125 -234 -146 -291 -169 -404
-162 -87 6 -173 44 -332 145 -60 38 -124 78 -142 89 -18 10 -47 40 -63 66 -52
81 -139 131 -252 144 -133 16 -301 -67 -349 -171 -8 -18 -26 -29 -65 -40 -63
-19 -124 -73 -138 -125 -9 -30 -20 -40 -80 -70 -65 -33 -76 -35 -165 -35 -89
0 -100 2 -175 38 -44 21 -140 77 -213 124 -152 96 -216 127 -311 149 -83 20
-176 13 -273 -21 -39 -14 -72 -25 -73 -25 0 0 -27 31 -58 69 -43 52 -53 71
-44 79 27 22 202 104 241 112 55 12 189 4 249 -15z m15 -410 c43 -14 114 -47
158 -73 43 -27 127 -78 187 -115 220 -135 328 -146 504 -53 l64 34 11 -26 c5
-15 14 -37 19 -49 13 -34 24 -28 57 30 16 28 40 63 53 77 l24 24 12 -39 c6
-22 12 -56 12 -76 1 -35 -1 -37 -116 -109 -168 -105 -239 -134 -333 -134 -117
-1 -139 9 -464 208 -43 27 -111 63 -152 80 -58 24 -97 52 -185 130 -81 72
-107 101 -97 107 28 19 165 10 246 -16z m3146 16 c14 -21 -215 -208 -304 -248
-36 -16 -132 -71 -215 -123 -168 -105 -224 -132 -308 -151 -102 -22 -202 8
-375 115 -140 87 -141 88 -162 191 -11 50 -19 100 -20 113 l0 23 28 -20 c15
-10 71 -47 126 -81 298 -187 386 -185 707 21 200 128 303 168 436 169 45 0 84
-4 87 -9z m-1224 -2469 l0 -697 -107 -86 c-60 -48 -165 -126 -236 -174 l-127
-87 -53 33 c-83 51 -265 183 -347 252 l-75 63 -3 697 -2 697 475 0 475 0 0
-698z"/>
<path d="M7311 12677 c-8 -10 -3 -37 19 -108 17 -52 33 -119 36 -150 6 -49 4
-58 -18 -84 -19 -21 -33 -28 -59 -27 -59 2 -86 57 -54 112 21 37 19 87 -4 100
-29 15 -120 12 -181 -6 -30 -9 -133 -50 -229 -91 -194 -82 -231 -94 -231 -71
0 20 43 83 90 133 49 51 64 81 48 91 -14 9 -126 -107 -170 -175 -33 -53 -37
-96 -9 -111 54 -28 174 3 411 108 142 62 200 81 200 63 0 -34 -575 -281 -652
-281 -13 0 -47 11 -76 25 -89 41 -124 30 -125 -43 -2 -95 28 -124 100 -97 24
9 47 15 50 12 13 -13 -31 -119 -76 -185 -27 -39 -47 -72 -43 -72 4 0 33 20 64
45 75 59 98 104 98 193 l0 70 48 6 c136 20 292 76 500 180 72 36 134 66 136
66 2 0 7 -16 10 -35 14 -72 101 -124 152 -90 48 31 58 76 45 201 -6 61 -11
134 -11 162 0 40 -4 53 -19 62 -26 13 -36 13 -50 -3z"/>
<path d="M7507 12670 c-9 -33 -7 -233 2 -290 l8 -45 9 40 c11 48 8 247 -4 290
l-8 30 -7 -25z"/>
<path d="M7684 12660 c-27 -11 -36 -24 -28 -44 8 -22 39 -29 65 -16 17 10 28
8 55 -6 32 -17 34 -17 53 1 25 22 26 38 6 55 -12 10 -21 10 -46 -1 -28 -11
-33 -10 -44 4 -13 19 -29 20 -61 7z"/>
<path d="M7868 12550 c-13 -38 -35 -50 -93 -50 -90 0 -110 -36 -49 -90 37 -32
60 -35 107 -15 13 6 17 2 17 -16 0 -71 124 -184 260 -237 85 -33 128 -42 226
-49 128 -8 148 3 200 109 21 44 51 97 67 116 29 38 35 73 14 91 -11 8 -22 -9
-57 -84 -51 -114 -106 -182 -156 -191 -19 -3 -64 -1 -101 6 -118 23 -351 156
-401 230 -22 32 -24 42 -19 123 2 48 3 87 0 87 -2 0 -9 -14 -15 -30z"/>
<path d="M8149 12397 c28 -35 140 -48 216 -25 40 12 39 13 -55 19 -52 4 -113
10 -135 14 -36 8 -39 7 -26 -8z"/>
<path d="M6150 12133 c0 -9 11 -31 25 -49 29 -38 22 -47 -33 -43 -28 2 -36 0
-33 -11 14 -58 12 -99 -8 -139 -31 -60 -87 -118 -146 -152 -59 -34 -93 -36
-128 -9 -30 24 -37 25 -37 6 0 -19 65 -74 96 -82 41 -10 98 13 153 62 71 63
92 97 116 181 18 60 27 76 56 96 50 34 51 68 1 117 -42 43 -62 50 -62 23z"/>
<path d="M8755 12100 c-12 -14 -18 -35 -17 -67 0 -48 6 -57 58 -90 16 -10 17
-13 4 -22 -25 -17 -105 -23 -164 -12 -63 12 -85 22 -137 62 -60 47 -69 32 -17
-27 48 -55 98 -74 193 -74 137 0 205 53 205 162 0 35 -6 54 -20 68 -26 26 -81
26 -105 0z"/>
<path d="M5936 12034 c-9 -8 -16 -22 -16 -29 0 -8 -6 -12 -14 -9 -17 7 -46
-22 -46 -45 0 -44 72 -53 85 -12 3 10 17 22 30 25 47 12 42 86 -6 86 -9 0 -25
-7 -33 -16z"/>
<path d="M8975 11982 c12 -13 127 -31 193 -32 72 0 46 17 -35 23 -43 4 -98 9
-123 13 -32 5 -42 3 -35 -4z"/>
<path d="M6228 11916 c-6 -14 -19 -26 -28 -26 -37 0 -53 -46 -24 -74 23 -24
43 -19 62 14 9 16 25 31 36 32 50 8 44 70 -7 76 -21 3 -30 -3 -39 -22z"/>
<path d="M9037 11873 c-12 -11 -8 -48 8 -69 8 -10 15 -40 15 -66 0 -43 -2 -47
-29 -53 -40 -8 -67 7 -122 67 l-47 51 -17 -27 c-17 -26 -17 -27 8 -65 26 -39
111 -91 149 -91 35 0 79 31 94 65 16 40 19 148 4 176 -10 18 -50 26 -63 12z"/>
<path d="M7488 8645 c-2 -3 -42 -7 -87 -10 -45 -2 -86 -7 -91 -10 -18 -11 -10
-35 14 -45 13 -5 27 -17 30 -28 18 -56 106 -39 118 23 2 13 14 22 33 25 21 4
31 12 33 28 3 17 -1 22 -21 22 -13 0 -26 -2 -29 -5z"/>
<path d="M7130 8459 c-39 -11 -88 -44 -79 -54 4 -3 18 -1 33 5 48 18 70 12
111 -31 57 -60 125 -89 205 -89 48 0 74 5 99 21 18 11 30 23 26 27 -3 4 -37 5
-75 3 -77 -3 -148 16 -190 50 l-25 21 55 -7 c30 -3 66 -9 78 -12 33 -8 26 23
-10 50 -22 16 -46 21 -110 23 -46 2 -99 -1 -118 -7z"/>
<path d="M4167 4944 c-11 -12 -8 -43 10 -93 15 -44 15 -50 -2 -104 -20 -65
-16 -85 8 -34 32 66 42 122 29 164 -14 45 -35 77 -45 67z"/>
<path d="M5813 4906 l-40 -35 -12 26 c-20 43 -39 9 -29 -52 3 -17 -4 -21 -51
-25 -42 -5 -58 -12 -77 -33 -13 -16 -24 -38 -24 -49 0 -20 1 -19 25 6 19 20
33 26 67 26 25 0 56 8 75 20 18 11 39 17 48 14 9 -4 29 8 51 30 28 28 35 42
32 67 -2 18 -8 34 -14 36 -5 2 -28 -12 -51 -31z"/>
<path d="M6937 4911 c-2 -11 2 -41 11 -66 14 -45 14 -50 -7 -99 -32 -74 -35
-84 -16 -61 48 57 67 148 44 214 -12 35 -24 40 -32 12z"/>
<path d="M10640 4906 c-9 -12 -4 -31 25 -97 25 -54 38 -97 39 -130 0 -27 4
-49 7 -49 16 0 31 64 25 108 -6 47 -63 182 -77 182 -3 0 -12 -7 -19 -14z"/>
<path d="M3430 4870 c-6 -11 -12 -33 -13 -50 l-2 -29 -25 23 c-24 22 -62 46
-74 46 -9 0 -7 -53 2 -66 4 -6 19 -14 33 -17 48 -12 67 -92 24 -103 -31 -8
-68 -55 -85 -107 -15 -47 -7 -59 14 -19 10 19 32 36 66 50 44 18 49 19 41 4
-5 -9 -25 -33 -45 -51 -33 -32 -47 -61 -28 -61 12 0 117 111 146 154 14 21 26
47 26 57 0 20 -19 25 -35 10 -6 -5 -19 -12 -31 -15 -20 -6 -20 -4 -11 65 9 66
11 70 32 65 27 -7 40 16 25 45 -14 25 -46 24 -60 -1z"/>
<path d="M4723 4843 c-3 -9 0 -37 7 -62 23 -83 23 -96 -5 -151 -30 -59 -28
-76 4 -31 53 74 62 134 34 214 -18 49 -29 58 -40 30z"/>
<path d="M4405 4757 c-103 -52 -192 -91 -368 -164 -30 -12 -43 -26 -58 -60
-10 -25 -19 -47 -19 -49 0 -10 28 -2 33 9 3 8 45 31 94 52 48 21 161 71 251
113 149 69 165 78 183 113 10 21 16 40 11 42 -4 3 -61 -22 -127 -56z"/>
<path d="M10332 4768 c-18 -46 -20 -69 -17 -168 5 -125 20 -310 30 -350 3 -14
10 -61 15 -105 6 -44 12 -93 14 -110 17 -120 26 -215 31 -309 l5 -108 -35 -62
c-41 -73 -46 -98 -14 -70 29 26 84 147 99 218 15 73 1 284 -36 531 -36 243
-37 251 -30 279 8 31 31 34 46 6 15 -27 30 -25 30 4 0 27 -18 75 -62 163 -17
34 -32 73 -33 85 -1 13 -3 29 -4 36 -3 27 -20 9 -39 -40z"/>
<path d="M8344 4785 c-3 -14 -3 -38 0 -53 12 -47 13 -106 4 -125 -5 -10 -7
-21 -5 -24 10 -9 44 72 42 102 -2 53 -17 125 -26 125 -5 0 -11 -11 -15 -25z"/>
<path d="M9585 4800 c-4 -6 -3 -25 1 -43 11 -47 5 -89 -16 -107 -23 -20 -41
-81 -19 -64 8 6 30 14 49 18 l34 6 -33 -34 c-24 -25 -29 -36 -20 -42 13 -8 54
33 90 91 29 46 25 53 -28 48 -40 -5 -46 -3 -35 8 13 14 15 49 6 98 -7 31 -18
39 -29 21z"/>
<path d="M7290 4757 c-113 -55 -244 -115 -275 -127 -101 -37 -195 -117 -195
-165 0 -23 12 -18 49 20 36 37 42 40 376 194 50 23 100 54 112 69 43 52 26 54
-67 9z"/>
<path d="M9315 4731 c-60 -27 -150 -65 -200 -86 -104 -43 -115 -51 -115 -76 0
-17 3 -17 53 3 28 11 66 26 82 34 306 132 304 132 305 162 0 18 -4 16 -125
-37z"/>
<path d="M3726 4745 c-32 -49 -35 -72 -26 -197 12 -155 34 -365 56 -533 30
-226 29 -299 -1 -394 -48 -149 -7 -97 51 64 26 72 28 93 29 210 0 72 -4 153
-8 180 -5 28 -12 82 -17 120 -26 217 -31 277 -28 310 l3 37 27 -21 c37 -29 47
-9 20 43 -34 68 -72 166 -72 187 0 26 -15 24 -34 -6z"/>
<path d="M7746 4755 c-8 -8 -20 -41 -26 -73 -14 -73 -18 -83 -19 -50 -1 30
-59 98 -85 98 -18 0 -38 -42 -30 -64 8 -20 -77 -73 -146 -92 -8 -2 -33 -8 -55
-14 -22 -6 -51 -13 -64 -16 -30 -6 -41 -13 -41 -24 0 -5 13 -5 31 0 17 5 56
11 88 14 73 7 122 27 190 78 52 39 55 40 68 22 7 -10 16 -36 20 -58 l6 -39 18
22 c21 26 39 83 39 124 0 32 16 35 46 6 l23 -22 7 27 c5 21 1 33 -17 52 -26
28 -32 29 -53 9z"/>
<path d="M5691 4706 c-33 -53 -36 -72 -22 -120 6 -17 15 -92 21 -166 5 -74 17
-184 25 -245 52 -380 79 -661 71 -752 -3 -40 -4 -73 -2 -73 3 0 17 26 31 58
21 43 28 78 32 142 6 105 -31 528 -57 653 -5 26 -13 93 -16 147 -6 86 -5 100
8 100 9 0 18 -7 22 -15 3 -8 12 -15 21 -15 19 0 20 43 1 78 -23 43 -69 153
-87 207 l-16 50 -32 -49z"/>
<path d="M5374 4703 c-22 -46 -26 -61 -25 -90 0 -27 0 -42 -2 -85 0 -18 2 -55
7 -83 4 -27 11 -81 16 -120 5 -38 11 -79 14 -90 10 -42 56 -262 61 -297 3 -20
12 -60 20 -90 7 -29 11 -56 9 -60 -3 -4 -28 -14 -57 -22 -105 -29 -102 -29
-115 8 -15 40 -100 123 -135 131 -16 4 -35 0 -51 -10 -73 -48 -147 -277 -102
-314 19 -16 37 -16 121 -1 119 21 115 21 115 -6 0 -37 -23 -74 -82 -130 -106
-101 -210 -166 -338 -209 -120 -41 -236 -27 -295 35 -30 31 -30 33 -30 145 0
105 2 115 23 138 51 54 189 106 206 78 14 -22 25 -10 40 43 21 73 20 85 -9 96
-57 22 -205 -55 -329 -171 -42 -39 -117 -121 -167 -180 -107 -130 -153 -164
-220 -164 -66 0 -89 23 -89 87 0 52 18 96 76 184 43 64 46 99 6 52 -104 -120
-155 -329 -102 -416 49 -80 169 -66 253 30 20 24 69 84 108 133 73 91 178 205
190 205 4 0 -1 -25 -10 -55 -20 -64 -21 -240 -1 -290 41 -106 194 -144 354
-88 113 41 227 115 320 209 90 90 111 129 135 245 l12 56 47 11 c26 6 48 9 49
8 2 -2 -8 -34 -22 -72 -35 -100 -56 -206 -46 -240 14 -50 58 -128 88 -156 31
-30 126 -76 176 -86 43 -9 164 -9 207 0 102 22 255 91 318 144 62 52 103 150
118 280 l6 62 38 6 c20 3 53 17 73 31 25 16 37 20 37 11 0 -7 9 -21 19 -30 18
-16 21 -16 60 3 22 12 48 33 58 47 l16 26 11 -34 c10 -29 15 -33 51 -36 53 -4
103 29 131 86 l22 42 26 -44 c14 -24 45 -59 68 -77 37 -30 48 -33 107 -34 64
0 83 3 146 24 45 14 156 70 190 95 17 12 35 25 40 28 7 4 9 -29 7 -98 -3 -83
-1 -115 13 -151 40 -103 149 -174 280 -181 172 -9 440 110 498 221 11 21 24
73 29 115 16 121 16 122 42 122 39 0 91 27 123 63 l30 34 13 -35 c12 -33 13
-34 57 -29 50 5 85 32 114 90 11 20 21 37 22 37 1 0 4 -12 5 -27 3 -32 17 -43
57 -43 60 0 107 48 139 143 6 17 8 17 37 -7 20 -17 43 -26 65 -26 38 0 100 28
126 57 20 22 48 122 48 171 0 39 -36 105 -54 99 -6 -2 -19 -28 -29 -58 -17
-51 -17 -55 -1 -83 20 -35 9 -46 -51 -46 -44 1 -61 11 -91 55 -23 33 -64 148
-64 178 0 33 -24 12 -40 -34 -8 -24 -18 -45 -22 -47 -3 -2 7 -40 23 -85 16
-45 29 -92 29 -103 0 -34 -47 -74 -87 -74 -38 0 -50 18 -33 49 9 17 8 21 -4
21 -9 0 -34 -25 -56 -55 -46 -63 -65 -75 -114 -75 -43 0 -51 11 -36 55 20 59
5 63 -30 8 -37 -59 -93 -93 -152 -93 -38 0 -107 40 -134 78 -8 12 -19 22 -23
22 -4 0 -16 -27 -26 -61 -16 -52 -17 -64 -5 -82 59 -94 73 -119 85 -153 11
-34 11 -43 -3 -67 -20 -34 -96 -86 -195 -133 -87 -41 -227 -69 -306 -60 -71 8
-154 49 -191 94 -59 71 -74 198 -28 236 41 33 112 63 168 72 30 4 57 8 60 9 3
1 28 5 57 9 56 8 67 18 96 94 16 40 16 43 0 49 -9 4 -66 -4 -127 -17 -68 -14
-140 -22 -186 -22 -97 2 -350 34 -344 43 6 10 161 99 173 99 5 0 12 -13 16
-30 11 -50 25 -45 25 9 l0 50 85 40 c47 22 85 43 85 45 0 3 7 30 15 61 l14 57
-39 53 c-45 61 -66 71 -115 55 -29 -9 -37 -20 -54 -66 -12 -30 -24 -73 -27
-97 -8 -53 -14 -60 -75 -91 -46 -25 -78 -46 -236 -156 -58 -41 -62 -46 -77
-106 -9 -35 -16 -64 -16 -66 0 -2 60 -3 132 -3 121 0 153 -3 257 -24 l33 -6
-75 -38 c-115 -56 -165 -71 -242 -72 -64 0 -74 3 -117 34 -75 54 -84 81 -148
451 -17 96 -39 204 -50 240 -41 140 -63 226 -64 254 -2 45 -24 43 -45 -5 -23
-51 -22 -100 6 -194 53 -180 73 -257 88 -345 9 -52 23 -124 30 -160 8 -36 17
-83 20 -105 4 -22 9 -52 11 -67 9 -49 -79 -103 -126 -78 -25 13 -32 39 -21 78
14 49 -3 38 -28 -17 -17 -38 -31 -54 -63 -69 -63 -32 -79 -16 -59 56 12 42 -2
41 -27 -2 -48 -81 -197 -98 -251 -30 -26 33 -36 30 -55 -16 -24 -60 -20 -85
25 -161 52 -89 59 -128 29 -166 -79 -100 -335 -202 -480 -190 -142 12 -252 81
-290 185 -20 52 -21 62 -9 117 17 86 37 132 65 150 39 25 94 151 94 218 0 28
-39 234 -86 450 -14 65 -23 125 -20 134 6 13 9 13 32 -2 14 -9 28 -14 32 -11
6 7 -34 128 -53 161 -7 11 -18 46 -25 78 -7 31 -16 57 -20 57 -4 0 -16 -17
-26 -37z m2034 -422 c10 -6 1 -15 -32 -34 l-46 -26 0 24 c0 36 46 57 78 36z
m-2269 -515 c15 -8 33 -21 39 -29 10 -12 3 -16 -43 -25 -85 -17 -112 5 -59 47
32 25 28 25 63 7z"/>
<path d="M6266 4682 c-3 -5 -30 -14 -59 -21 -60 -13 -79 -28 -102 -84 -22 -52
-19 -67 8 -34 21 26 97 55 97 37 0 -11 -48 -60 -90 -92 -29 -23 -32 -28 -17
-34 11 -4 30 3 51 20 40 30 136 169 136 197 0 19 -15 26 -24 11z"/>
<path d="M8769 4669 c-25 -47 -29 -82 -14 -106 20 -31 31 -29 50 7 18 35 11
58 -11 39 -11 -9 -15 -8 -20 5 -3 9 -2 22 3 29 16 20 23 47 13 47 -5 0 -14
-10 -21 -21z"/>
<path d="M8150 4664 c-14 -7 -42 -14 -63 -14 -21 0 -47 -5 -58 -10 -22 -13
-59 -80 -59 -110 0 -20 2 -19 23 6 18 20 36 29 76 34 l52 7 -48 -49 c-26 -27
-63 -58 -80 -69 -31 -19 -45 -49 -24 -49 21 0 101 63 151 116 48 53 90 120 90
144 0 14 -30 11 -60 -6z"/>
<path d="M4930 4602 c-75 -37 -149 -72 -165 -79 -17 -6 -88 -35 -160 -64 -171
-68 -222 -88 -270 -104 -22 -7 -89 -34 -150 -59 -124 -52 -175 -94 -175 -146
0 -36 12 -39 30 -5 17 31 54 48 365 170 312 122 372 147 511 216 135 66 164
89 164 129 0 15 -7 13 -150 -58z"/>
<path d="M11100 4603 c-41 -24 -192 -103 -335 -174 -143 -72 -268 -138 -277
-146 -10 -9 -18 -26 -18 -39 0 -22 1 -22 50 11 28 19 134 75 236 125 102 50
227 114 277 141 91 50 167 112 151 122 -5 3 -43 -15 -84 -40z"/>
<path d="M8456 4508 c-9 -13 -16 -44 -16 -73 l-1 -50 -20 27 c-25 34 -79 68
-108 68 -18 0 -21 -6 -21 -40 0 -32 5 -43 26 -57 25 -16 27 -16 39 0 12 16 15
15 43 -19 17 -20 33 -52 37 -70 12 -65 24 -33 27 69 2 83 6 102 18 102 8 0 15
-8 15 -17 0 -30 14 -32 25 -3 24 63 -29 114 -64 63z"/>
<path d="M9020 4523 c-29 -11 -100 -75 -115 -103 -19 -37 -19 -69 0 -76 13 -5
12 -10 -5 -31 -11 -14 -20 -32 -20 -41 0 -12 3 -12 23 2 12 9 47 28 77 42 30
15 62 30 69 34 8 3 24 19 35 33 24 33 11 56 -22 38 -25 -14 -99 -14 -107 -2
-7 13 29 33 47 26 9 -4 22 9 36 33 26 46 21 59 -18 45z"/>
<path d="M9736 4508 c-3 -7 -7 -26 -11 -43 -6 -26 -8 -28 -18 -14 -15 20 -57
43 -65 35 -3 -3 -6 -14 -7 -24 -1 -9 -11 -33 -23 -52 -34 -54 -24 -111 13 -80
17 14 21 55 5 45 -13 -8 -13 -2 2 30 16 36 41 31 62 -11 l17 -37 16 23 c9 13
20 40 24 59 6 32 8 34 14 14 10 -30 23 -29 31 2 10 40 -49 91 -60 53z"/>
<path d="M6297 4473 c-4 -3 -7 -18 -7 -32 0 -26 -20 -68 -20 -43 0 15 -58 52
-82 52 -12 0 -18 -8 -18 -24 0 -24 22 -51 33 -40 8 8 57 -26 57 -41 0 -7 -7
-16 -16 -19 -9 -4 -13 -13 -10 -23 4 -13 -3 -23 -24 -35 -27 -15 -30 -22 -30
-64 0 -28 11 -75 26 -112 38 -95 54 -164 48 -208 -5 -33 -3 -36 7 -20 19 31 5
170 -25 250 -39 103 -37 109 28 104 51 -4 55 -3 61 20 4 17 0 31 -15 47 -18
19 -20 29 -14 79 8 66 27 82 56 47 l18 -23 0 34 c0 19 -5 39 -12 46 -13 13
-50 16 -61 5z"/>
<path d="M7038 4388 c-14 -18 -30 -43 -36 -55 -16 -30 -15 -98 2 -112 17 -14
46 -4 47 18 0 9 2 24 4 34 2 9 -1 17 -6 17 -5 0 -9 -4 -9 -10 0 -5 -7 -10 -15
-10 -24 0 -18 24 20 81 20 28 38 56 41 61 3 4 -1 8 -9 8 -8 0 -26 -15 -39 -32z"/>
<path d="M3397 4315 c-58 -76 -75 -164 -35 -189 24 -15 70 21 81 64 12 46 -9
65 -24 22 -7 -21 -18 -32 -30 -32 -29 0 -24 35 17 100 46 75 40 99 -9 35z"/>
<path d="M6030 4272 c0 -90 -1 -93 -36 -142 -43 -60 -54 -118 -30 -155 21 -32
49 -32 75 1 28 35 26 65 -3 93 l-25 23 22 42 c18 33 22 56 21 124 -1 47 -7 89
-13 95 -8 8 -11 -13 -11 -81z m-16 -241 c13 -14 14 -20 4 -23 -21 -8 -38 2
-38 23 0 24 12 24 34 0z"/>
<path d="M8297 4342 c-20 -22 -56 -101 -57 -124 0 -17 25 -48 40 -48 17 0 40
32 40 57 0 25 -1 25 -19 9 -17 -16 -19 -16 -25 0 -4 9 6 38 25 70 30 53 28 72
-4 36z"/>
<path d="M5129 4345 c-5 -20 -4 -32 3 -47 6 -12 -1 -36 -22 -78 -48 -95 -35
-155 26 -116 33 22 39 40 28 85 -6 21 -6 51 -1 71 10 37 -4 90 -23 90 -5 0
-11 -2 -11 -5z"/>
<path d="M7996 4311 c-9 -10 -20 -38 -24 -62 -7 -37 -9 -41 -16 -22 -9 27 -90
78 -107 67 -7 -4 -9 -22 -6 -45 3 -27 -1 -52 -14 -79 -33 -68 -17 -139 24
-107 20 15 32 63 18 71 -6 4 -11 0 -11 -8 0 -16 -12 -21 -23 -10 -11 11 31 81
52 87 23 6 46 -16 55 -55 13 -54 42 -23 52 56 8 56 28 77 44 46 9 -17 14 -19
26 -9 20 16 17 46 -6 69 -25 25 -42 25 -64 1z"/>
<path d="M10966 4318 c-3 -7 -9 -28 -15 -47 -15 -48 -14 -131 4 -181 8 -23 37
-69 65 -102 47 -56 50 -62 35 -78 -9 -10 -39 -28 -66 -40 l-50 -21 -67 56
c-72 60 -115 71 -145 37 -31 -34 -57 -111 -64 -188 -5 -68 -4 -79 12 -90 28
-21 83 -17 163 10 49 17 72 21 72 13 0 -28 -93 -127 -175 -186 -113 -82 -221
-131 -293 -131 -78 0 -132 33 -145 91 -6 23 12 147 29 207 3 12 2 22 -2 22
-22 0 -48 -118 -52 -230 -3 -108 -2 -117 20 -150 13 -19 39 -45 58 -58 31 -21
43 -23 110 -20 107 7 194 52 357 185 22 18 57 58 79 90 35 51 39 64 43 130 l3
74 47 24 c25 13 62 40 81 60 32 33 36 44 45 120 12 97 7 120 -42 188 l-35 47
26 0 c38 0 33 27 -14 78 -22 23 -47 56 -55 72 -17 33 -24 37 -29 18z m-166
-519 c0 -5 -21 -9 -47 -9 -45 0 -46 1 -29 19 15 16 23 18 47 9 16 -5 29 -14
29 -19z"/>
<path d="M9231 4265 c-25 -67 -25 -69 -5 -100 11 -17 14 -36 10 -62 -6 -33 -1
-46 30 -93 65 -99 68 -107 45 -138 -52 -73 -190 -185 -382 -313 -112 -75 -224
-147 -249 -162 -39 -22 -187 -85 -215 -91 -50 -11 -137 -41 -142 -49 -3 -6 -2
-8 3 -4 5 3 63 10 129 17 174 17 253 34 336 74 73 34 219 128 332 213 31 23
62 43 67 43 6 0 10 5 10 10 0 6 27 39 59 74 73 79 86 101 106 196 21 97 12
176 -26 224 -23 29 -17 55 8 35 12 -10 16 -10 23 1 10 17 0 38 -39 81 -16 17
-37 47 -47 65 -10 19 -22 34 -26 34 -3 0 -16 -25 -27 -55z"/>
<path d="M10724 4276 c-3 -9 -1 -38 6 -65 10 -43 9 -55 -5 -86 -10 -19 -15
-38 -12 -41 9 -9 48 55 53 88 10 66 -24 150 -42 104z"/>
<path d="M4581 4238 c-4 -13 -11 -39 -15 -59 l-6 -36 -41 39 c-56 54 -83 50
-86 -12 -1 -25 -7 -64 -14 -88 -12 -45 -2 -92 21 -92 20 0 50 40 50 67 0 25
-1 25 -18 10 -10 -10 -22 -17 -25 -17 -11 0 -8 26 4 54 22 47 83 21 95 -40 11
-61 31 -39 42 47 5 44 13 83 16 87 4 3 16 1 27 -6 38 -24 56 20 21 51 -27 24
-61 21 -71 -5z"/>
<path d="M9491 4200 c-62 -85 -78 -169 -39 -194 24 -15 70 21 81 64 12 46 -9
65 -24 22 -7 -21 -18 -32 -30 -32 -28 0 -24 25 17 97 43 77 40 105 -5 43z"/>
<path d="M9835 4178 c-14 -29 -25 -58 -25 -64 0 -6 18 -24 40 -39 22 -15 40
-32 40 -36 0 -22 21 -6 39 29 32 64 35 95 9 119 -23 20 -61 43 -73 43 -3 0
-17 -24 -30 -52z"/>
<path d="M11309 4197 c0 -6 -2 -50 -5 -97 l-5 -85 36 -43 c21 -23 83 -72 138
-109 102 -66 235 -171 236 -186 1 -7 -73 -56 -254 -170 -183 -114 -352 -148
-405 -80 -23 29 -28 118 -9 172 6 18 9 34 6 37 -13 13 -49 -146 -49 -218 0
-139 49 -180 189 -159 90 13 172 50 300 133 54 35 128 83 165 107 59 37 68 48
74 80 3 20 10 52 15 71 15 58 11 122 -10 154 -29 44 -102 105 -211 176 -95 62
-123 89 -80 75 15 -5 20 -2 20 12 0 20 -150 150 -151 130z"/>
<path d="M10182 4098 c-24 -58 -27 -84 -12 -93 6 -3 7 -17 4 -29 -7 -29 8 -88
47 -189 l31 -79 -32 -33 c-37 -38 -127 -84 -237 -121 -70 -24 -95 -26 -233
-28 -155 -1 -155 -1 -210 29 -44 24 -62 42 -91 93 -50 86 -54 120 -25 232 28
104 17 107 -20 6 -16 -44 -26 -100 -30 -165 -6 -91 -5 -102 19 -154 37 -81
108 -148 180 -171 48 -15 80 -17 180 -13 133 5 140 6 236 38 90 30 177 77 218
119 74 74 115 248 79 334 -26 63 -22 76 24 76 54 0 53 21 -7 89 -27 30 -59 68
-73 84 l-26 29 -22 -54z"/>
<path d="M4756 4076 c-14 -25 -26 -53 -26 -64 0 -27 75 -95 88 -79 16 20 52
95 52 109 0 12 -71 78 -83 78 -3 0 -17 -20 -31 -44z"/>
<path d="M9090 3975 c-6 -17 -5 -37 5 -66 18 -50 19 -81 4 -96 -6 -6 -9 -17
-7 -24 2 -7 14 4 27 25 18 28 22 46 18 79 -14 107 -28 132 -47 82z"/>
<path d="M3385 3944 c-70 -38 -124 -114 -144 -205 -9 -39 -7 -44 19 -70 16
-16 35 -29 44 -29 12 0 10 -8 -9 -42 -25 -44 -48 -128 -36 -128 4 0 25 18 46
41 22 22 55 49 73 61 38 23 129 58 153 58 10 0 26 22 43 59 14 32 26 61 26 63
0 3 -46 5 -102 5 -74 0 -114 5 -140 17 -21 9 -38 18 -38 21 0 9 59 35 79 35
11 0 24 -8 30 -17 8 -14 14 -8 36 39 35 75 31 102 -15 105 -19 2 -48 -5 -65
-13z"/>
<path d="M11212 3884 c-9 -18 -6 -34 18 -90 34 -80 40 -175 14 -225 -8 -17
-13 -36 -11 -42 3 -7 15 11 28 38 35 77 32 189 -8 275 -27 60 -30 63 -41 44z"/>
<path d="M4235 3841 c-76 -22 -111 -40 -199 -106 -75 -55 -192 -174 -281 -285
-90 -112 -120 -135 -170 -135 -62 0 -80 20 -79 93 0 44 7 71 32 120 31 59 32
87 3 40 -47 -75 -70 -160 -71 -264 0 -66 3 -75 29 -103 24 -25 37 -31 72 -31
40 0 48 5 100 59 30 32 82 94 114 137 75 100 204 230 275 277 87 57 209 93
225 67 11 -17 23 -2 45 57 19 52 20 57 4 74 -20 23 -22 23 -99 0z"/>
<path d="M8708 3729 c-20 -34 -27 -39 -49 -35 -14 3 -48 8 -75 11 -48 5 -50 5
-71 -30 -13 -20 -26 -47 -29 -60 -5 -21 -1 -24 47 -34 30 -7 63 -14 75 -17 16
-4 27 4 49 36 31 45 33 45 113 16 24 -9 48 -14 53 -10 17 10 61 106 52 114 -9
9 -119 50 -133 50 -5 0 -20 -18 -32 -41z"/>
<path d="M7732 3661 c-18 -24 -32 -49 -33 -55 0 -6 -2 -20 -5 -31 -6 -30 5
-65 20 -65 16 0 46 32 46 49 0 8 -7 10 -20 6 -27 -9 -26 11 5 70 35 64 26 80
-13 26z"/>
<path d="M5653 3595 c-18 -21 -42 -57 -54 -81 -22 -40 -22 -43 -6 -68 22 -33
45 -33 57 0 15 37 12 46 -10 39 -30 -9 -25 11 16 66 46 63 44 101 -3 44z"/>
<path d="M8389 3570 c-1 -8 -1 -18 0 -22 2 -16 -19 -58 -29 -58 -6 0 -9 4 -5
9 3 5 1 12 -4 15 -5 3 -14 -8 -21 -24 -7 -18 -20 -30 -30 -30 -10 0 -29 -14
-42 -31 -104 -137 -165 -176 -310 -194 -37 -5 -46 -9 -41 -22 5 -13 19 -15 77
-11 118 8 187 47 263 151 19 26 43 47 52 47 10 0 39 19 65 43 38 35 46 50 46
78 0 36 -18 79 -21 49z"/>
<path d="M6725 3478 c-2 -7 -5 -24 -7 -37 -4 -32 -28 -40 -28 -10 0 29 -17 13
-22 -20 -2 -18 -10 -25 -27 -26 -13 -1 -35 -15 -48 -31 -86 -106 -91 -110
-152 -129 -46 -14 -79 -17 -141 -12 -71 4 -81 3 -78 -11 4 -21 48 -32 139 -33
99 -1 133 14 205 95 32 36 67 66 77 66 24 0 79 29 94 49 15 19 17 97 3 106 -6
3 -12 0 -15 -7z"/>
<path d="M7065 3408 c-10 -18 -25 -46 -32 -61 -12 -27 -11 -29 35 -57 26 -15
55 -36 65 -45 15 -13 21 -14 33 -4 19 16 54 83 54 104 0 13 -86 77 -123 90 -6
3 -21 -10 -32 -27z"/>
<path d="M10051 3336 c-8 -10 -9 -31 -3 -72 11 -65 2 -109 -29 -148 -26 -33
-17 -48 11 -16 42 48 63 108 56 163 -3 29 -6 60 -6 70 0 21 -13 22 -29 3z"/>
<path d="M9025 3330 c-4 -6 -9 -36 -12 -68 -7 -67 -15 -81 -74 -124 -34 -25
-40 -33 -26 -36 26 -5 83 37 107 79 23 42 39 159 22 159 -6 0 -14 -5 -17 -10z"/>
<path d="M9610 3254 c-38 -33 -60 -74 -60 -113 0 -52 39 -52 66 0 13 26 4 43
-11 19 -9 -15 -25 -12 -25 5 0 9 18 35 40 59 22 24 40 46 40 50 0 13 -20 5
-50 -20z"/>
<path d="M10871 3225 c-22 -38 -24 -38 -117 -20 -15 3 -27 -3 -36 -18 -23 -34
-41 -98 -32 -107 5 -4 37 -11 71 -15 l62 -7 17 34 c9 18 18 34 19 36 1 2 27
-6 56 -18 30 -11 57 -20 60 -20 7 0 61 121 57 125 -4 4 -125 45 -132 45 -2 0
-13 -16 -25 -35z"/>
<path d="M6786 3208 c-23 -32 -20 -38 14 -31 17 3 30 3 30 -1 0 -3 -12 -28
-26 -56 -21 -39 -23 -53 -14 -69 6 -12 13 -21 16 -21 32 0 208 130 186 138 -6
2 -35 -15 -64 -37 -65 -49 -107 -66 -114 -48 -2 7 9 37 25 66 16 30 27 60 24
68 -8 22 -60 16 -77 -9z"/>
<path d="M4324 3185 c-13 -25 -12 -30 5 -81 11 -36 11 -45 -3 -72 -20 -39 -20
-48 1 -31 20 17 43 71 43 101 0 13 -9 41 -19 63 -16 36 -18 38 -27 20z"/>
<path d="M5212 3179 c-6 -15 -6 -43 1 -76 10 -48 9 -54 -16 -90 -29 -41 -33
-53 -18 -53 5 0 23 21 41 48 29 43 31 53 28 109 -4 72 -22 101 -36 62z"/>
<path d="M6151 3080 c-12 -22 -20 -40 -17 -40 3 0 1 -12 -5 -27 -13 -34 -4
-73 16 -73 9 0 20 12 25 26 11 27 5 48 -11 39 -15 -10 -10 17 11 64 23 49 23
51 12 51 -5 0 -18 -18 -31 -40z"/>
</g>
</svg>
