<?xml version="1.0" standalone="no"?>
<!DOCTYPE svg PUBLIC "-//W3C//DTD SVG 20010904//EN"
 "http://www.w3.org/TR/2001/REC-SVG-20010904/DTD/svg10.dtd">
<svg version="1.0" xmlns="http://www.w3.org/2000/svg"
 width="55.000000pt" height="55.000000pt" viewBox="0 0 55.000000 55.000000"
 preserveAspectRatio="xMidYMid meet">
<metadata>
Created by potrace 1.16, written by Peter Selinger 2001-2019
</metadata>
<g transform="translate(0.000000,55.000000) scale(0.100000,-0.100000)"
fill="#000000" stroke="none">
<path d="M205 501 c-46 -21 -89 -62 -113 -106 -25 -46 -22 -150 7 -204 l23
-44 -46 -46 c-46 -46 -57 -71 -34 -71 7 0 33 21 59 46 l46 46 42 -21 c60 -31
119 -36 178 -17 41 14 59 15 102 5 56 -12 67 -9 58 16 -4 9 -19 15 -36 15 -16
0 -32 4 -35 9 -4 5 11 7 34 4 33 -5 40 -3 40 11 0 10 -9 16 -25 16 l-24 0 19
43 c25 55 26 136 1 187 -19 39 -19 39 3 42 11 2 22 11 24 22 3 16 -1 17 -40
12 -30 -4 -37 -3 -23 3 11 5 30 10 43 10 13 1 22 7 22 16 0 17 -45 20 -84 5
-18 -7 -37 -5 -67 5 -56 20 -126 18 -174 -4z m245 -93 c17 -22 30 -44 30 -47
0 -3 -37 -6 -82 -6 l-83 0 -3 -57 -3 -58 86 0 86 0 -21 -38 c-12 -20 -37 -48
-56 -61 l-35 -24 -34 33 c-44 43 -75 118 -54 131 11 7 12 12 2 28 -17 27 2 81
44 131 34 39 35 40 64 25 16 -9 43 -34 59 -57z m-253 15 c-31 -67 -31 -189 0
-256 l22 -48 -29 21 c-107 76 -112 222 -11 307 39 33 42 28 18 -24z"/>
</g>
</svg>
