<?xml version="1.0" standalone="no"?>
<!DOCTYPE svg PUBLIC "-//W3C//DTD SVG 1.1//EN" "http://www.w3.org/Graphics/SVG/1.1/DTD/svg11.dtd" >
<svg xmlns="http://www.w3.org/2000/svg" xmlns:xlink="http://www.w3.org/1999/xlink" version="1.1">
<metadata>
Created by FontForge 20170731 at Sun May 29 16:18:52 2022
 By Aleksey,,,
Copyright (c) Typographer Yining Chen, 2022. All rights reserved.
</metadata>
<defs>
<font id="LouisGeorgeCafe-Bold" horiz-adv-x="716" >
  <font-face 
    font-family="Louis George Cafe"
    font-weight="700"
    font-stretch="normal"
    units-per-em="1024"
    panose-1="0 0 0 0 0 0 0 0 0 0"
    ascent="819"
    descent="-205"
    x-height="479"
    cap-height="732"
    bbox="-150 -250 1345 1016"
    underline-thickness="35"
    underline-position="-153"
    unicode-range="U+000D-FB02"
  />
<missing-glyph horiz-adv-x="543" 
d="M51 102h307v528h-307v-528zM0 681h410v-630h-410v630z" />
    <glyph glyph-name=".notdef" horiz-adv-x="543" 
d="M51 102h307v528h-307v-528zM0 681h410v-630h-410v630z" />
    <glyph glyph-name=".null" horiz-adv-x="0" 
 />
    <glyph glyph-name=".null" horiz-adv-x="0" 
 />
    <glyph glyph-name="nonmarkingreturn" unicode="&#xd;" horiz-adv-x="0" 
 />
    <glyph glyph-name="space" unicode=" " horiz-adv-x="254" 
 />
    <glyph glyph-name="exclam" unicode="!" horiz-adv-x="356" 
d="M133 732h127v0q-4 -145 -15 -579l-1 -1h-96v1q-4 145 -15 579v0zM197 126q30 0 51 -26q12 -17 12 -35v-4q0 -24 -20 -44q-15 -13 -28 -16q-8 -1 -12 -1h-7q-16 0 -33 12t-24 32q-3 9 -3 17v4q0 23 19 43q20 18 45 18z" />
    <glyph glyph-name="quotedbl" unicode="&#x22;" horiz-adv-x="479" 
d="M186 750v-199q0 -1 -1 -1h-95l-1 1v199h97zM351 750v-199v-1h-96v1v199h96z" />
    <glyph glyph-name="numbersign" unicode="#" horiz-adv-x="499" 
d="M205 401l-16 -92h97l16 92h-97zM156 672q91 -16 94 -17l-27 -156h96q8 42 30 168q94 -16 95 -17q-9 -51 -27 -151h63v-98h-80l-16 -92h68v-1v-96v0h-85q-9 -49 -35 -197v0q-24 4 -95 17v0l32 180h-97q-8 -48 -33 -192l-96 16q8 44 31 176h-55h-1v96q0 1 1 1h72
q4 23 17 92h-62q0 1 -1 1v96q1 0 1 1h78q8 43 31 173h1z" />
    <glyph glyph-name="dollar" unicode="$" horiz-adv-x="572" 
d="M233 747h96v-1v-54l12 -1q52 -11 97 -43q13 -8 30 -27q20 -21 24 -29q5 -7 8 -13v0q-61 -32 -85 -46q-3 7 -19 23q-43 43 -106 43q-53 0 -90 -26q-7 -4 -17 -14q-24 -27 -24 -58q0 -27 17 -41q9 -7 17 -11q20 -12 58 -24q44 -13 111 -26q30 -8 50 -18q20 -9 41 -25
q7 -6 20 -19q24 -26 35 -57t11 -59v-5q0 -52 -31 -103q-8 -12 -23 -27q-13 -14 -25 -22q-18 -12 -35 -20q-17 -9 -40 -16q-14 -5 -36 -8v-55v-1h-96v1v56l-12 3q-57 13 -105 52q-24 21 -34 35q-18 22 -26 38q-8 12 -8 14q80 39 87 42v0q30 -60 90 -82q29 -10 60 -10
q55 0 97 28q14 11 23 24q18 26 18 54q0 42 -41 69q-10 5 -21 9q-13 6 -49 13q-100 22 -146 44q-103 48 -103 146v1q0 66 45 119q13 15 22 22q14 11 27 19q17 10 32 16q16 7 41 12h3v57v1zM233 785h96v-1v-848v-1h-96v1v848v1z" />
    <glyph glyph-name="percent" unicode="%" horiz-adv-x="832" 
d="M149 570q0 -24 23 -41q15 -10 34 -10q30 0 49 25q8 12 8 27q0 28 -30 45q-13 5 -26 5h-2q-26 0 -45 -20q-11 -13 -11 -31zM205 724q64 0 114 -44q17 -18 23 -29q23 -39 23 -80q0 -59 -42 -105q-17 -17 -28 -23q-42 -27 -86 -27h-6q-42 0 -82 24q-13 7 -28 21
q-15 15 -21 26q-25 40 -25 80v7q0 39 24 79q6 11 21 26q22 19 36 25q37 20 77 20zM624 304h4q50 0 95 -31q8 -6 22 -19q20 -23 30 -49q11 -26 11 -53v-4q0 -44 -29 -86q-5 -8 -20 -23q-22 -21 -48 -31q-30 -12 -62 -12q-60 0 -107 39q-19 17 -23 25q-30 41 -30 90
q0 58 42 104q16 16 22 19q13 10 25 15q34 16 68 16zM599 732h101v0q-118 -185 -473 -739h-2h-100v0q118 185 474 739v0zM569 149q0 -24 23 -40q16 -10 35 -10q29 0 48 24q9 13 9 28q0 27 -29 44q-14 6 -27 6h-3q-25 0 -44 -21q-12 -13 -12 -31z" />
    <glyph glyph-name="ampersand" unicode="&#x26;" horiz-adv-x="652" 
d="M257 572q0 -21 11 -36q16 -28 40 -66q6 -10 7 -10q32 18 63 42q11 9 26 24q21 22 21 38v4q0 43 -41 57q-21 10 -42 10h-1q-36 0 -65 -24q-14 -14 -16 -20q-3 -5 -3 -19zM147 160q0 -63 57 -85q17 -7 45 -7q86 0 173 65q-78 110 -138 198q-25 -16 -56 -41q-12 -10 -36 -33
q-3 -4 -9 -10q-23 -26 -30 -44q-6 -19 -6 -43zM341 732q50 0 99 -25q14 -8 27 -18q54 -46 54 -121q0 -37 -14 -64q-31 -61 -139 -124q56 -83 123 -177q2 -2 5 -6q11 12 44 46q18 -17 69 -68q-46 -47 -57 -57q15 -21 45 -62v0q-2 -4 -74 -56l-3 -1q-14 18 -41 56
q-113 -83 -230 -83q-50 0 -85 15q-71 29 -100 97q-14 36 -14 72v8q0 29 9 62q7 20 16 35q9 18 26 39q27 32 62 61q33 27 57 43q4 3 11 7q-36 56 -55 89q-16 33 -16 69v6q0 74 72 124q52 33 109 33z" />
    <glyph glyph-name="quotesingle" unicode="'" horiz-adv-x="257" 
d="M166 750v-200l-1 -1h-95q0 1 -1 1v200h97z" />
    <glyph glyph-name="parenleft" unicode="(" horiz-adv-x="392" 
d="M304 768h10q0 -1 2 -2v-94q-1 0 -2 -1h-11q-60 0 -109 -124q-31 -95 -31 -237q0 -161 65 -270q37 -54 73 -54h13l2 -2v-93q-1 0 -2 -2h-13q-110 0 -182 151q-52 120 -52 272q0 206 67 335q68 121 170 121z" />
    <glyph glyph-name="parenright" unicode=")" horiz-adv-x="392" 
d="M257 647q68 -129 68 -335q0 -152 -53 -272q-71 -151 -182 -151h-13q0 1 -1 2v93q0 1 1 2h14q36 0 72 54q65 109 65 270q0 142 -31 237q-49 124 -108 124h-12l-1 1v94l1 2h14q56 -12 85 -30q49 -30 81 -91z" />
    <glyph glyph-name="asterisk" unicode="*" horiz-adv-x="536" 
d="M218 753h96l1 -1v-112q26 9 105 37q9 -22 33 -90q-1 -1 -108 -39v0q17 -23 67 -91q-20 -14 -79 -57q-2 3 -28 39q-37 49 -39 53q-3 -4 -62 -83l-6 -9q-19 15 -78 57v1q17 22 67 90q-27 10 -107 39h-1q8 23 33 90q103 -37 105 -37v112z" />
    <glyph glyph-name="plus" unicode="+" horiz-adv-x="415" 
d="M164 207h-129v97h129v128h1h95h1v-128h128l1 -1v-95q0 -1 -1 -1h-128v-130h-97v130z" />
    <glyph glyph-name="comma" unicode="," horiz-adv-x="299" 
d="M140 123q31 0 51 -28q12 -18 12 -47q0 -78 -93 -160q-26 -24 -33 -27q-9 11 -25 33q64 59 64 106q-23 9 -33 31q-8 13 -8 29q0 31 29 52q16 11 36 11z" />
    <glyph glyph-name="hyphen" unicode="-" horiz-adv-x="432" 
d="M38 304h353v-1v-95v-1h-353v97z" />
    <glyph glyph-name="period" unicode="." horiz-adv-x="277" 
d="M139 126q30 0 50 -26q12 -17 12 -35v-4q0 -24 -19 -44q-14 -13 -29 -16q-7 -1 -11 -1h-7q-16 0 -34 12q-17 12 -23 32q-2 9 -2 17v4q0 23 19 43q18 18 44 18z" />
    <glyph glyph-name="slash" unicode="/" horiz-adv-x="357" 
d="M250 687h95h1q-62 -178 -249 -711q0 -1 -1 -1h-95l-1 1q63 177 249 711h1z" />
    <glyph glyph-name="zero" unicode="0" horiz-adv-x="706" 
d="M352 701h1q128 0 222 -117q78 -107 78 -245q0 -147 -89 -259q-92 -101 -212 -101q-125 0 -220 115q-80 109 -80 246q0 146 90 259q93 102 210 102zM149 339q0 -118 73 -203q59 -61 131 -61q93 0 159 98q45 76 45 167q0 129 -85 216q-56 49 -117 49h-3q-91 0 -156 -97
q-47 -76 -47 -169z" />
    <glyph glyph-name="one" unicode="1" horiz-adv-x="356" 
d="M248 688v-688v0h-96v0v592h-76h-1v96h173z" />
    <glyph glyph-name="two" unicode="2" horiz-adv-x="555" 
d="M272 712q74 0 128 -39q9 -6 28 -25q21 -23 32 -41q32 -58 32 -120q0 -59 -28 -105l-159 -174q-28 -31 -113 -124v-1q25 0 103 1h203l1 -1v-96h-1h-440h-1v93q39 42 155 169q25 28 100 110q18 20 73 81q10 20 10 45v3q0 39 -23 75q-5 9 -16 21q-13 12 -24 17
q-24 14 -59 14h-4q-89 0 -115 -83q-9 -29 -9 -47h-96v2q0 32 14 77q9 28 21 47q33 57 95 84q41 17 93 17z" />
    <glyph glyph-name="three" unicode="3" horiz-adv-x="570" 
d="M285 704h1q74 0 134 -47q20 -17 33 -33q11 -16 19 -31q23 -44 23 -89v-5q0 -47 -25 -94q-7 -14 -20 -29q-8 -11 -27 -28q9 -5 28 -24q21 -24 29 -39q32 -53 32 -110v-4q0 -62 -36 -119q-10 -14 -24 -29q-18 -19 -28 -24q-18 -15 -36 -23q-14 -8 -38 -16q-35 -10 -65 -10
h-13q-36 0 -81 16q-24 10 -47 25q-15 9 -32 25q-16 16 -25 29q-14 21 -21 35q-21 45 -21 89v3l1 1h95q1 0 1 -1q0 -43 31 -79q12 -13 18 -17q17 -12 29 -17q29 -12 59 -12q57 0 100 39q37 38 37 86q0 43 -29 79q-43 48 -111 48h-49v0v96v1h56q2 -1 9 -1q9 0 28 5q12 4 23 9
q9 5 23 18q32 32 32 74q0 43 -34 76q-34 31 -78 31q-48 0 -83 -36q-13 -13 -19 -26q-11 -21 -11 -49v0h-96h-1v4q0 71 48 130q18 19 26 25q18 15 37 24q46 24 98 24z" />
    <glyph glyph-name="four" unicode="4" horiz-adv-x="601" 
d="M364 501l-88 -148q-84 -141 -87 -147q-1 -1 -7 -11h153h29v306v0zM364 692h96v-1v-496h100v0v-96v0h-99v-107h-1h-96v0v106h-352v1q30 51 121 204q30 50 119 200q26 43 103 173q2 4 9 16z" />
    <glyph glyph-name="five" unicode="5" horiz-adv-x="619" 
d="M523 692l1 -1v-95q0 -1 -1 -1h-242q-8 -30 -33 -122v0q20 3 38 3h8q61 0 121 -29q21 -11 46 -28q8 -7 20 -19q23 -21 28 -29q14 -18 21 -31q34 -60 34 -128q0 -84 -53 -156q-8 -11 -28 -30q-20 -18 -38 -30q-72 -46 -154 -46h-3q-80 0 -150 44q-16 10 -36 27
q-20 19 -26 27q-18 24 -26 39q-10 17 -10 18q82 39 88 41q29 -61 95 -87q33 -12 67 -12q66 0 119 42q15 15 22 23q36 46 36 100v2q0 56 -39 103q-15 16 -22 22q-51 40 -117 40q-49 0 -95 -27q-31 -16 -91 -49q15 58 62 233q36 135 36 136q2 7 6 20h316z" />
    <glyph glyph-name="six" unicode="6" horiz-adv-x="625" 
d="M144 208q0 -65 51 -116q16 -12 17 -12q46 -33 100 -33h3q62 0 112 42q15 13 21 21q35 45 35 97q0 49 -31 93q-6 8 -21 23q-14 12 -23 17q-44 28 -92 28h-4q-56 0 -104 -35q-8 -6 -21 -19q-43 -47 -43 -106zM300 691q81 -48 83 -51q-36 -59 -109 -177q19 2 39 2
q87 0 160 -52q13 -9 31 -26q19 -20 24 -30q12 -16 22 -32q29 -56 29 -117v-1q0 -79 -47 -147q-9 -12 -28 -31q-23 -22 -36 -32q-19 -11 -31 -17q-18 -9 -33 -15q-45 -15 -85 -15h-11q-48 0 -99 21q-21 8 -43 22q-71 47 -102 126q-16 44 -16 84v9q0 56 29 113q8 14 70 115
q36 58 106 176q12 18 47 75z" />
    <glyph glyph-name="seven" unicode="7" horiz-adv-x="488" 
d="M29 692h432h1v-83q-1 -2 -26 -47q-44 -80 -133 -240q-33 -59 -131 -235q-15 -28 -61 -111v0l-84 48q27 49 109 196q25 46 101 184q27 48 107 191h-315l-1 1v96h1z" />
    <glyph glyph-name="eight" unicode="8" horiz-adv-x="587" 
d="M185 510q0 -39 31 -70q33 -30 77 -30t78 31q29 31 29 70q0 40 -31 69q-17 16 -36 24q-20 6 -38 6h-3q-41 0 -75 -29q-32 -30 -32 -71zM146 181q0 -53 43 -93q17 -14 28 -20q35 -19 76 -19q59 0 104 39q18 17 21 24q22 33 22 67v5q0 38 -27 74q-14 17 -26 25
q-43 30 -94 30q-56 0 -100 -35q-12 -10 -20 -20q-27 -35 -27 -77zM293 707q74 0 133 -47q20 -17 28 -28q29 -36 39 -80q4 -21 4 -39v-5q0 -51 -29 -100q-8 -12 -21 -27l-13 -13q13 -8 30 -24q21 -20 24 -25q12 -15 23 -34q26 -49 26 -104q0 -78 -54 -144q-14 -16 -27 -26
q-16 -13 -28 -20q-62 -39 -134 -39h-2q-79 0 -145 47q-15 9 -31 25q-16 17 -24 28q-15 20 -22 38q-21 44 -21 87v8q0 51 28 103q11 19 30 41q18 19 25 24q12 10 20 15q-17 17 -24 27q-40 53 -40 115q0 72 51 130q19 19 25 23q17 13 31 20q46 24 98 24z" />
    <glyph glyph-name="nine" unicode="9" horiz-adv-x="623" 
d="M143 448q0 -56 37 -101q13 -15 23 -23q49 -37 109 -37q62 0 111 40q13 12 22 23q35 45 35 98q0 57 -39 104q-17 16 -25 22q-47 35 -104 35q-64 0 -115 -43q-18 -18 -21 -22q-33 -44 -33 -96zM312 705q84 0 155 -48q13 -9 32 -26q21 -23 28 -32q13 -18 22 -36
q28 -55 28 -115v-2q0 -73 -44 -140q-43 -72 -131 -215q-74 -122 -77 -126v0q-20 13 -81 50v1l32 52q25 41 76 124q-20 -2 -36 -2h-8q-61 0 -121 30q-19 10 -40 25q-12 10 -28 26q-21 21 -31 38q-14 22 -23 42q-19 48 -19 93v8q0 59 32 119q10 18 27 40q11 13 28 28
q39 33 82 49q46 17 97 17z" />
    <glyph glyph-name="colon" unicode=":" horiz-adv-x="295" 
d="M155 479h4q22 0 42 -19q19 -19 19 -42v-3q0 -26 -21 -46q-19 -16 -40 -16h-4q-24 0 -44 19q-18 20 -18 42v5q0 21 18 41q20 19 44 19zM157 126q30 0 51 -26q12 -17 12 -35v-4q0 -24 -20 -44q-15 -13 -28 -16q-8 -1 -12 -1h-7q-16 0 -33 12t-24 32q-3 9 -3 17v4
q0 23 19 43q20 18 45 18z" />
    <glyph glyph-name="semicolon" unicode=";" horiz-adv-x="286" 
d="M145 479h4q23 0 43 -19q19 -19 19 -42v-3q0 -26 -21 -46q-19 -16 -41 -16h-4q-25 0 -45 22q-16 18 -16 41q0 24 18 44q20 19 43 19zM148 123q31 0 51 -28q12 -18 12 -47q0 -78 -93 -160q-26 -24 -33 -27q-9 11 -25 33q64 59 64 106q-23 9 -33 31q-8 13 -8 29q0 31 29 52
q16 11 36 11z" />
    <glyph glyph-name="less" unicode="&#x3c;" horiz-adv-x="493" 
d="M337 513v0q15 -19 59 -76q0 -1 -140 -110q-29 -23 -88 -69q24 -19 97 -77q33 -25 131 -102q-14 -19 -59 -76v0q-43 33 -170 133q-107 82 -109 84v76l144 112q34 26 135 105z" />
    <glyph glyph-name="equal" unicode="=" horiz-adv-x="420" 
d="M47 390h325v-1v-95v-1h-325v97zM47 197h325v-1v-95v-1h-325v97z" />
    <glyph glyph-name="greater" unicode="&#x3e;" horiz-adv-x="493" 
d="M291 408l144 -112v-76q-3 -2 -109 -84q-57 -45 -170 -133v0l-60 76q33 26 132 102q24 20 97 77q-22 17 -88 69q-141 109 -141 110q20 25 60 76v0q34 -26 135 -105z" />
    <glyph glyph-name="question" unicode="?" horiz-adv-x="556" 
d="M283 126q29 0 49 -23q13 -19 13 -39v-3q0 -25 -20 -45q-19 -16 -40 -16h-6q-15 0 -33 12t-25 35q-1 9 -1 16q0 29 23 49q17 14 40 14zM284 756h8q43 0 88 -20q20 -9 41 -25q11 -8 23 -21q20 -20 28 -35q36 -57 36 -123q0 -59 -33 -116q-9 -16 -23 -32q-16 -19 -29 -29
q-19 -15 -59 -43q-9 -7 -21 -18q-7 -7 -10 -13q-2 -6 -2 -13v-115v-1h-96v1q-1 28 -1 114q0 68 64 116q15 13 54 40q22 16 36 36q16 24 22 53q2 12 2 20q0 50 -35 88q-38 40 -89 40q-50 0 -88 -37q-37 -39 -37 -91v-17h-96v21q0 49 25 100q8 17 23 36q6 9 22 24q15 13 25 20
q19 13 39 23q43 17 83 17z" />
    <glyph glyph-name="at" unicode="@" horiz-adv-x="1092" 
d="M440 252v-3q0 -36 17 -67q4 -8 17 -21q22 -21 51 -21v0q37 0 70 36q34 42 34 98q0 44 -25 78q-25 32 -60 32h-1q-34 0 -64 -31q-21 -23 -31 -51q-8 -26 -8 -50zM548 732h12q92 0 183 -32q125 -47 201 -147q17 -25 31 -49q53 -99 53 -215q0 -51 -18 -117q-9 -28 -20 -49
q-11 -22 -30 -46q-17 -21 -32 -31q-55 -43 -115 -43q-29 0 -62 10q-51 17 -80 58q-10 14 -15 25q0 1 -1 3q-15 -15 -27 -23q-49 -33 -103 -33q-56 0 -104 36q-20 16 -33 33q-12 16 -18 28q-27 52 -27 111q0 73 41 137q28 41 67 66q45 27 93 27q58 0 107 -38q17 -15 26 -27
q7 -9 14 -19h1q5 15 12 32v0q23 -8 90 -34v0q-17 -43 -27 -75q-30 -87 -30 -141q0 -47 24 -64q10 -8 32 -13q12 -2 20 -2v0q32 0 65 30q16 18 25 35q9 19 14 35q6 17 9 40q5 25 5 48v2q0 119 -68 210q-31 37 -62 60q-23 17 -44 28q-90 48 -203 48h-1q-114 0 -212 -65
q-18 -13 -41 -32q-21 -21 -31 -32q-24 -29 -34 -47q-59 -92 -59 -200q0 -109 60 -204q11 -17 29 -40q9 -11 32 -33q30 -27 49 -39q42 -28 90 -44q57 -19 116 -19h4q105 0 200 59q17 -27 52 -81q-25 -16 -50 -28q-22 -11 -58 -23q-72 -24 -140 -24h-13q-72 0 -151 28
q-45 16 -81 37q-30 18 -59 42q-12 8 -44 40q-35 37 -51 63q-17 26 -31 53q-14 28 -27 66q-23 74 -23 142v10q0 83 32 168q13 32 30 62q14 25 39 58q12 15 39 43l7 7q32 29 49 40q28 20 53 34q30 16 68 30q78 25 151 25z" />
    <glyph glyph-name="A" unicode="A" 
d="M224 255h268q-33 82 -133 329q-2 0 -55 -135q-27 -65 -80 -194zM405 732q2 0 43 -108l255 -624h-2h-104q-2 0 -14 33q-17 42 -51 124h-348q-15 -39 -63 -157h-104v0q64 157 254 625q11 27 44 107h90z" />
    <glyph glyph-name="B" unicode="B" horiz-adv-x="620" 
d="M182 332v-235h166q87 0 121 63q11 21 11 53v18q0 65 -68 89q-32 14 -79 14h-149q-1 0 -2 -2zM183 636v-206h140q88 0 124 62q9 19 9 35v22q0 55 -77 80q-23 7 -64 7h-132zM88 732h241q117 0 186 -79q37 -46 37 -109v-11q0 -84 -64 -142v-1q15 -7 40 -32q48 -53 48 -119
v-36q0 -103 -93 -167q-47 -25 -59 -25q-31 -11 -89 -11h-247q-1 0 -2 1v730z" />
    <glyph glyph-name="C" unicode="C" horiz-adv-x="729" 
d="M394 732h1q141 0 248 -110q37 -43 53 -74q-4 -4 -85 -47q-14 25 -40 57q-78 78 -176 78q-99 0 -176 -79q-75 -84 -75 -190q0 -124 95 -212q72 -58 152 -58h10q88 0 164 72q33 36 47 63q28 -15 84 -44v-3q-17 -31 -45 -66q-109 -119 -256 -119q-146 0 -255 117
q-92 111 -92 247v4q0 138 93 248q108 116 253 116z" />
    <glyph glyph-name="D" unicode="D" horiz-adv-x="691" 
d="M88 732h190q132 0 239 -89q42 -39 54 -57q73 -101 73 -218v-5q0 -146 -111 -260q-61 -55 -119 -77q-67 -26 -131 -26h-195q-1 0 -2 1v729zM183 634v-538h88q128 0 212 95q65 78 65 174q0 99 -67 177q-39 42 -61 52q-20 14 -62 29q-38 12 -98 12h-76q-1 0 -1 -1z" />
    <glyph glyph-name="E" unicode="E" horiz-adv-x="534" 
d="M87 732h393v0v-96h-297v-222h235l1 -1v-94l-1 -1h-235v-222h297v-96v0h-393h-1v732h1z" />
    <glyph glyph-name="F" unicode="F" horiz-adv-x="504" 
d="M87 732h393v0v-96v0h-297v-222h241v-96h-241v-318h-1h-95h-1v732h1z" />
    <glyph glyph-name="G" unicode="G" horiz-adv-x="805" 
d="M396 732h2q139 0 246 -105q38 -40 57 -76q2 -4 6 -11q-72 -39 -86 -44q-13 25 -37 54q-32 33 -47 41q-65 45 -139 45q-115 0 -198 -99q-59 -78 -59 -170q0 -119 91 -206q73 -64 166 -64q106 0 186 85q47 55 60 117h-184v1v93v1v1q50 0 200 1h90q0 -1 2 -2
q-4 -77 -10 -101q-17 -77 -50 -128q-64 -101 -179 -145q-59 -20 -116 -20q-129 0 -234 93q-118 115 -118 272v3q0 155 116 271q28 24 35 28q92 65 200 65z" />
    <glyph glyph-name="H" unicode="H" horiz-adv-x="682" 
d="M88 732h93l1 -1v-316h317v316l1 1h95l1 -1v-730l-1 -1h-94l-1 1v316h-318v-316l-1 -1h-93q-1 0 -2 1v730z" />
    <glyph glyph-name="I" unicode="I" horiz-adv-x="268" 
d="M87 732h95h1v-732h-1h-95h-1v732h1z" />
    <glyph glyph-name="J" unicode="J" horiz-adv-x="568" 
d="M388 732h96v-514q0 -50 -28 -102q-9 -17 -24 -36q-20 -23 -33 -32q-22 -17 -41 -27q-46 -21 -89 -21h-51q-47 0 -96 25q-18 10 -38 26q-9 8 -22 21q-19 23 -27 37q-7 11 -16 33q-15 39 -15 75v39v0h96v0v-35q0 -45 33 -84q15 -14 22 -18q32 -23 67 -23h44q38 0 72 27
q15 13 23 24q26 35 26 76v509h1z" />
    <glyph glyph-name="K" unicode="K" horiz-adv-x="664" 
d="M88 732h93l1 -1v-376q9 9 325 375l2 2h126l1 -1q-76 -88 -304 -351q77 -95 308 -379v-1h-128q-61 77 -244 305q-22 -25 -86 -99v-205l-1 -1h-93q-1 0 -2 1v730z" />
    <glyph glyph-name="L" unicode="L" horiz-adv-x="509" 
d="M87 732h95h1v-636h317v0v-96v0h-413h-1v732h1z" />
    <glyph glyph-name="M" unicode="M" horiz-adv-x="940" 
d="M88 732h116q4 -3 131 -289q45 -100 134 -300h2q66 147 264 589h117q1 0 2 -1v-730l-2 -1h-99l-1 1v534h-1q-59 -133 -238 -532q-1 -1 -2 -3h-82q-1 0 -15 32q-75 168 -225 503h-1v-534l-1 -1h-99q-1 0 -2 1v730z" />
    <glyph glyph-name="N" unicode="N" horiz-adv-x="758" 
d="M88 732h104q87 -131 351 -523q8 -12 32 -49v0v571l1 1h95l1 -1v-730l-1 -1h-104q-27 38 -200 298q-62 91 -185 274v-571l-1 -1h-93q-1 0 -2 1v730z" />
    <glyph glyph-name="O" unicode="O" horiz-adv-x="799" 
d="M400 732h2q145 0 254 -113q97 -111 97 -253q0 -155 -114 -270q-107 -96 -237 -96q-131 0 -236 93q-46 48 -60 75q-57 91 -57 197v3q0 155 116 271q12 9 34 27q93 66 201 66zM145 367q0 -119 91 -206q73 -64 166 -64q120 0 202 106q52 76 52 159v6q0 103 -71 185
q-80 83 -183 83q-115 0 -198 -99q-59 -78 -59 -170z" />
    <glyph glyph-name="P" unicode="P" horiz-adv-x="613" 
d="M88 732h240q116 0 197 -87q58 -70 58 -154q0 -109 -92 -187q-73 -54 -164 -54h-145v-249l-1 -1h-93q-1 0 -2 1v730zM182 635v-288h151q72 0 124 60q29 40 29 81v7q0 65 -63 112q-39 29 -108 29h-131q-1 0 -2 -1z" />
    <glyph glyph-name="Q" unicode="Q" horiz-adv-x="787" 
d="M144 375q0 -116 88 -202q72 -62 162 -62q67 0 128 37v0q-14 14 -57 56q16 17 66 68q15 -14 61 -58q51 73 51 156v6q0 101 -70 181q-78 81 -179 81q-113 0 -194 -96q-56 -78 -56 -167zM393 732h1q142 0 249 -111q95 -109 95 -247q0 -125 -78 -226q27 -27 82 -80v-1
q-16 -17 -66 -67q-21 20 -84 81q-92 -65 -198 -65q-128 0 -230 92q-46 47 -60 72q-55 89 -55 193v3q0 151 114 264q11 9 33 28q91 64 197 64z" />
    <glyph glyph-name="R" unicode="R" horiz-adv-x="607" 
d="M88 732h240q116 0 197 -87q58 -70 58 -154q0 -103 -83 -178q-44 -36 -77 -46q0 -3 97 -170q19 -32 56 -96v-1h-114q-2 0 -27 48q-107 187 -114 202h-139v-249l-1 -1h-93q-1 0 -2 1v730zM182 635v-288h151q72 0 124 60q29 40 29 81v7q0 65 -63 112q-39 29 -108 29h-131
q-1 0 -2 -1z" />
    <glyph glyph-name="S" unicode="S" horiz-adv-x="564" 
d="M284 740h9q57 0 112 -27q18 -9 35 -22q8 -6 27 -23q19 -21 28 -34q7 -11 13 -22q-29 -14 -87 -43q-4 9 -19 26q-46 49 -114 49q-67 0 -108 -40q-16 -16 -20 -27q-12 -22 -12 -47v-3q0 -35 25 -54q12 -9 23 -14q25 -15 76 -29q39 -11 92 -22q30 -9 50 -19q19 -9 41 -25
q18 -16 32 -33q40 -54 40 -119v-2q0 -64 -39 -122q-7 -10 -24 -28q-23 -21 -37 -30q-16 -10 -35 -18q-53 -22 -109 -22q-87 0 -159 51q-12 10 -27 23q-20 20 -28 31q-15 21 -24 37q-9 17 -9 20q29 14 87 41q8 -18 22 -37q7 -9 20 -23q19 -17 31 -24q41 -22 85 -22h4
q44 0 85 22q11 7 23 17q14 14 20 25q17 29 17 61q0 51 -43 81q-12 8 -23 12q-17 8 -54 15q-105 24 -153 49q-106 53 -106 159q0 72 46 129q15 19 32 32q21 15 36 23q18 9 42 17q38 11 77 11z" />
    <glyph glyph-name="T" unicode="T" horiz-adv-x="501" 
d="M8 732h485v0v-96v0h-194v-636v0h-96h-1v636h-194v0v96v0z" />
    <glyph glyph-name="U" unicode="U" horiz-adv-x="743" 
d="M87 732h93l1 -1v-446q0 -81 27 -119q25 -43 84 -63q23 -6 44 -6h71q85 0 133 78q21 41 21 97v459l2 1h93q1 0 2 -1v-435q0 -87 -15 -125q-31 -87 -100 -132q-61 -39 -147 -39h-48q-115 0 -184 68q-31 31 -47 61q-32 64 -32 137v465z" />
    <glyph glyph-name="V" unicode="V" horiz-adv-x="727" 
d="M17 732h108q2 -1 46 -112q64 -157 192 -472h1q58 144 233 576q3 8 4 8h107h1v0q-74 -180 -296 -717q-4 -15 -6 -15h-87q-3 0 -10 21q-208 502 -219 533q-6 10 -74 178v0z" />
    <glyph glyph-name="W" unicode="W" horiz-adv-x="1032" 
d="M135 732q2 0 9 -32q9 -27 131 -468q5 -15 13 -47h1q45 128 180 509q12 36 15 38h65q2 0 12 -33q61 -171 183 -514v0q38 137 152 547h1h103h1v0q-50 -178 -202 -709q-6 -23 -7 -23h-84q-3 3 -60 167q-14 37 -131 370q-4 -5 -18 -48l-174 -489h-84q-1 0 -13 44
q-66 229 -197 688v0h104z" />
    <glyph glyph-name="X" unicode="X" horiz-adv-x="735" 
d="M164 732q51 -71 203 -283q19 25 202 283h1h123v-1q-64 -89 -257 -353q68 -94 274 -377v-1h-122q-5 5 -163 227q-56 77 -57 80v0q-56 -77 -221 -307h-122l-1 1q66 91 266 364q2 3 9 12q-64 89 -258 355v0h123z" />
    <glyph glyph-name="Y" unicode="Y" horiz-adv-x="680" 
d="M15 732h122q6 -5 102 -140q34 -48 102 -143q193 271 203 283h123v0q-69 -95 -275 -379v-352l-1 -1h-99q-1 0 -2 1v351q0 3 -33 47q-80 111 -242 333v0z" />
    <glyph glyph-name="Z" unicode="Z" horiz-adv-x="643" 
d="M80 732h541v-1q-103 -159 -413 -634h411l1 -1v-95l-1 -1h-590v1q104 159 415 635h-364v1v94v1z" />
    <glyph glyph-name="bracketleft" unicode="[" horiz-adv-x="413" 
d="M96 757h207h1v-96h-1h-111v-650h111h1v-96h-1h-207h-1v842h1z" />
    <glyph glyph-name="backslash" unicode="\" horiz-adv-x="357" 
d="M97 687q62 -178 249 -711q0 -1 -1 -1h-95l-1 1q-62 177 -249 711h1h95h1z" />
    <glyph glyph-name="bracketright" unicode="]" horiz-adv-x="413" 
d="M319 757v-842h-1h-207h-1v96h1h111v650h-111h-1v96h1h207h1z" />
    <glyph glyph-name="asciicircum" unicode="^" horiz-adv-x="504" 
d="M215 700h74q2 -2 23 -35q12 -19 94 -145q21 -33 64 -99q-20 -13 -81 -53h-1q-22 35 -88 137q-12 19 -48 75q-33 -51 -131 -202q-1 -2 -6 -10q-79 51 -81 53q44 67 131 203q48 74 50 76z" />
    <glyph glyph-name="underscore" unicode="_" horiz-adv-x="545" 
d="M35 4h474q0 -1 1 -1v-95q0 -1 -1 -1h-474v97z" />
    <glyph glyph-name="grave" unicode="`" horiz-adv-x="484" 
d="M172 1016q47 -29 191 -117v-1q-12 -20 -50 -81l-1 -1q-47 30 -191 118q13 21 51 82z" />
    <glyph glyph-name="a" unicode="a" horiz-adv-x="605" 
d="M291 487q83 0 142 -64v55q1 0 2 1h94q1 0 2 -1v-477q-1 0 -2 -1h-94l-2 1v48q-56 -61 -144 -61v0q-109 0 -186 88q-57 72 -57 161v0q0 111 85 191q70 59 160 59zM143 237q0 -78 68 -129q37 -23 72 -23h10q48 0 94 39q46 48 46 113v0q0 80 -68 130q-37 22 -73 22h-8
q-60 0 -109 -55q-32 -46 -32 -97z" />
    <glyph glyph-name="b" unicode="b" horiz-adv-x="608" 
d="M173 238v-2q0 -49 30 -91q6 -9 18 -21q3 -3 9 -8q16 -12 27 -17q31 -15 61 -15q61 0 106 48q17 20 25 38q15 32 15 66v2q0 57 -37 102q-46 50 -111 50q-28 0 -62 -16q-15 -7 -30 -21q-14 -13 -17 -18q-34 -43 -34 -97zM77 732h95h1v-309v0q8 9 21 20q54 44 125 44v0
q81 0 149 -53q8 -7 26 -25q34 -39 50 -79q17 -45 17 -93q0 -64 -31 -121q-10 -20 -28 -42q-19 -22 -31 -31q-15 -11 -27 -19q-59 -36 -123 -36h-6q-27 0 -65 11q-19 6 -34 15q-12 7 -27 19q-8 8 -16 17v-50h-97v732h1z" />
    <glyph glyph-name="c" unicode="c" horiz-adv-x="521" 
d="M287 487h1q75 0 140 -47q12 -8 27 -23q18 -19 25 -29q7 -9 7 -11q-27 -17 -80 -53v0q-6 9 -20 24q-44 42 -100 42q-54 0 -97 -39q-16 -16 -19 -23q-30 -41 -30 -91q0 -54 35 -98q11 -14 23 -23q40 -32 89 -32q44 0 81 28q9 5 24 20q8 10 15 20v0q20 -14 80 -53
q-8 -14 -23 -31q-17 -18 -24 -23q-16 -13 -28 -21q-60 -36 -124 -36h-4q-69 0 -130 40q-12 9 -23 17q-18 17 -27 28q-20 24 -29 41q-9 16 -18 42q-13 41 -13 77v8q0 56 27 112q9 16 20 32q8 12 25 31q20 19 35 28q63 43 135 43z" />
    <glyph glyph-name="d" unicode="d" horiz-adv-x="608" 
d="M403 335q-4 5 -18 18q-15 14 -30 21q-34 16 -63 16q-64 0 -109 -50q-38 -45 -38 -102v-2q0 -34 15 -66q8 -18 25 -38q45 -48 106 -48q30 0 61 15q11 5 27 17q3 3 9 8q12 12 19 21q29 42 29 91v2q-8 24 -33 97zM532 732v-732h-96v50q-8 -9 -16 -17q-16 -12 -27 -19
q-15 -9 -34 -15q-38 -11 -64 -11h-7q-64 0 -124 36q-12 8 -25 19q-12 9 -32 31q-18 22 -28 42q-31 57 -31 121q0 48 17 93q15 40 50 79q17 18 26 25q68 53 149 53h1q69 0 124 -44q13 -11 21 -20v0v309v0h96v0z" />
    <glyph glyph-name="e" unicode="e" horiz-adv-x="533" 
d="M141 299h243v1q-8 25 -39 57q-38 33 -83 33q-69 0 -113 -73q-2 -6 -8 -18zM256 487h14q73 0 141 -59q33 -32 45 -56q36 -64 36 -135v-15q0 -14 -1 -14h-359q12 -53 39 -80q40 -44 92 -44q65 0 109 66q8 17 9 17q87 -39 87 -40q-7 -18 -31 -52q-73 -87 -173 -87h-3
q-102 0 -177 92q-51 71 -51 156v2q0 117 90 198q66 51 133 51z" />
    <glyph glyph-name="f" unicode="f" horiz-adv-x="324" 
d="M310 732h29v0v-96v-1h-26q-64 0 -93 -60q-17 -37 -17 -96h136v0v-96v0h-136v-383v0h-96v383h-93h-1v96h1h93v2q0 131 72 199q26 25 54 36q39 16 77 16z" />
    <glyph glyph-name="g" unicode="g" horiz-adv-x="586" 
d="M161 302q0 -33 31 -59q34 -26 76 -26h3q37 0 69 21q26 18 36 45q3 10 3 19q0 34 -32 59q-34 26 -78 26q-42 0 -76 -25q-32 -26 -32 -60zM144 -49v-2q0 -22 33 -42q44 -26 108 -26h6q56 0 100 23q10 6 21 16q19 19 19 35q0 22 -33 38q-11 5 -29 9q-29 6 -51 6
q-19 -1 -56 -1q-38 0 -70 5q-9 -5 -20 -12q-28 -23 -28 -49zM467 486h18q1 0 1 -1v-96h-1h-21q-7 0 -12 -2q23 -40 23 -85q0 -54 -34 -99q-5 -8 -22 -26q-31 -28 -64 -40q-42 -16 -86 -16q-45 0 -89 18q-10 -8 -10 -14v0q0 -13 36 -18q25 -3 63 -3h43q97 0 155 -39
q9 -5 24 -20q13 -14 20 -27q17 -31 17 -63q0 -50 -39 -94q-17 -18 -25 -24q-18 -13 -32 -20q-12 -6 -29 -13q-15 -5 -36 -11q-39 -9 -72 -9h-15q-57 0 -112 20q-24 9 -41 20q-13 7 -28 20q-19 17 -22 23q-10 13 -14 24q-15 29 -15 56v8q0 17 8 41q6 16 16 31q5 9 19 22l9 9
q-15 22 -15 47v3q0 33 28 77q-19 21 -25 32q-5 7 -13 27q-11 29 -11 55v6q0 46 29 90q7 10 18 22q18 19 25 23q17 13 38 23q46 20 93 20h5q57 0 109 -28q11 10 19 14q29 17 67 17z" />
    <glyph glyph-name="h" unicode="h" horiz-adv-x="577" 
d="M76 732h97v-284v0q26 14 67 26q22 5 54 5h5q129 0 185 -98q19 -38 19 -90v-290l-1 -1h-94l-1 1v291q0 61 -51 81q-22 10 -56 10h-8q-60 0 -86 -19q-33 -20 -33 -75v-289h-97v732z" />
    <glyph glyph-name="i" unicode="i" horiz-adv-x="259" 
d="M178 479v-479h-1h-96v0v479h97zM128 732h4q21 0 41 -17q19 -20 19 -44v-3q0 -23 -16 -43q-20 -19 -45 -19h-3q-23 0 -42 18q-10 11 -14 19q-5 13 -5 24v4q0 23 18 43q2 2 7 6q18 12 36 12z" />
    <glyph glyph-name="j" unicode="j" horiz-adv-x="272" 
d="M140 732h5q23 0 44 -20q13 -16 15 -31q1 -4 1 -9v-7q0 -16 -12 -34q-9 -11 -13 -14q-18 -11 -36 -11h-4q-20 0 -37 14q-23 20 -23 48q0 32 27 53q17 11 33 11zM95 480h96v-1v-424q0 -75 -16 -124q-22 -66 -65 -103q-14 -12 -25 -17q-44 -27 -95 -27h-11v97q66 0 95 58
q21 44 21 105v436z" />
    <glyph glyph-name="k" unicode="k" horiz-adv-x="536" 
d="M78 732h94l1 -1v-446v0q52 48 205 194h139v0q-55 -53 -221 -211l212 -268h-1h-121q-13 14 -159 201h-1q-44 -41 -53 -50v-150l-1 -1h-94l-2 1v730q1 0 2 1z" />
    <glyph glyph-name="l" unicode="l" horiz-adv-x="249" 
d="M77 732h95h1v-732h-1h-95h-1v732h1z" />
    <glyph glyph-name="m" unicode="m" horiz-adv-x="907" 
d="M294 479h5q97 0 156 -59q57 59 157 59h16q132 0 187 -99q17 -40 17 -77v-302v-1h-95l-1 1v300q0 55 -60 75q-18 7 -47 7h-19q-78 0 -101 -52q-6 -15 -6 -32v-298l-1 -1h-94l-1 1v290q0 53 -35 73q-26 19 -72 19h-8q-60 0 -86 -19q-33 -20 -33 -75v-288l-1 -1h-94l-2 1
v474q1 0 2 1h94l1 -1v-27v0q26 14 67 26q22 5 54 5z" />
    <glyph glyph-name="n" unicode="n" horiz-adv-x="577" 
d="M294 479h5q129 0 185 -98q19 -38 19 -90v-290l-1 -1h-94l-1 1v291q0 61 -51 81q-22 10 -56 10h-8q-60 0 -86 -19q-33 -20 -33 -75v-288l-1 -1h-94l-2 1v474q1 0 2 1h94l1 -1v-27v0q26 14 67 26q22 5 54 5z" />
    <glyph glyph-name="o" unicode="o" horiz-adv-x="575" 
d="M141 236q0 -54 36 -99q15 -17 24 -22q39 -31 86 -31q57 0 101 44q17 18 24 32q21 36 21 76v1q0 58 -40 104q-17 18 -22 20q-9 7 -16 11q-33 18 -68 18q-53 0 -97 -39q-15 -16 -19 -23q-30 -41 -30 -92zM287 487q81 0 149 -53q9 -7 27 -25q34 -38 49 -79q17 -45 17 -94
q0 -63 -30 -120q-11 -20 -28 -42q-20 -22 -32 -31q-14 -11 -26 -19q-59 -36 -124 -36h-4q-68 0 -130 40q-12 9 -22 17q-20 16 -28 28q-10 12 -20 26q-9 16 -17 31q-23 52 -23 103v8q0 56 28 112q8 16 19 32q8 12 25 31q25 22 35 28q62 43 135 43z" />
    <glyph glyph-name="p" unicode="p" horiz-adv-x="608" 
d="M173 247v-20t7 -41q7 -17 13 -30q8 -11 22 -27q16 -15 21 -18l21 -14q32 -13 57 -13h6q45 0 84 30q8 5 20 18q24 28 33 59q7 22 7 46q0 57 -37 102q-16 17 -20 19q-40 31 -88 31h-4q-27 0 -59 -13q-15 -8 -34 -24q-18 -19 -22 -26q-8 -11 -12 -21q-4 -9 -10 -25
q-5 -23 -5 -33zM314 486q73 0 130 -35q16 -10 37 -30q19 -18 24 -25q12 -16 22 -31q33 -60 33 -129q0 -83 -51 -152q-6 -10 -25 -31q-3 -2 -9 -7q-71 -58 -157 -58q-63 0 -114 36q-9 6 -26 21q-2 2 -5 6v-267h-96q0 1 -1 1v691l1 1h96v-53q18 20 23 22q15 11 25 18
q16 8 31 12q12 4 40 9q9 0 22 1z" />
    <glyph glyph-name="q" unicode="q" horiz-adv-x="608" 
d="M431 280q-6 16 -11 25q-4 10 -12 21q-4 7 -21 26q-19 16 -35 24q-32 13 -58 13h-4q-49 0 -89 -31q-3 -2 -19 -19q-38 -45 -38 -102q0 -24 8 -46q8 -31 32 -59q13 -13 20 -18q40 -30 84 -30h7q25 0 56 13l21 14q6 3 21 18q15 16 22 27q7 13 13 30q8 26 8 41v20q-2 8 -5 33
zM316 485q28 -5 40 -9q16 -4 31 -12q11 -7 26 -18q4 -2 23 -22v53h96v-1v-691v-1h-96v267q-2 -1 -5 -6q-17 -15 -27 -21q-51 -36 -113 -36q-87 0 -157 58q-3 3 -9 7q-20 21 -26 31q-51 69 -51 152q0 69 34 129q10 15 22 31q4 7 23 25q22 20 37 30q58 35 131 35q12 -1 21 -1z
" />
    <glyph glyph-name="r" unicode="r" horiz-adv-x="418" 
d="M285 482h13q50 0 102 -29v-1q-20 -95 -23 -99q-48 31 -85 31h-8q-48 0 -84 -35q-28 -33 -28 -127v-220v-2h-94q0 1 -2 2v470h2h94v0v-36q56 46 113 46z" />
    <glyph glyph-name="s" unicode="s" horiz-adv-x="492" 
d="M249 507q92 0 156 -58q15 -13 20 -21q2 -4 7 -10q-1 -2 -28 -17q-25 -16 -54 -34q-9 10 -18 17q-33 25 -81 25h-3q-52 0 -84 -25q-17 -15 -17 -32q0 -11 9 -17q10 -8 37 -18q39 -12 119 -26q25 -6 44 -14q17 -7 35 -19q8 -6 22 -20q37 -40 37 -90v-1q0 -51 -38 -96
q-16 -16 -23 -20q-20 -15 -33 -20q-51 -23 -108 -23h-4q-75 0 -137 39q-14 9 -29 24q-14 13 -20 21q-10 13 -18 27l84 48v0q1 -2 4 -7q6 -9 18 -20q22 -21 56 -31q22 -5 44 -5q44 0 78 20q7 4 16 12q13 16 13 32q0 27 -42 43q-14 5 -51 11q-81 15 -120 33q-17 6 -34 17
q-38 25 -50 63q-6 17 -6 36v3q0 47 35 89q15 16 22 20q17 13 32 20q50 24 110 24z" />
    <glyph glyph-name="t" unicode="t" horiz-adv-x="359" 
d="M88 732h96v0v-252h124l1 -1v-96h-1h-124v-242q0 -28 20 -37q12 -8 27 -8q19 0 55 13q1 1 4 3q9 -23 36 -91q-12 -5 -39 -13q-32 -8 -56 -8h-1q-47 0 -89 29q-7 5 -18 16q-3 4 -9 11q-8 11 -13 20q-13 31 -13 61v246h-71h-1v96q1 0 1 1h71v252z" />
    <glyph glyph-name="u" unicode="u" horiz-adv-x="576" 
d="M283 0h-4q-130 0 -186 97q-19 39 -19 91v289q0 1 2 2h93l2 -2v-290q0 -62 50 -81q22 -10 55 -10h8q61 0 87 20q33 20 33 73v288q1 1 1 2h95v-2v-473v-1h-95l-1 1v32v0q-26 -19 -67 -31q-22 -5 -54 -5z" />
    <glyph glyph-name="v" unicode="v" horiz-adv-x="551" 
d="M128 479q1 -3 21 -50q30 -69 91 -207l36 -80q17 41 70 162q19 44 77 175h111l-108 -240q-17 -38 -69 -152q-9 -22 -38 -87h-87l-15 33q-30 68 -91 203q-24 54 -98 217q-2 6 -11 26h111z" />
    <glyph glyph-name="w" unicode="w" horiz-adv-x="754" 
d="M133 479l12 -35q26 -79 79 -238q3 -10 13 -40q18 57 71 227q7 22 27 86h85l3 -8q22 -73 67 -217q7 -22 27 -88q1 0 12 35q26 78 78 235q4 11 14 43h107v0q-20 -59 -80 -234q-18 -53 -73 -215q-3 -7 -11 -30h-96l-4 14q-21 66 -40 129q-16 49 -46 147h-1q-17 -54 -68 -218
q-5 -18 -22 -72h-96q-1 0 -10 27q-23 69 -70 206q-19 56 -76 222l-8 24h106z" />
    <glyph glyph-name="x" unicode="x" horiz-adv-x="593" 
d="M168 479q4 -5 64 -79q21 -27 64 -80q32 40 128 159h129v0q-41 -50 -165 -200q-6 -6 -21 -25q25 -31 101 -126q26 -32 103 -128h-128l-32 40q-29 37 -115 148l-148 -188h-128v0q41 50 161 200q11 13 43 54q-28 34 -112 137q-19 22 -73 88h129z" />
    <glyph glyph-name="y" unicode="y" horiz-adv-x="560" 
d="M128 479l4 -10q24 -56 71 -169q19 -44 77 -179q1 3 21 50q22 51 67 152l68 156h106q-27 -61 -107 -244q-22 -52 -90 -205q-23 -53 -92 -211q-4 -9 -15 -35h-106v1q24 54 95 215q-24 56 -98 224q-25 57 -100 227l-12 28h111z" />
    <glyph glyph-name="z" unicode="z" horiz-adv-x="541" 
d="M68 479h431l1 -2q-67 -95 -269 -381h261q1 0 2 -1v-94l-2 -1h-448v0q68 96 270 383h-246v1v93v2z" />
    <glyph glyph-name="braceleft" unicode="{" horiz-adv-x="424" 
d="M309 772h22l1 -1v-95v-1h-1q-6 0 -24 1q-59 -3 -67 -33q-3 -8 -3 -20v-233q0 -37 -30 -74q30 -37 30 -74v-233q0 -34 28 -45q24 -8 42 -8q8 0 25 1v-1v-95v-1h-24q-80 0 -129 48q-38 40 -38 101v231q0 12 -26 28q-12 5 -37 16v64q0 2 36 16q27 16 27 28v230q0 94 83 133
q39 17 85 17z" />
    <glyph glyph-name="bar" unicode="|" horiz-adv-x="247" 
d="M76 700h95h1v-699q-1 0 -1 -1h-95l-1 1v699h1z" />
    <glyph glyph-name="braceright" unicode="}" horiz-adv-x="424" 
d="M200 755q83 -39 83 -133v-230q0 -12 27 -28q36 -14 36 -16v-64q-9 -4 -37 -16q-26 -16 -26 -28v-231q0 -61 -38 -101q-49 -48 -129 -48h-24v1v95v1q7 0 25 -1q18 0 42 8q28 11 28 45v233q0 37 30 74q-30 37 -30 74v233q0 12 -3 20q-8 30 -67 33q-8 0 -24 -1h-1v1v95l1 1
h22q21 -4 85 -17z" />
    <glyph glyph-name="asciitilde" unicode="~" horiz-adv-x="650" 
d="M537 346q-24 -15 -48 -26q-36 -15 -70 -15q-37 0 -109 30q-73 29 -109 29q-32 0 -66 -17q-23 -11 -51 -38v102q24 21 48 31q36 16 69 16q39 0 112 -30q72 -30 106 -30q32 0 66 17q23 11 52 38v-107z" />
    <glyph glyph-name="nonbreakingspace" unicode="&#xa0;" horiz-adv-x="254" 
 />
    <glyph glyph-name="exclamdown" unicode="&#xa1;" horiz-adv-x="356" 
d="M260 0h-127v0q4 145 15 579v1h96l1 -1q4 -145 15 -579v0zM196 606q-30 0 -51 26q-12 17 -12 35v4q0 24 20 44q15 13 28 16q8 1 12 1h7q16 0 33 -12q18 -12 24 -32q3 -9 3 -17v-4q0 -23 -20 -43q-19 -18 -44 -18z" />
    <glyph glyph-name="cent" unicode="&#xa2;" horiz-adv-x="521" 
d="M219 612v79v1h96v-1v-71q60 -7 113 -44q12 -9 27 -24q18 -19 25 -28q7 -11 7 -12q-27 -17 -80 -52v0q-6 8 -20 23q-32 31 -72 39v-299q29 5 54 24q9 5 24 20q8 10 15 20v0q20 -14 80 -54q-8 -13 -23 -29q-17 -19 -24 -24q-16 -13 -28 -21q-48 -29 -98 -35v-71v-1h-96v1
v80q-34 10 -64 31q-12 8 -23 16q-18 17 -27 28q-20 24 -29 41q-9 16 -18 43q-13 40 -13 76v8q0 56 27 112q9 16 20 32q8 12 25 31q20 18 35 29q32 21 67 32zM219 237v270q-15 -8 -29 -21q-16 -16 -19 -23q-30 -41 -30 -91q0 -54 35 -99q11 -13 23 -22q9 -8 20 -14z" />
    <glyph glyph-name="sterling" unicode="&#xa3;" horiz-adv-x="648" 
d="M352 712h7q53 0 108 -29q17 -10 37 -26l5 -5q-16 -17 -66 -69q-20 17 -47 25q-21 7 -41 7q-39 0 -75 -25q-24 -15 -31 -34q-5 -13 -5 -31v-2q0 -34 23 -79q15 -29 18 -37h166v-97h-143q0 -42 -24 -92q-11 -20 -28 -44q-9 -13 -19 -25q31 -3 52 -13q16 -7 34 -18
q9 -7 21 -18q37 -29 72 -29q52 0 113 62q23 -23 69 -68q-25 -25 -36 -33q-23 -19 -48 -32q-50 -25 -94 -25h-7q-45 0 -94 26q-18 10 -39 27q-16 15 -25 17q-17 8 -39 8v0q-49 0 -116 -37q-5 -3 -15 -10q-15 19 -58 77q8 7 34 29t59 53q33 34 44 48q18 23 27 38q21 36 21 59
h-109v96l1 1h73q-30 61 -30 118q0 67 43 115q16 17 22 20q20 16 33 23q54 29 107 29z" />
    <glyph glyph-name="currency" unicode="&#xa4;" horiz-adv-x="718" 
d="M128 380q0 -68 43 -126q8 -11 24 -27q21 -20 32 -26q16 -10 34 -18q48 -22 99 -22q70 0 131 39q43 28 70 72q31 52 31 108q0 74 -51 136q-19 21 -31 31q-22 16 -38 24q-52 28 -112 28q-71 0 -131 -39q-62 -40 -89 -109q-12 -35 -12 -71zM356 695h8q72 0 143 -33
q24 -12 45 -26q0 -1 1 -1q13 13 54 53l68 -68v-1l-51 -51q16 -21 28 -43q36 -69 36 -144v-2q0 -91 -53 -172q-8 -10 -8 -11q16 -15 48 -47q-17 -17 -68 -69q-12 12 -49 48q-90 -63 -198 -63q-100 0 -185 55q-5 3 -14 8l-48 -48q-23 23 -68 69l47 47q-12 18 -23 36
q-11 20 -21 49q-16 50 -16 95v8q0 66 32 132q10 22 28 48q2 1 4 4q-12 13 -51 52l68 68q13 -13 54 -53q18 13 38 24q23 11 56 21q48 15 95 15z" />
    <glyph glyph-name="yen" unicode="&#xa5;" horiz-adv-x="628" 
d="M104 695q29 -33 116 -131q24 -27 95 -106q38 43 152 171q14 16 58 66q71 -63 73 -64q-44 -50 -134 -150q-25 -29 -101 -114v-13h166v-97h-1h-165v-21h165h1v-95l-1 -1h-165v-139h-97v139h-165q0 1 -1 1v95h1h165v21h-165h-1v97h166v13q-38 42 -150 169q-21 24 -84 95v0
q3 4 72 64z" />
    <glyph glyph-name="brokenbar" unicode="&#xa6;" horiz-adv-x="296" 
d="M196 750v-325v0h-96v0v325h96zM196 75v-324v-1h-96v1v324h96z" />
    <glyph glyph-name="section" unicode="&#xa7;" horiz-adv-x="477" 
d="M238 434q-30 0 -55 -19q-27 -22 -27 -51q0 -27 24 -48q26 -21 60 -21q40 0 68 26q6 8 9 14q8 14 8 29q0 30 -29 52q-25 18 -53 18h-5zM240 744h8q48 0 93 -27q15 -9 30 -22q18 -19 23 -27q9 -12 13 -21q-29 -15 -86 -44h-1q-12 25 -40 37q-17 7 -36 7q-33 0 -57 -15
q-7 -3 -14 -12q-10 -12 -10 -26v-3q0 -18 20 -30q12 -9 38 -18q25 -9 70 -19q18 -5 33 -12q16 -8 35 -21q20 -16 32 -32q31 -44 31 -95v0q0 -63 -47 -112l-12 -12q16 -12 29 -29q23 -34 23 -72v-5q0 -41 -26 -78q-5 -8 -18 -23q-16 -13 -26 -19q-12 -7 -31 -15
q-37 -14 -77 -14h-1q-76 0 -132 54q-15 17 -20 25q-7 10 -11 18q72 37 87 43q12 -24 41 -37q17 -7 36 -7q30 0 55 14q26 16 26 41q0 16 -11 25q-12 11 -29 18q-26 12 -78 22q-16 4 -29 9q-21 9 -38 20q-12 7 -28 23q-17 19 -25 33q-21 38 -21 75v7q0 40 25 81q7 11 23 28
q4 4 12 11q-18 12 -31 32q-22 31 -22 73q0 53 38 95q15 16 24 21q22 16 52 26q31 9 60 9z" />
    <glyph glyph-name="dieresis" unicode="&#xa8;" horiz-adv-x="558" 
d="M184 975q31 0 51 -27q12 -17 12 -35v-4q0 -24 -19 -44q-15 -12 -29 -15q-7 -2 -11 -2h-8q-16 0 -33 12t-23 33q-3 9 -3 16v4q0 24 19 44q19 18 44 18zM375 975q29 0 50 -27q12 -17 12 -35v-4q0 -24 -20 -44q-14 -12 -28 -15q-8 -2 -12 -2h-6q-16 0 -34 12q-17 12 -24 33
q-2 9 -2 16v4q0 24 19 44q19 18 45 18z" />
    <glyph glyph-name="copyright" unicode="&#xa9;" horiz-adv-x="1012" 
d="M524 604h6q63 0 123 -35q16 -9 34 -24q17 -16 26 -28q7 -8 14 -17v0q-20 -14 -79 -56q-7 9 -18 21q-18 16 -30 23q-35 20 -73 20q-44 0 -83 -27q-23 -16 -40 -40q-23 -37 -23 -78q0 -57 41 -100q14 -15 25 -21q37 -25 80 -25h1q55 0 99 40q15 15 21 24v0q20 -13 80 -53
q-8 -13 -27 -34q-19 -18 -33 -28q-15 -10 -27 -17q-17 -9 -39 -17q-38 -11 -70 -11h-9q-47 0 -96 22q-89 41 -126 132q-16 43 -16 84v8q0 54 27 108q10 18 27 40q19 22 38 37q20 16 38 25q54 27 109 27zM506 788q130 0 239 -75q21 -13 47 -38q28 -27 35 -35q20 -24 31 -42
q67 -106 67 -229q0 -119 -65 -223q-13 -23 -39 -53q-25 -28 -43 -42q-26 -23 -46 -35q-105 -65 -226 -65q-122 0 -229 67q-22 15 -50 39q-30 29 -36 37q-29 35 -42 57q-16 25 -29 54q-32 80 -32 159v12q0 79 33 160q15 32 37 68q14 20 36 44q28 31 40 39q30 26 54 41
q102 60 218 60zM183 370v-2q0 -99 57 -184q12 -16 29 -35q21 -21 30 -28q21 -17 42 -30q78 -45 164 -45h3q93 0 175 53q13 7 29 21q9 7 33 31q3 4 10 12q19 22 30 43q45 77 45 163q0 102 -61 189q-11 15 -33 39q-28 27 -45 38q-86 58 -185 58q-101 0 -187 -60
q-14 -9 -40 -34q-24 -24 -34 -39q-13 -18 -22 -36q-40 -73 -40 -154z" />
    <glyph glyph-name="ordfeminine" unicode="&#xaa;" horiz-adv-x="324" 
 />
    <glyph glyph-name="guillemotleft" unicode="&#xab;" horiz-adv-x="675" 
d="M59 201v67q43 31 174 121q6 5 24 17h1q2 -3 29 -42q9 -12 26 -37v0q-33 -23 -133 -92q33 -23 133 -92q-53 -76 -55 -79q-66 45 -199 136v1zM333 201v67q44 31 175 121q6 5 24 17h1q3 -3 29 -42q9 -12 26 -37v0q-33 -23 -133 -92q33 -23 133 -92q-52 -76 -55 -79
q-66 45 -199 136q0 1 -1 1z" />
    <glyph glyph-name="logicalnot" unicode="&#xac;" horiz-adv-x="527" 
d="M75 405h376l1 -1v-229h-97v133h-280v97z" />
    <glyph glyph-name="uni00ad" unicode="&#xad;" horiz-adv-x="432" 
d="M38 304h353v-1v-95v-1h-353v97z" />
    <glyph glyph-name="registered" unicode="&#xae;" horiz-adv-x="652" 
d="M288 596v-101h47q25 0 41 17q13 14 13 33v4q0 26 -25 40q-13 7 -28 7h-48zM252 632h85q22 0 43 -11q7 -2 14 -9q3 -2 10 -8q10 -11 15 -23q6 -15 6 -30v-7q0 -20 -9 -39q-4 -6 -10 -14q-6 -7 -13 -12q-9 -7 -15 -11l-6 -2q0 -1 20 -38q13 -24 39 -71h-43q-1 2 -32 61
q-7 13 -21 41h-47v-1v-101h-36v275zM325 732q75 0 137 -43q11 -8 27 -21q15 -16 19 -20q12 -15 18 -24q38 -61 38 -131q0 -68 -36 -126q-8 -14 -23 -31q-14 -16 -25 -24l-25 -20q-60 -37 -130 -37q-69 0 -129 38q-13 9 -29 23q-18 16 -21 21q-16 19 -23 32q-10 14 -16 31
q-19 45 -19 91v6q0 45 19 91q8 19 21 39q8 11 20 25q16 17 23 23q17 14 31 22q58 35 123 35zM128 494v-2q0 -60 35 -112q6 -10 17 -22q13 -13 19 -17q13 -10 26 -18q47 -27 100 -27h2q57 0 107 32q8 4 18 13q5 3 20 18q2 3 6 8q12 13 19 26q27 47 27 100q0 63 -37 116
q-7 10 -20 24q-17 16 -28 23q-52 36 -114 36q-61 0 -114 -36q-8 -7 -24 -22q-15 -14 -22 -23q-7 -11 -13 -23q-24 -44 -24 -94z" />
    <glyph glyph-name="macron" unicode="&#xaf;" horiz-adv-x="335" 
 />
    <glyph glyph-name="degree" unicode="&#xb0;" horiz-adv-x="495" 
d="M156 543q0 -29 23 -51q20 -16 42 -16q30 0 51 24q16 19 16 43q0 32 -28 53q-17 12 -39 12q-31 0 -53 -27q-12 -17 -12 -38zM218 715h7q44 0 88 -26q51 -32 72 -90q9 -29 9 -56q0 -63 -43 -114q-15 -17 -24 -23q-48 -35 -105 -35q-62 0 -113 41q-16 15 -21 22q-8 9 -15 21
q-24 42 -24 84v8q0 44 27 88q32 49 88 70q29 10 54 10z" />
    <glyph glyph-name="plusminus" unicode="&#xb1;" horiz-adv-x="431" 
d="M38 0h354h1v-96h-1h-354v96zM168 207h-130v97h130v128v0h96v0v-128h128l1 -1v-95q0 -1 -1 -1h-128v-130h-96v130z" />
    <glyph glyph-name="twosuperior" unicode="&#xb2;" horiz-adv-x="507" 
 />
    <glyph glyph-name="threesuperior" unicode="&#xb3;" horiz-adv-x="507" 
 />
    <glyph glyph-name="acute" unicode="&#xb4;" horiz-adv-x="484" 
d="M363 934q-48 -29 -191 -118l-1 1q-12 20 -50 81v1q48 29 191 117q13 -20 51 -82z" />
    <glyph glyph-name="mu" unicode="&#xb5;" horiz-adv-x="588" 
d="M176 23v-223v0h-96v0v679v1h96v-1v-293q1 -61 52 -80q21 -10 55 -10h8q61 0 86 20q34 20 34 73v288q0 1 1 2h93q1 0 2 -2v-473q-1 0 -2 -1h-93q-1 0 -1 1v27h-2q-25 -14 -66 -26q-22 -5 -54 -5h-5q-62 0 -108 23z" />
    <glyph glyph-name="paragraph" unicode="&#xb6;" horiz-adv-x="595" 
d="M367 51v530h-56v-530v-1h-96q-1 0 -1 1v281q-67 9 -110 49q-51 47 -51 123q0 78 54 126t143 48h222v-1h33h1v-96h-1h-41v-530v-1h-96q-1 0 -1 1z" />
    <glyph glyph-name="periodcentered" unicode="&#xb7;" horiz-adv-x="368" 
d="M184 449q31 0 51 -26q12 -18 12 -35v-4q0 -24 -19 -44q-15 -12 -29 -16q-7 -1 -11 -1h-8q-16 0 -33 12t-23 33q-3 8 -3 16v4q0 24 19 44q19 17 44 17z" />
    <glyph glyph-name="cedilla" unicode="&#xb8;" horiz-adv-x="448" 
d="M175 16q19 -4 77 -16v-1q-1 -8 -5 -31q14 -3 22 -5q31 -13 46 -42q10 -22 10 -44v-3q0 -33 -22 -62q-11 -11 -17 -15q-32 -24 -69 -24h-2q-39 0 -75 28q-13 14 -15 17q-1 1 -2 3v0q15 13 63 50q14 -18 30 -18q12 0 21 8q8 7 8 15q0 5 -3 11q-4 2 -11 2h-3q-13 0 -33 -8
q-18 -5 -52 -17v0l32 152v0z" />
    <glyph glyph-name="onesuperior" unicode="&#xb9;" horiz-adv-x="507" 
 />
    <glyph glyph-name="ordmasculine" unicode="&#xba;" horiz-adv-x="359" 
 />
    <glyph glyph-name="guillemotright" unicode="&#xbb;" horiz-adv-x="675" 
d="M616 200q-50 -34 -199 -136q-2 3 -55 79q44 31 133 92q-33 23 -133 92v0q6 9 26 37q27 39 29 42v0q6 -4 24 -17q44 -30 175 -121v-67v-1zM341 200q-50 -34 -199 -136q-2 3 -55 79q44 31 133 92q-33 23 -133 92v0q7 9 26 37q27 39 29 42h1q6 -4 24 -17q43 -30 174 -121
v-67v-1z" />
    <glyph glyph-name="onequarter" unicode="&#xbc;" horiz-adv-x="854" 
 />
    <glyph glyph-name="onehalf" unicode="&#xbd;" horiz-adv-x="982" 
 />
    <glyph glyph-name="threequarters" unicode="&#xbe;" horiz-adv-x="854" 
 />
    <glyph glyph-name="questiondown" unicode="&#xbf;" horiz-adv-x="556" 
d="M272 630q-28 0 -48 23q-14 19 -14 39v3q0 25 21 45q18 16 39 16h6q16 0 33 -12q18 -12 25 -35q2 -9 2 -16q0 -29 -24 -49q-17 -14 -40 -14zM271 0h-7q-44 0 -89 20q-19 9 -40 25q-11 8 -24 21q-19 20 -28 35q-36 57 -36 123q0 59 33 116q9 16 24 32q16 19 29 29
q18 15 58 43q10 7 22 18q6 7 9 13q2 6 2 13v115q1 0 1 1h95l1 -1v-114q0 -68 -64 -116q-15 -13 -54 -40q-22 -16 -35 -36q-16 -24 -23 -53q-1 -12 -1 -20q0 -50 34 -88q38 -40 90 -40q49 0 88 37q36 39 36 91v17h97v-21q0 -49 -25 -100q-8 -17 -24 -36q-6 -9 -22 -24
q-14 -13 -25 -20q-18 -13 -38 -23q-43 -17 -84 -17z" />
    <glyph glyph-name="Agrave" unicode="&#xc0;" 
d="M289 1014q48 -29 191 -117v-1q-12 -20 -49 -81h-1q-48 29 -191 117q12 21 50 82zM224 255h268q-33 82 -133 329q-2 0 -55 -135q-27 -65 -80 -194zM405 732q2 0 43 -108l255 -624h-2h-104q-2 0 -14 33q-17 42 -51 124h-348q-15 -39 -63 -157h-104v0q64 157 254 625
q11 27 44 107h90z" />
    <glyph glyph-name="Aacute" unicode="&#xc1;" 
d="M239 896q47 30 191 118l1 -1q12 -20 49 -81v0q-47 -30 -191 -117q-13 20 -50 81zM224 255h268q-33 82 -133 329q-2 0 -55 -135q-27 -65 -80 -194zM405 732q2 0 43 -108l255 -624h-2h-104q-2 0 -14 33q-17 42 -51 124h-348q-15 -39 -63 -157h-104v0q64 157 254 625
q11 27 44 107h90z" />
    <glyph glyph-name="Acircumflex" unicode="&#xc2;" 
d="M332 1004h56q7 -7 112 -125q-24 -21 -72 -64l-68 76l-68 -76v0l-72 64v0q28 31 112 125zM224 255h268q-33 82 -133 329q-2 0 -55 -135q-27 -65 -80 -194zM405 732q2 0 43 -108l255 -624h-2h-104q-2 0 -14 33q-17 42 -51 124h-348q-15 -39 -63 -157h-104v0q64 157 254 625
q11 27 44 107h90z" />
    <glyph glyph-name="Atilde" unicode="&#xc3;" 
d="M224 255h268q-33 82 -133 329q-2 0 -55 -135q-27 -65 -80 -194zM405 732q2 0 43 -108l255 -624h-2h-104q-2 0 -14 33q-17 42 -51 124h-348q-15 -39 -63 -157h-104v0q64 157 254 625q11 27 44 107h90zM546 858q-19 -15 -38 -26q-30 -15 -59 -15t-89 29q-59 30 -88 30
q-26 0 -55 -17q-18 -11 -41 -38v99q20 20 39 30q29 16 57 16q32 0 91 -30q58 -30 86 -30q27 0 55 17q19 12 42 38v-103z" />
    <glyph glyph-name="Adieresis" unicode="&#xc4;" 
d="M265 956q31 0 51 -27q12 -17 12 -34v-4q0 -24 -20 -44q-14 -13 -28 -16q-8 -2 -12 -2h-7q-16 0 -33 12t-24 33q-2 9 -2 17v4q0 23 19 43q19 18 44 18zM456 956q29 0 50 -27q12 -17 12 -34v-4q0 -24 -19 -44q-15 -13 -29 -16q-7 -2 -11 -2h-7q-16 0 -34 12q-17 12 -23 33
q-3 9 -3 17v4q0 23 19 43q19 18 45 18zM224 255h268q-33 82 -133 329q-2 0 -55 -135q-27 -65 -80 -194zM405 732q2 0 43 -108l255 -624h-2h-104q-2 0 -14 33q-17 42 -51 124h-348q-15 -39 -63 -157h-104v0q64 157 254 625q11 27 44 107h90z" />
    <glyph glyph-name="Aring" unicode="&#xc5;" 
d="M325 814v-1q0 -16 14 -28q9 -7 21 -7q16 0 28 14q7 11 7 21v2q0 13 -10 23q-11 10 -25 10t-24 -9q-11 -11 -11 -25zM224 255h268q-33 82 -133 329q-2 0 -55 -135q-27 -65 -80 -194zM315 732h-1q-7 4 -14 9q-8 8 -12 13q-8 10 -12 17q-9 21 -9 40v5q0 27 17 52q4 5 13 15
q28 24 62 24h1q33 0 61 -23q11 -11 14 -15q18 -25 18 -56q0 -37 -28 -66q-2 -2 -5 -6q-7 -5 -14 -9h-1q4 -8 43 -108l255 -624h-2h-104q-2 0 -14 33q-17 42 -51 124h-348q-15 -39 -63 -157h-104v0q64 157 254 625q11 27 44 107z" />
    <glyph glyph-name="AE" unicode="&#xc6;" horiz-adv-x="980" 
d="M531 564q-46 -65 -182 -260v0h182l1 1v259h-1zM532 732h392q1 0 2 -1v-94l-2 -1h-296v-221l1 -2h234l1 -1v-93l-1 -1h-235v-222h296q1 -1 2 -1v-94l-2 -1h-391l-1 1v206l-1 1h-250q-3 -4 -96 -136q-47 -68 -51 -72h-115l-2 1q65 92 258 366q64 91 257 365z" />
    <glyph glyph-name="Ccedilla" unicode="&#xc7;" horiz-adv-x="593" 
d="M401 0q-2 -8 -6 -32q14 -3 22 -5q31 -13 46 -42q11 -22 11 -44v-3q0 -33 -23 -62q-11 -11 -17 -15q-32 -24 -69 -24h-2q-39 0 -74 28q-14 14 -16 17q-1 1 -2 3v0q15 13 63 50q14 -18 30 -18q12 0 21 8q8 7 8 15q0 5 -3 11q-4 2 -13 4h-2q-12 -2 -32 -7q-17 -6 -52 -18v1
q8 35 30 141q-101 23 -181 109q-92 111 -92 247v4q0 138 93 248q108 116 253 116h1q141 0 248 -110q37 -43 53 -74q-4 -4 -85 -47q-14 25 -40 57q-78 78 -176 78q-99 0 -176 -79q-75 -84 -75 -190q0 -124 95 -212q72 -58 152 -58h10q88 0 164 72q33 36 47 63q28 -15 84 -44
v-3q-17 -31 -45 -66q-107 -116 -250 -119z" />
    <glyph glyph-name="Egrave" unicode="&#xc8;" horiz-adv-x="534" 
d="M212 1014q48 -29 192 -117v-1q-13 -20 -50 -81h-1q-47 29 -191 117q13 21 50 82zM87 732h393v0v-96h-297v-222h235l1 -1v-94l-1 -1h-235v-222h297v-96v0h-393h-1v732h1z" />
    <glyph glyph-name="Eacute" unicode="&#xc9;" horiz-adv-x="534" 
d="M404 932q-48 -29 -192 -117v0q-13 20 -50 81v1q48 29 191 117q13 -20 51 -82zM87 732h393v0v-96h-297v-222h235l1 -1v-94l-1 -1h-235v-222h297v-96v0h-393h-1v732h1z" />
    <glyph glyph-name="Ecircumflex" unicode="&#xca;" horiz-adv-x="576" 
d="M87 732h393v0v-96h-297v-222h235l1 -1v-94l-1 -1h-235v-222h297v-96v0h-393h-1v732h1zM255 1004h57q6 -7 111 -125q-24 -21 -72 -64q-17 19 -67 76l-68 -76v0l-72 64v0q27 31 111 125z" />
    <glyph glyph-name="Edieresis" unicode="&#xcb;" horiz-adv-x="576" 
d="M87 732h393v0v-96h-297v-222h235l1 -1v-94l-1 -1h-235v-222h297v-96v0h-393h-1v732h1zM188 956q31 0 51 -27q12 -17 12 -34v-4q0 -24 -19 -44q-15 -13 -29 -16q-7 -2 -11 -2h-8q-16 0 -33 12t-23 33q-3 9 -3 17v4q0 23 19 43q19 18 44 18zM379 956q29 0 50 -27
q12 -17 12 -34v-4q0 -24 -20 -44q-14 -13 -28 -16q-8 -2 -12 -2h-6q-16 0 -34 12q-17 12 -24 33q-2 9 -2 17v4q0 23 19 43q19 18 45 18z" />
    <glyph glyph-name="Igrave" unicode="&#xcc;" horiz-adv-x="268" 
d="M87 732h95h1v-732h-1h-95h-1v732h1zM64 1014q47 -29 191 -117v-1q-12 -20 -50 -81h-1q-47 29 -191 117q13 21 51 82z" />
    <glyph glyph-name="Iacute" unicode="&#xcd;" horiz-adv-x="268" 
d="M87 732h95h1v-732h-1h-95h-1v732h1zM255 932q-48 -29 -191 -117h-1q-12 20 -50 81v1q48 29 191 117q13 -20 51 -82z" />
    <glyph glyph-name="Icircumflex" unicode="&#xce;" horiz-adv-x="268" 
d="M87 732h95h1v-732h-1h-95h-1v732h1zM106 1004h57q6 -7 111 -125q-24 -21 -72 -64q-17 19 -67 76l-68 -76v0l-72 64v0q27 31 111 125z" />
    <glyph glyph-name="Idieresis" unicode="&#xcf;" horiz-adv-x="268" 
d="M87 732h95h1v-732h-1h-95h-1v732h1zM49 956q31 0 51 -27q12 -17 12 -34v-4q0 -24 -20 -44q-14 -13 -28 -16q-8 -2 -12 -2h-7q-16 0 -33 12t-24 33q-2 9 -2 17v4q0 23 19 43q19 18 44 18zM220 956q29 0 50 -27q12 -17 12 -34v-4q0 -24 -19 -44q-15 -13 -29 -16
q-7 -2 -11 -2h-7q-16 0 -34 12q-17 12 -23 33q-3 9 -3 17v4q0 23 19 43q19 18 45 18z" />
    <glyph glyph-name="Eth" unicode="&#xd0;" horiz-adv-x="725" 
d="M216 415h100v-98h-100v-221h88q128 0 213 95q66 78 66 174q0 99 -67 177q-40 42 -62 52q-19 14 -62 29q-37 12 -98 12h-77l-1 -1v-219zM120 317h-64v98h64v315l1 2h191q132 0 240 -89q41 -39 52 -57q75 -101 75 -218v-5q0 -146 -111 -260q-61 -55 -120 -77
q-67 -26 -132 -26h-195l-1 1v316z" />
    <glyph glyph-name="Ntilde" unicode="&#xd1;" horiz-adv-x="758" 
d="M88 732h104q87 -131 351 -523q8 -12 32 -49v0v571l1 1h95l1 -1v-730l-1 -1h-104q-27 38 -200 298q-62 91 -185 274v-571l-1 -1h-93q-1 0 -2 1v730zM564 856q-20 -16 -39 -26q-29 -14 -57 -14q-31 0 -90 28q-58 29 -89 29q-25 0 -53 -16q-20 -12 -42 -37v97q19 22 38 31
q30 16 57 16q33 0 92 -30t87 -30q25 0 54 17q19 12 42 39v-104z" />
    <glyph glyph-name="Ograve" unicode="&#xd2;" horiz-adv-x="799" 
d="M331 1014q48 -29 192 -117v-1q-13 -20 -51 -81v0q-48 29 -192 117q13 21 51 82zM400 732h2q145 0 254 -113q97 -111 97 -253q0 -155 -114 -270q-107 -96 -237 -96q-131 0 -236 93q-46 48 -60 75q-57 91 -57 197v3q0 155 116 271q12 9 34 27q93 66 201 66zM146 367
q0 -119 90 -206q74 -64 166 -64q120 0 203 106q52 76 52 159v6q0 103 -72 185q-80 83 -183 83q-115 0 -198 -99q-58 -78 -58 -170z" />
    <glyph glyph-name="Oacute" unicode="&#xd3;" horiz-adv-x="799" 
d="M523 932q-48 -29 -192 -117v0q-13 20 -51 81v1q48 29 192 117q13 -20 51 -82zM400 732h2q145 0 254 -113q97 -111 97 -253q0 -155 -114 -270q-107 -96 -237 -96q-131 0 -236 93q-46 48 -60 75q-57 91 -57 197v3q0 155 116 271q12 9 34 27q93 66 201 66zM146 367
q0 -119 90 -206q74 -64 166 -64q120 0 203 106q52 76 52 159v6q0 103 -72 185q-80 83 -183 83q-115 0 -198 -99q-58 -78 -58 -170z" />
    <glyph glyph-name="Ocircumflex" unicode="&#xd4;" horiz-adv-x="799" 
d="M373 1004h56q7 -7 112 -125q-24 -21 -72 -64l-68 76q-16 -19 -67 -76h-1l-72 64v0q28 31 112 125zM400 732h2q145 0 254 -113q97 -111 97 -253q0 -155 -114 -270q-107 -96 -237 -96q-131 0 -236 93q-46 48 -60 75q-57 91 -57 197v3q0 155 116 271q12 9 34 27
q93 66 201 66zM146 367q0 -119 90 -206q74 -64 166 -64q120 0 203 106q52 76 52 159v6q0 103 -72 185q-80 83 -183 83q-115 0 -198 -99q-58 -78 -58 -170z" />
    <glyph glyph-name="Otilde" unicode="&#xd5;" horiz-adv-x="799" 
d="M400 732h2q145 0 254 -113q97 -111 97 -253q0 -155 -114 -270q-107 -96 -237 -96q-131 0 -236 93q-46 48 -60 75q-57 91 -57 197v3q0 155 116 271q12 9 34 27q93 66 201 66zM146 367q0 -119 90 -206q74 -64 166 -64q120 0 203 106q52 76 52 159v6q0 103 -72 185
q-80 83 -183 83q-115 0 -198 -99q-58 -78 -58 -170zM588 860q-19 -16 -38 -27q-30 -14 -58 -14q-30 0 -89 29t-89 29q-26 0 -54 -17q-19 -11 -41 -37v98q19 21 38 31q30 16 57 16q33 0 91 -30q59 -30 87 -30q26 0 55 16q18 12 41 39v-103z" />
    <glyph glyph-name="Odieresis" unicode="&#xd6;" horiz-adv-x="799" 
d="M306 956q30 0 50 -27q12 -17 12 -34v-4q0 -24 -19 -44q-14 -13 -29 -16q-7 -2 -11 -2h-7q-16 0 -34 12q-16 12 -23 33q-2 9 -2 17v4q0 23 18 43q19 18 45 18zM496 956q30 0 51 -27q12 -17 12 -34v-4q0 -24 -20 -44q-15 -13 -28 -16q-8 -2 -12 -2h-7q-16 0 -33 12
q-18 12 -24 33q-3 9 -3 17v4q0 23 20 43q19 18 44 18zM400 732h2q145 0 254 -113q97 -111 97 -253q0 -155 -114 -270q-107 -96 -237 -96q-131 0 -236 93q-46 48 -60 75q-57 91 -57 197v3q0 155 116 271q12 9 34 27q93 66 201 66zM145 367q0 -119 91 -206q73 -64 166 -64
q120 0 202 106q52 76 52 159v6q0 103 -71 185q-80 83 -183 83q-115 0 -198 -99q-59 -78 -59 -170z" />
    <glyph glyph-name="multiply" unicode="&#xd7;" horiz-adv-x="416" 
d="M208 175l-92 -92l-68 68l92 92l-92 92v0l68 68v0l92 -92l92 92h1q17 -17 67 -68v0l-92 -92l92 -92l-68 -68z" />
    <glyph glyph-name="Oslash" unicode="&#xd8;" horiz-adv-x="606" 
d="M516 607q-52 29 -114 29q-115 0 -198 -99q-59 -78 -59 -170q0 -119 91 -206l4 -4zM589 548q-67 -109 -269 -437q40 -14 82 -14q120 0 202 106q52 76 52 159v6q0 100 -67 180zM567 689q14 23 56 91h1q19 -11 79 -47v0q-15 -25 -62 -100q8 -7 15 -14q97 -111 97 -253
q0 -155 -114 -270q-107 -96 -237 -96q-70 0 -133 27q-16 -26 -48 -79h-1q-19 12 -79 47v1q12 20 48 79q-12 9 -23 18q-46 48 -60 75q-57 91 -57 197v3q0 155 116 271q12 9 34 27q93 66 201 66h2q90 0 165 -43z" />
    <glyph glyph-name="Ugrave" unicode="&#xd9;" horiz-adv-x="743" 
d="M301 1014q48 -29 191 -117v-1q-12 -20 -49 -81h-1q-48 29 -191 117q12 21 50 82zM87 732h93l1 -1v-446q0 -81 27 -119q25 -43 84 -63q23 -6 44 -6h71q85 0 133 78q21 41 21 97v459l2 1h93q1 0 2 -1v-435q0 -87 -15 -125q-31 -87 -100 -132q-61 -39 -147 -39h-48
q-115 0 -184 68q-31 31 -47 61q-32 64 -32 137v465z" />
    <glyph glyph-name="Uacute" unicode="&#xda;" horiz-adv-x="743" 
d="M492 932q-47 -29 -191 -117h-1q-12 20 -49 81v1q47 29 191 117q13 -20 50 -82zM87 732h93l1 -1v-446q0 -81 27 -119q25 -43 84 -63q23 -6 44 -6h71q85 0 133 78q21 41 21 97v459l2 1h93q1 0 2 -1v-435q0 -87 -15 -125q-31 -87 -100 -132q-61 -39 -147 -39h-48
q-115 0 -184 68q-31 31 -47 61q-32 64 -32 137v465z" />
    <glyph glyph-name="Ucircumflex" unicode="&#xdb;" horiz-adv-x="743" 
d="M344 1004h56q7 -7 112 -125q-24 -21 -72 -64l-68 76l-68 -76v0l-72 64v0q28 31 112 125zM87 732h93l1 -1v-446q0 -81 27 -119q25 -43 84 -63q23 -6 44 -6h71q85 0 133 78q21 41 21 97v459l2 1h93q1 0 2 -1v-435q0 -87 -15 -125q-31 -87 -100 -132q-61 -39 -147 -39h-48
q-115 0 -184 68q-31 31 -47 61q-32 64 -32 137v465z" />
    <glyph glyph-name="Udieresis" unicode="&#xdc;" horiz-adv-x="680" 
d="M278 956q30 0 50 -27q12 -17 12 -34v-4q0 -24 -19 -44q-14 -13 -29 -16q-7 -2 -11 -2h-7q-16 0 -34 12q-16 12 -23 33q-2 9 -2 17v4q0 23 18 43q19 18 45 18zM468 956q30 0 51 -27q12 -17 12 -34v-4q0 -24 -20 -44q-15 -13 -28 -16q-8 -2 -12 -2h-7q-16 0 -33 12
q-18 12 -24 33q-3 9 -3 17v4q0 23 20 43q19 18 44 18zM87 732h93l1 -1v-446q0 -81 27 -119q25 -43 84 -63q23 -6 44 -6h71q85 0 133 78q21 41 21 97v459l2 1h93q1 0 2 -1v-435q0 -87 -15 -125q-31 -87 -100 -132q-61 -39 -147 -39h-48q-115 0 -184 68q-31 31 -47 61
q-32 64 -32 137v465z" />
    <glyph glyph-name="Yacute" unicode="&#xdd;" horiz-adv-x="680" 
d="M462 932q-48 -29 -191 -117h-1q-12 20 -50 81v1q48 29 192 117q12 -20 50 -82zM15 732h122q6 -5 102 -140q34 -48 102 -143q193 271 203 283h123v0q-69 -95 -275 -379v-352l-1 -1h-99q-1 0 -2 1v351q0 3 -33 47q-80 111 -242 333v0z" />
    <glyph glyph-name="Thorn" unicode="&#xde;" horiz-adv-x="684" 
d="M173 111v-111h-1h-95h-1v732h1h95h1v-111h219q79 0 140 -33q16 -8 33 -22q7 -5 22 -21q53 -60 53 -145v-68q0 -86 -55 -147q-16 -16 -25 -22q-18 -14 -31 -20q-12 -7 -28 -13q-51 -19 -108 -19h-220zM173 525v-317h215q89 0 129 47q10 13 14 21q12 24 12 62v57
q0 41 -14 65q-18 36 -64 53q-33 12 -78 12h-214z" />
    <glyph glyph-name="germandbls" unicode="&#xdf;" horiz-adv-x="680" 
d="M293 732q88 0 152 -36q71 -46 71 -120v-4q0 -62 -54 -132q-33 -45 -33 -67t70 -57q134 -76 134 -173q0 -72 -73 -131q-64 -45 -136 -45q-108 0 -184 100q-12 17 -12 20q27 17 80 50q4 -5 15 -20q44 -53 101 -53q53 0 95 40q17 23 17 39q0 48 -116 106q-88 51 -88 127
q0 52 54 124q34 43 34 72v3q0 50 -108 60q-7 0 -20 1q-84 0 -112 -60q-7 -16 -7 -24v-551l-1 -1h-94l-2 1v556q0 36 32 88q62 87 185 87z" />
    <glyph glyph-name="agrave" unicode="&#xe0;" horiz-adv-x="605" 
d="M217 764q48 -29 192 -117v-1q-13 -20 -50 -81v-1q-48 30 -192 118q13 20 50 82zM291 487q83 0 142 -64v55q1 0 2 1h94q1 0 2 -1v-477q-1 0 -2 -1h-94l-2 1v48q-56 -61 -144 -61v0q-109 0 -186 88q-57 72 -57 161v0q0 111 85 191q70 59 160 59zM143 237q0 -78 68 -129
q37 -23 72 -23h10q48 0 94 39q46 48 46 113v0q0 80 -68 130q-37 22 -73 22h-8q-60 0 -109 -55q-32 -46 -32 -97z" />
    <glyph glyph-name="aacute" unicode="&#xe1;" horiz-adv-x="605" 
d="M409 682q-48 -29 -192 -118v1q-13 20 -50 81v1q48 29 192 117q12 -21 50 -82zM291 487q83 0 142 -64v55q1 0 2 1h94q1 0 2 -1v-477q-1 0 -2 -1h-94l-2 1v48q-56 -61 -144 -61v0q-109 0 -186 88q-57 72 -57 161v0q0 111 85 191q70 59 160 59zM143 237q0 -78 68 -129
q37 -23 72 -23h10q48 0 94 39q46 48 46 113v0q0 80 -68 130q-37 22 -73 22h-8q-60 0 -109 -55q-32 -46 -32 -97z" />
    <glyph glyph-name="acircumflex" unicode="&#xe2;" horiz-adv-x="605" 
d="M260 755h56q7 -7 112 -126q-24 -22 -72 -65l-68 76l-68 -76v0l-72 64v1q28 31 112 126zM291 487q83 0 142 -64v55q1 0 2 1h94q1 0 2 -1v-477q-1 0 -2 -1h-94l-2 1v48q-56 -61 -144 -61v0q-109 0 -186 88q-57 72 -57 161v0q0 111 85 191q70 59 160 59zM143 237
q0 -78 68 -129q37 -23 72 -23h10q48 0 94 39q46 48 46 113v0q0 80 -68 130q-37 22 -73 22h-8q-60 0 -109 -55q-32 -46 -32 -97z" />
    <glyph glyph-name="atilde" unicode="&#xe3;" horiz-adv-x="605" 
d="M291 487q83 0 142 -64v55q1 0 2 1h94q1 0 2 -1v-477q-1 0 -2 -1h-94l-2 1v48q-56 -61 -144 -61v0q-109 0 -186 88q-57 72 -57 161v0q0 111 85 191q70 59 160 59zM143 237q0 -78 68 -129q37 -23 72 -23h10q48 0 94 39q46 48 46 113v0q0 80 -68 130q-37 22 -73 22h-8
q-60 0 -109 -55q-32 -46 -32 -97zM469 608q-19 -16 -38 -26q-30 -14 -58 -14q-30 0 -89 28q-59 29 -89 29q-26 0 -54 -16q-19 -12 -41 -37v97q19 22 38 31q30 16 57 16q33 0 91 -30q59 -30 87 -30q26 0 55 17q19 12 41 39v-104z" />
    <glyph glyph-name="adieresis" unicode="&#xe4;" horiz-adv-x="605" 
d="M193 705q31 0 51 -25q12 -18 12 -36v-4q0 -24 -20 -44q-14 -12 -28 -15q-8 -1 -12 -1h-7q-16 0 -33 11q-17 13 -24 33q-2 9 -2 16v4q0 24 19 44q19 17 44 17zM384 705q29 0 50 -25q12 -18 12 -36v-4q0 -24 -19 -44q-15 -12 -29 -15q-7 -1 -11 -1h-7q-16 0 -34 11
q-17 13 -23 33q-3 9 -3 16v4q0 24 19 44q19 17 45 17zM291 487q83 0 142 -64v55q1 0 2 1h94q1 0 2 -1v-477q-1 0 -2 -1h-94l-2 1v48q-56 -61 -144 -61v0q-109 0 -186 88q-57 72 -57 161v0q0 111 85 191q70 59 160 59zM143 237q0 -78 68 -129q37 -23 72 -23h10q48 0 94 39
q46 48 46 113v0q0 80 -68 130q-37 22 -73 22h-8q-60 0 -109 -55q-32 -46 -32 -97z" />
    <glyph glyph-name="aring" unicode="&#xe5;" horiz-adv-x="605" 
d="M256 648v-1q0 -15 13 -26q8 -7 19 -7q16 0 27 13q6 9 6 20v1q0 12 -9 22q-11 10 -24 10q-12 0 -23 -9q-9 -11 -9 -23zM288 734h1q31 0 56 -21q11 -10 13 -13q18 -25 18 -53q0 -35 -27 -63l-4 -4q-25 -20 -57 -20q-31 0 -56 20q-8 7 -11 12q-7 8 -10 15q-10 20 -10 37v5
q0 26 17 50q3 4 11 13q27 22 59 22zM291 487q83 0 142 -64v55q1 0 2 1h94q1 0 2 -1v-477q-1 0 -2 -1h-94l-2 1v48q-56 -61 -144 -61v0q-109 0 -186 88q-57 72 -57 161v0q0 111 85 191q70 59 160 59zM143 237q0 -78 68 -129q37 -23 72 -23h10q48 0 94 39q46 48 46 113v0
q0 80 -68 130q-37 22 -73 22h-8q-60 0 -109 -55q-32 -46 -32 -97z" />
    <glyph glyph-name="ae" unicode="&#xe6;" horiz-adv-x="953" 
d="M143 237q0 -78 68 -129q37 -23 72 -23h10q48 0 94 39q46 48 46 113v0q0 80 -68 130q-37 22 -73 22h-8q-60 0 -109 -55q-32 -46 -32 -97zM561 299h243v1q-8 25 -39 57q-38 33 -83 33q-69 0 -113 -73q-2 -6 -8 -18zM531 51v-50q-1 0 -2 -1h-94l-2 1v48q-56 -61 -144 -61v0
q-109 0 -186 88q-57 72 -57 161v0q0 111 85 191q70 59 160 59q83 0 142 -64v55q1 0 2 1h94q1 0 2 -1v-54q5 6 12 12q66 51 133 51h14q73 0 141 -59q33 -32 45 -56q36 -64 36 -135v-15q0 -14 -1 -14h-359q12 -53 39 -80q40 -44 92 -44q65 0 109 66q8 17 9 17q87 -39 87 -40
q-7 -18 -31 -52q-73 -87 -173 -87h-3q-85 0 -150 63z" />
    <glyph glyph-name="ccedilla" unicode="&#xe7;" horiz-adv-x="521" 
d="M313 -11q-1 -5 -4 -21q15 -3 23 -5q31 -13 45 -42q11 -22 11 -44v-3q0 -33 -23 -62q-11 -11 -17 -15q-32 -24 -68 -24h-3q-39 0 -74 28q-14 14 -15 17l-3 3v0q16 13 63 50q14 -18 31 -18q11 0 21 8q8 7 8 15q0 5 -4 11q-4 2 -11 2h-2q-14 0 -34 -8q-17 -5 -52 -17v0
q7 33 27 130q-40 10 -77 34q-12 9 -23 17q-18 17 -27 28q-20 24 -29 41q-9 16 -18 42q-13 41 -13 77v8q0 56 27 112q9 16 20 32q8 12 25 31q20 19 35 28q63 43 135 43h1q75 0 140 -47q12 -8 27 -23q18 -19 25 -29q7 -9 7 -11q-27 -17 -80 -53v0q-6 9 -20 24q-44 42 -100 42
q-54 0 -97 -39q-16 -16 -19 -23q-30 -41 -30 -91q0 -54 35 -98q11 -14 23 -23q40 -32 89 -32q44 0 81 28q9 5 24 20q8 10 15 20v0q20 -14 80 -53q-8 -14 -23 -31q-17 -18 -24 -23q-16 -13 -28 -21q-48 -29 -100 -35z" />
    <glyph glyph-name="egrave" unicode="&#xe8;" horiz-adv-x="533" 
d="M207 764q47 -29 191 -117v-1q-12 -20 -50 -81v-1q-48 30 -192 118q13 20 51 82zM141 299h243v1q-8 25 -39 57q-38 33 -83 33q-69 0 -113 -73q-2 -6 -8 -18zM256 487h14q73 0 141 -59q33 -32 45 -56q36 -64 36 -135v-15q0 -14 -1 -14h-359q12 -53 39 -80q40 -44 92 -44
q65 0 109 66q8 17 9 17q87 -39 87 -40q-7 -18 -31 -52q-73 -87 -173 -87h-3q-102 0 -177 92q-51 71 -51 156v2q0 117 90 198q66 51 133 51z" />
    <glyph glyph-name="eacute" unicode="&#xe9;" horiz-adv-x="533" 
d="M398 682q-48 -29 -191 -118l-1 1q-12 20 -50 81v1q48 29 192 117q12 -21 50 -82zM141 299h243v1q-8 25 -39 57q-38 33 -83 33q-69 0 -113 -73q-2 -6 -8 -18zM256 487h14q73 0 141 -59q33 -32 45 -56q36 -64 36 -135v-15q0 -14 -1 -14h-359q12 -53 39 -80q40 -44 92 -44
q65 0 109 66q8 17 9 17q87 -39 87 -40q-7 -18 -31 -52q-73 -87 -173 -87h-3q-102 0 -177 92q-51 71 -51 156v2q0 117 90 198q66 51 133 51z" />
    <glyph glyph-name="ecircumflex" unicode="&#xea;" horiz-adv-x="533" 
d="M248 755h57q7 -7 111 -126q-24 -22 -72 -65q-16 19 -67 76l-68 -76v0l-72 64v1q28 31 111 126zM141 299h243v1q-8 25 -39 57q-38 33 -83 33q-69 0 -113 -73q-2 -6 -8 -18zM256 487h14q73 0 141 -59q33 -32 45 -56q36 -64 36 -135v-15q0 -14 -1 -14h-359q12 -53 39 -80
q40 -44 92 -44q65 0 109 66q8 17 9 17q87 -39 87 -40q-7 -18 -31 -52q-73 -87 -173 -87h-3q-102 0 -177 92q-51 71 -51 156v2q0 117 90 198q66 51 133 51z" />
    <glyph glyph-name="edieresis" unicode="&#xeb;" horiz-adv-x="533" 
d="M182 705q30 0 50 -25q12 -18 12 -36v-4q0 -24 -19 -44q-14 -12 -29 -15q-7 -1 -11 -1h-7q-16 0 -34 11q-16 13 -23 33q-2 9 -2 16v4q0 24 18 44q19 17 45 17zM372 705q30 0 51 -25q12 -18 12 -36v-4q0 -24 -20 -44q-15 -12 -28 -15q-8 -1 -12 -1h-7q-16 0 -33 11
q-18 13 -24 33q-3 9 -3 16v4q0 24 20 44q19 17 44 17zM141 299h243v1q-8 25 -39 57q-38 33 -83 33q-69 0 -113 -73q-2 -6 -8 -18zM256 487h14q73 0 141 -59q33 -32 45 -56q36 -64 36 -135v-15q0 -14 -1 -14h-359q12 -53 39 -80q40 -44 92 -44q65 0 109 66q8 17 9 17
q87 -39 87 -40q-7 -18 -31 -52q-73 -87 -173 -87h-3q-102 0 -177 92q-51 71 -51 156v2q0 117 90 198q66 51 133 51z" />
    <glyph glyph-name="igrave" unicode="&#xec;" horiz-adv-x="259" 
d="M178 479v-479h-1h-96v0v479h97zM59 764q48 -29 192 -117v-1q-13 -20 -51 -81v-1q-48 30 -192 118q13 20 51 82z" />
    <glyph glyph-name="iacute" unicode="&#xed;" horiz-adv-x="257" 
d="M178 479v-479h-1h-96v0v479h97zM251 682q-48 -29 -192 -118v1q-13 20 -51 81v1q48 29 192 117q13 -21 51 -82z" />
    <glyph glyph-name="icircumflex" unicode="&#xee;" horiz-adv-x="259" 
d="M178 479v-479h-1h-96v0v479h97zM101 755h56q7 -7 112 -126q-24 -22 -72 -65l-68 76q-16 -19 -67 -76h-1l-72 64v1q28 31 112 126z" />
    <glyph glyph-name="idieresis" unicode="&#xef;" horiz-adv-x="259" 
d="M178 479v-479h-1h-96v0v479h97zM45 705q30 0 51 -25q12 -18 12 -36v-4q0 -24 -20 -44q-15 -12 -28 -15q-8 -1 -12 -1h-7q-16 0 -33 11q-17 13 -24 33q-3 9 -3 16v4q0 24 19 44q20 17 45 17zM215 705q30 0 50 -25q12 -18 12 -36v-4q0 -24 -19 -44q-14 -12 -29 -15
q-7 -1 -11 -1h-7q-16 0 -34 11q-17 13 -23 33q-2 9 -2 16v4q0 24 19 44q18 17 44 17z" />
    <glyph glyph-name="eth" unicode="&#xf0;" horiz-adv-x="569" 
 />
    <glyph glyph-name="ntilde" unicode="&#xf1;" horiz-adv-x="577" 
d="M294 479h5q129 0 185 -98q19 -38 19 -90v-290l-1 -1h-94l-1 1v291q0 61 -51 81q-22 10 -56 10h-8q-60 0 -86 -19q-33 -20 -33 -75v-288l-1 -1h-94l-2 1v474q1 0 2 1h94l1 -1v-27v0q26 14 67 26q22 5 54 5zM476 608q-20 -16 -39 -27q-29 -14 -58 -14q-30 0 -89 29t-89 29
q-25 0 -54 -17q-19 -11 -42 -37v98q20 21 39 31q29 16 57 16q32 0 91 -30t87 -30q26 0 54 16q19 12 43 39v-103z" />
    <glyph glyph-name="ograve" unicode="&#xf2;" horiz-adv-x="575" 
d="M217 764q48 -29 191 -117v-1q-12 -20 -49 -81q-1 0 -1 -1q-48 30 -191 118q12 20 50 82zM141 236q0 -54 36 -99q15 -17 24 -22q39 -31 86 -31q57 0 101 44q17 18 24 32q21 36 21 76v1q0 58 -40 104q-17 18 -22 20q-9 7 -16 11q-33 18 -68 18q-53 0 -97 -39
q-15 -16 -19 -23q-30 -41 -30 -92zM287 487q81 0 149 -53q9 -7 27 -25q34 -38 49 -79q17 -45 17 -94q0 -63 -30 -120q-11 -20 -28 -42q-20 -22 -32 -31q-14 -11 -26 -19q-59 -36 -124 -36h-4q-68 0 -130 40q-12 9 -22 17q-20 16 -28 28q-10 12 -20 26q-9 16 -17 31
q-23 52 -23 103v8q0 56 28 112q8 16 19 32q8 12 25 31q25 22 35 28q62 43 135 43z" />
    <glyph glyph-name="oacute" unicode="&#xf3;" horiz-adv-x="575" 
d="M408 682q-47 -29 -191 -118q0 1 -1 1q-12 20 -49 81v1q47 29 191 117q13 -21 50 -82zM141 236q0 -54 36 -99q15 -17 24 -22q39 -31 86 -31q57 0 101 44q17 18 24 32q21 36 21 76v1q0 58 -40 104q-17 18 -22 20q-9 7 -16 11q-33 18 -68 18q-53 0 -97 -39q-15 -16 -19 -23
q-30 -41 -30 -92zM287 487q81 0 149 -53q9 -7 27 -25q34 -38 49 -79q17 -45 17 -94q0 -63 -30 -120q-11 -20 -28 -42q-20 -22 -32 -31q-14 -11 -26 -19q-59 -36 -124 -36h-4q-68 0 -130 40q-12 9 -22 17q-20 16 -28 28q-10 12 -20 26q-9 16 -17 31q-23 52 -23 103v8
q0 56 28 112q8 16 19 32q8 12 25 31q25 22 35 28q62 43 135 43z" />
    <glyph glyph-name="ocircumflex" unicode="&#xf4;" horiz-adv-x="575" 
d="M259 755h57q6 -7 111 -126q-24 -22 -72 -65q-17 19 -67 76l-68 -76v0l-72 64v1q27 31 111 126zM141 236q0 -54 36 -99q15 -17 24 -22q39 -31 86 -31q57 0 101 44q17 18 24 32q21 36 21 76v1q0 58 -40 104q-17 18 -22 20q-9 7 -16 11q-33 18 -68 18q-53 0 -97 -39
q-15 -16 -19 -23q-30 -41 -30 -92zM287 487q81 0 149 -53q9 -7 27 -25q34 -38 49 -79q17 -45 17 -94q0 -63 -30 -120q-11 -20 -28 -42q-20 -22 -32 -31q-14 -11 -26 -19q-59 -36 -124 -36h-4q-68 0 -130 40q-12 9 -22 17q-20 16 -28 28q-10 12 -20 26q-9 16 -17 31
q-23 52 -23 103v8q0 56 28 112q8 16 19 32q8 12 25 31q25 22 35 28q62 43 135 43z" />
    <glyph glyph-name="otilde" unicode="&#xf5;" horiz-adv-x="575" 
d="M141 236q0 -54 36 -99q15 -17 24 -22q39 -31 86 -31q57 0 101 44q17 18 24 32q21 36 21 76v1q0 58 -40 104q-17 18 -22 20q-9 7 -16 11q-33 18 -68 18q-53 0 -97 -39q-15 -16 -19 -23q-30 -41 -30 -92zM287 487q81 0 149 -53q9 -7 27 -25q34 -38 49 -79q17 -45 17 -94
q0 -63 -30 -120q-11 -20 -28 -42q-20 -22 -32 -31q-14 -11 -26 -19q-59 -36 -124 -36h-4q-68 0 -130 40q-12 9 -22 17q-20 16 -28 28q-10 12 -20 26q-9 16 -17 31q-23 52 -23 103v8q0 56 28 112q8 16 19 32q8 12 25 31q25 22 35 28q62 43 135 43zM472 608q-19 -16 -38 -26
q-30 -14 -58 -14q-30 0 -89 28q-59 29 -89 29q-26 0 -54 -16q-19 -12 -41 -37v97q19 22 38 31q30 16 57 16q33 0 91 -30q59 -30 87 -30q26 0 55 17q18 12 41 39v-104z" />
    <glyph glyph-name="odieresis" unicode="&#xf6;" horiz-adv-x="575" 
d="M193 705q30 0 51 -25q12 -18 12 -36v-4q0 -24 -20 -44q-15 -12 -28 -15q-8 -1 -12 -1h-7q-16 0 -33 11q-17 13 -24 33q-3 9 -3 16v4q0 24 19 44q20 17 45 17zM383 705q30 0 50 -25q12 -18 12 -36v-4q0 -24 -19 -44q-14 -12 -29 -15q-7 -1 -11 -1h-7q-16 0 -34 11
q-17 13 -23 33q-2 9 -2 16v4q0 24 19 44q18 17 44 17zM141 236q0 -54 36 -99q15 -17 24 -22q39 -31 86 -31q57 0 101 44q17 18 24 32q21 36 21 76v1q0 58 -40 104q-17 18 -22 20q-9 7 -16 11q-33 18 -68 18q-53 0 -97 -39q-15 -16 -19 -23q-30 -41 -30 -92zM287 487
q81 0 149 -53q9 -7 27 -25q34 -38 49 -79q17 -45 17 -94q0 -63 -30 -120q-11 -20 -28 -42q-20 -22 -32 -31q-14 -11 -26 -19q-59 -36 -124 -36h-4q-68 0 -130 40q-12 9 -22 17q-20 16 -28 28q-10 12 -20 26q-9 16 -17 31q-23 52 -23 103v8q0 56 28 112q8 16 19 32
q8 12 25 31q25 22 35 28q62 43 135 43z" />
    <glyph glyph-name="divide" unicode="&#xf7;" horiz-adv-x="451" 
d="M224 470h4q23 0 43 -18q18 -20 18 -43v-4q0 -25 -21 -45q-19 -16 -40 -16h-4q-25 0 -45 21q-16 19 -16 42q0 25 17 44q20 19 44 19zM224 167h4q23 0 43 -19q18 -20 18 -43v-3q0 -25 -21 -46q-19 -16 -40 -16h-4q-25 0 -45 22q-16 19 -16 42q0 24 17 44q20 19 44 19z
M48 304h355v-1v-95v-1h-355v97z" />
    <glyph glyph-name="oslash" unicode="&#xf8;" horiz-adv-x="579" 
d="M351 375q-31 15 -64 15q-53 0 -97 -39q-15 -16 -19 -23q-30 -41 -30 -92q0 -31 12 -59zM418 304q-50 -50 -201 -200q33 -20 70 -20q57 0 101 44q17 18 24 32q21 36 21 76v1q0 36 -15 67zM421 444q13 13 51 52h1l68 -68v0l-52 -52q15 -23 23 -46q17 -45 17 -94
q0 -63 -30 -120q-11 -20 -28 -42q-20 -22 -32 -31q-14 -11 -26 -19q-59 -36 -124 -36h-4q-68 0 -130 40q-4 3 -8 5l-52 -52v0l-68 68v1q13 14 54 55q-7 13 -13 25q-23 52 -23 103v8q0 56 28 112q8 16 19 32q8 12 25 31q25 22 35 28q62 43 135 43t134 -43z" />
    <glyph glyph-name="ugrave" unicode="&#xf9;" horiz-adv-x="576" 
d="M216 764q48 -29 192 -117v-1q-12 -20 -50 -81l-1 -1q-47 30 -191 118q13 20 50 82zM283 0h-4q-130 0 -186 97q-19 39 -19 91v289q0 1 2 2h93l2 -2v-290q0 -62 50 -81q22 -10 55 -10h8q61 0 87 20q33 20 33 73v288q1 1 1 2h95v-2v-473v-1h-95l-1 1v32v0q-26 -19 -67 -31
q-22 -5 -54 -5z" />
    <glyph glyph-name="uacute" unicode="&#xfa;" horiz-adv-x="576" 
d="M408 682q-48 -29 -192 -118v1q-12 20 -50 81v1q48 29 191 117q13 -21 51 -82zM283 0h-4q-130 0 -186 97q-19 39 -19 91v289q0 1 2 2h93l2 -2v-290q0 -62 50 -81q22 -10 55 -10h8q61 0 87 20q33 20 33 73v288q1 1 1 2h95v-2v-473v-1h-95l-1 1v32v0q-26 -19 -67 -31
q-22 -5 -54 -5z" />
    <glyph glyph-name="ucircumflex" unicode="&#xfb;" horiz-adv-x="576" 
d="M259 755h57q6 -7 111 -126q-24 -22 -72 -65q-17 19 -67 76l-68 -76v0l-72 64v1q27 31 111 126zM283 0h-4q-130 0 -186 97q-19 39 -19 91v289q0 1 2 2h93l2 -2v-290q0 -62 50 -81q22 -10 55 -10h8q61 0 87 20q33 20 33 73v288q1 1 1 2h95v-2v-473v-1h-95l-1 1v32v0
q-26 -19 -67 -31q-22 -5 -54 -5z" />
    <glyph glyph-name="udieresis" unicode="&#xfc;" horiz-adv-x="576" 
d="M193 705q30 0 51 -25q12 -18 12 -36v-4q0 -24 -20 -44q-15 -12 -28 -15q-8 -1 -12 -1h-7q-16 0 -33 11q-17 13 -24 33q-3 9 -3 16v4q0 24 19 44q20 17 45 17zM383 705q30 0 50 -25q12 -18 12 -36v-4q0 -24 -19 -44q-14 -12 -29 -15q-7 -1 -11 -1h-7q-16 0 -34 11
q-17 13 -23 33q-2 9 -2 16v4q0 24 19 44q18 17 44 17zM283 0h-4q-130 0 -186 97q-19 39 -19 91v289q0 1 2 2h93l2 -2v-290q0 -62 50 -81q22 -10 55 -10h8q61 0 87 20q33 20 33 73v288q1 1 1 2h95v-2v-473v-1h-95l-1 1v32v0q-26 -19 -67 -31q-22 -5 -54 -5z" />
    <glyph glyph-name="yacute" unicode="&#xfd;" horiz-adv-x="560" 
d="M400 682q-47 -29 -191 -118q0 1 -1 1q-12 20 -49 81v1q47 29 191 117q13 -21 50 -82zM128 479l4 -10q24 -56 71 -169q19 -44 77 -179q1 3 21 50q22 51 67 152l68 156h106q-27 -61 -107 -244q-22 -52 -90 -205q-23 -53 -92 -211q-4 -9 -15 -35h-106v1q24 54 95 215
q-24 56 -98 224q-25 57 -100 227l-12 28h111z" />
    <glyph glyph-name="thorn" unicode="&#xfe;" horiz-adv-x="592" 
d="M164 424q18 20 23 22q14 11 25 18q16 8 32 12q11 4 40 9q8 0 21 1q72 0 130 -35q16 -10 37 -30q19 -18 24 -25q12 -16 21 -31q35 -60 35 -129q0 -83 -52 -152q-6 -10 -25 -31q-3 -2 -10 -7q-69 -58 -156 -58q-63 0 -114 36q-10 6 -26 21q-2 2 -5 6v-251h-96v0v932v0h96v0
v-308zM164 227q0 -15 8 -41q5 -17 12 -30q8 -11 22 -27q15 -15 22 -18q12 -8 20 -14q32 -13 57 -13h7q44 0 84 30q7 5 20 18q24 28 32 59q7 22 7 46q0 57 -38 102q-16 17 -19 19q-40 31 -89 31h-4q-26 0 -57 -13q-16 -8 -35 -24q-18 -19 -22 -26q-7 -11 -12 -21
q-4 -9 -10 -25q-5 -23 -5 -33v-20z" />
    <glyph glyph-name="ydieresis" unicode="&#xff;" horiz-adv-x="560" 
d="M185 705q30 0 51 -25q12 -18 12 -36v-4q0 -24 -20 -44q-15 -12 -28 -15q-8 -1 -12 -1h-7q-16 0 -33 11q-17 13 -24 33q-3 9 -3 16v4q0 24 19 44q20 17 45 17zM375 705q30 0 50 -25q12 -18 12 -36v-4q0 -24 -19 -44q-14 -12 -29 -15q-7 -1 -11 -1h-7q-16 0 -34 11
q-17 13 -23 33q-2 9 -2 16v4q0 24 19 44q18 17 44 17zM128 479l4 -10q24 -56 71 -169q19 -44 77 -179q1 3 21 50q22 51 67 152l68 156h106q-27 -61 -107 -244q-22 -52 -90 -205q-23 -53 -92 -211q-4 -9 -15 -35h-106v1q24 54 95 215q-24 56 -98 224q-25 57 -100 227l-12 28
h111z" />
    <glyph glyph-name="OE" unicode="&#x152;" horiz-adv-x="1126" 
d="M401 732h1q145 0 255 -114q96 -110 96 -252q0 -155 -114 -271q-107 -95 -237 -95q-131 0 -236 94q-47 48 -60 73q-57 92 -57 199v1q0 155 117 272l33 27q93 66 202 66zM145 367q0 -119 91 -206q74 -64 166 -64q120 0 202 106q53 76 53 159v7q0 102 -72 184
q-80 83 -183 83q-115 0 -198 -99q-59 -79 -59 -170zM683 732h393v-1v-96h-297v-221h235l1 -1v-95h-1h-235v-222h297v-96v0h-393h-1v731q0 1 1 1z" />
    <glyph glyph-name="oe" unicode="&#x153;" horiz-adv-x="942" 
d="M142 236q0 -54 35 -99q16 -17 24 -23q40 -30 86 -30q57 0 101 43q18 19 24 32q21 37 21 77v2q0 57 -40 103q-16 18 -23 20q-8 8 -16 11q-32 18 -67 18q-53 0 -97 -39q-15 -16 -20 -24q-28 -40 -28 -91zM287 487q82 0 149 -53q10 -7 27 -25q34 -39 49 -79q17 -45 17 -94
q0 -62 -30 -120q-10 -19 -28 -42q-20 -22 -32 -32q-14 -11 -25 -18q-60 -36 -125 -36h-4q-68 0 -131 40q-11 9 -21 17q-20 17 -28 28q-10 12 -19 26q-10 16 -18 31q-23 52 -23 103v8q0 56 28 112q8 16 19 32q8 12 26 30q24 23 35 29q61 43 134 43zM562 298h242v0
q-8 26 -39 58q-38 33 -83 33q-68 0 -112 -73q-3 -6 -8 -18zM676 485h14q73 0 141 -58q33 -33 45 -56q37 -65 37 -135v-15q0 -14 -2 -14h-358q11 -54 38 -80q40 -44 92 -44q65 0 109 66q8 16 10 17q86 -39 87 -40q-7 -18 -32 -53q-73 -86 -173 -86h-2q-103 0 -177 91
q-51 72 -51 157v2q0 117 89 198q66 50 133 50z" />
    <glyph glyph-name="perthousand" unicode="&#x2030;" horiz-adv-x="1229" 
d="M149 570q0 -24 23 -41q15 -10 34 -10q30 0 49 24q8 13 8 28q0 28 -30 44q-13 7 -26 7h-2q-26 0 -45 -21q-11 -13 -11 -31zM206 724q64 0 113 -45q17 -17 23 -29q23 -38 23 -80q0 -58 -42 -104q-17 -17 -28 -24q-41 -26 -86 -26h-7q-41 0 -81 23q-13 8 -27 22
q-16 15 -23 26q-24 40 -24 80v7q0 40 24 79q7 10 21 26q22 19 36 26q37 19 78 19zM624 304h4q50 0 95 -31q8 -6 22 -19q21 -23 30 -48q11 -28 11 -54v-4q0 -45 -28 -86q-5 -8 -21 -23q-23 -21 -48 -31q-30 -12 -63 -12q-59 0 -106 39q-18 17 -23 25q-30 41 -30 90
q0 58 42 104q17 16 22 19q12 9 25 16q34 15 68 15zM599 732h101v0q-118 -185 -474 -739h-1h-100v0q118 185 474 739v0zM569 150q0 -24 24 -41q15 -11 34 -11q29 0 48 25q9 13 9 28q0 27 -29 44q-14 6 -27 6h-3q-26 0 -44 -21q-12 -13 -12 -30zM1003 305h5q49 0 94 -31
q8 -6 22 -19q21 -24 30 -49q11 -27 11 -53v-5q0 -44 -28 -85q-5 -8 -20 -23q-23 -21 -49 -31q-30 -13 -62 -13q-60 0 -107 40q-18 17 -22 25q-31 41 -31 90q0 58 42 104q17 16 22 19q13 9 25 15q34 16 68 16zM949 150q0 -24 23 -40q15 -11 34 -11q29 0 48 25q9 13 9 27
q0 28 -29 45q-14 6 -27 6h-2q-26 0 -45 -21q-11 -13 -11 -31z" />
    <glyph glyph-name="uni20ac" unicode="&#x20ac;" horiz-adv-x="712" 
d="M420 684q101 0 190 -53q20 -11 42 -29q4 -3 10 -8q0 -1 -63 -73q-30 24 -55 37q-60 28 -121 28h-7q-71 0 -137 -36q-71 -44 -104 -116h437v-1v-96v0h-459q0 -11 2 -22h457v-1v-96v0h-427q45 -77 130 -112q51 -20 102 -20h5q71 0 137 37q15 9 30 21q3 2 10 7
q55 -63 63 -72q-28 -24 -44 -33q-31 -20 -68 -34q-64 -23 -131 -23q-104 0 -195 55q-20 12 -46 33q-11 9 -27 25q-24 27 -37 47q-19 28 -32 60l-3 9h-52h-1v96l1 1h30v20v2h-30h-1v96l1 1h44q8 24 18 45q14 29 36 60q11 15 31 36q27 26 39 34q25 19 49 32q83 43 176 43z" />
    <glyph glyph-name="trademark" unicode="&#x2122;" horiz-adv-x="1314" 
d="M558 150v582v0h110q29 -48 117 -194q25 -42 101 -167q2 -3 6 -11h1q28 47 113 187q28 46 112 185h110v0v-582h-101v409q-5 -6 -89 -147q-90 -148 -94 -155l-15 -24h-72q-1 1 -40 65q-38 64 -114 190q-5 8 -43 71v-409h-102zM202 150v486h-194h-1v96h1h485h1v-96h-1h-194
v-486h-97z" />
    <glyph glyph-name="approxequal" unicode="&#x2248;" horiz-adv-x="650" 
d="M537 346q-24 -16 -48 -25q-35 -16 -70 -16q-37 0 -109 30q-72 29 -109 29q-32 0 -66 -17q-24 -11 -51 -37v101q24 21 48 31q35 16 69 16q40 0 112 -30t106 -30q31 0 67 17q22 11 51 38v-107zM537 184q-24 -16 -48 -26q-35 -15 -70 -15q-37 0 -109 29q-72 30 -109 30
q-32 0 -66 -17q-24 -11 -51 -38v102q24 21 48 30q35 16 69 16q40 0 112 -29q72 -30 106 -30q31 0 67 16q22 12 51 39v-107z" />
    <glyph glyph-name="fi" unicode="&#xfb01;" horiz-adv-x="579" 
d="M447 732h5q21 0 41 -17q20 -20 20 -44v-3q0 -23 -18 -43q-19 -19 -44 -19h-3q-23 0 -42 17q-10 11 -14 20q-6 12 -6 24v4q0 23 19 43l7 7q18 11 35 11zM498 479v-478q0 -1 -1 -1h-96v1v478h97zM310 732h28h1v-96q0 -1 -1 -1h-25q-64 0 -93 -60q-17 -37 -17 -96h135h1v-96
h-1h-135v-382q0 -1 -1 -1h-96v383h-92v0v96v0h92v2q0 131 72 199q28 25 55 36q39 16 77 16z" />
    <glyph glyph-name="fl" unicode="&#xfb02;" horiz-adv-x="579" 
d="M310 732h28h1v-96q0 -1 -1 -1h-25q-64 0 -93 -60q-17 -37 -17 -96h135h1v-96h-1h-135v-382q0 -1 -1 -1h-96v383h-92v0v96v0h92v2q0 131 72 199q28 25 55 36q39 16 77 16zM415 732h96v0v-731v-1h-96v1v731v0z" />
    <glyph glyph-name="circumflex" horiz-adv-x="411" 
d="M296 1004h56q7 -7 112 -125q-24 -21 -72 -64l-68 76q-16 -19 -67 -76h-1l-72 64v0q28 31 112 125z" />
    <glyph glyph-name="caron" horiz-adv-x="411" 
d="M352 815h-56q-7 6 -112 125q24 21 72 64l68 -76l68 76v0l72 -64v0q-28 -31 -112 -125z" />
    <glyph glyph-name="uni02c9" horiz-adv-x="575" 
d="M121 907h332h1v-96h-1h-332v96z" />
    <glyph glyph-name="dotaccent" horiz-adv-x="534" 
d="M229 907q31 0 51 -26q12 -17 12 -35v-4q0 -24 -20 -44q-14 -13 -28 -15q-8 -2 -12 -2h-7q-16 0 -33 11q-17 13 -24 33q-2 10 -2 17v4q0 23 19 43q19 18 44 18z" />
    <glyph glyph-name="ring" horiz-adv-x="221" 
d="M289 815v-1q0 -17 15 -28q9 -7 20 -7q17 0 28 13q8 11 8 22v1q0 13 -11 24q-10 10 -25 10q-13 0 -24 -9q-11 -12 -11 -25zM324 907h1q33 0 60 -23q11 -10 14 -14q19 -26 19 -56q0 -38 -29 -67q-1 -2 -4 -5q-27 -22 -61 -22q-33 0 -60 22q-8 7 -12 13q-7 9 -11 16
q-10 21 -10 40v5q0 28 18 53q3 5 12 15q29 23 63 23z" />
    <glyph glyph-name="tilde" horiz-adv-x="562" 
d="M441 884q-17 -15 -33 -24q-26 -15 -51 -15t-77 29q-51 28 -76 28q-23 0 -47 -17q-17 -10 -36 -36v91q17 20 34 30q25 15 49 15q28 0 78 -29q51 -29 75 -29q23 0 47 17q17 11 37 37v-97z" />
    <glyph glyph-name="uni037e" horiz-adv-x="286" 
d="M145 479h4q23 0 43 -19q19 -19 19 -42v-3q0 -26 -21 -46q-19 -16 -41 -16h-4q-25 0 -45 22q-16 18 -16 41q0 24 18 44q20 19 43 19zM148 123q31 0 51 -28q12 -18 12 -47q0 -78 -93 -160q-26 -24 -33 -27q-9 11 -25 33q64 59 64 106q-23 9 -33 31q-8 13 -8 29q0 31 29 52
q16 11 36 11z" />
    <glyph glyph-name="endash" horiz-adv-x="675" 
d="M50 284h574h1v-96h-1h-574v96z" />
    <glyph glyph-name="quoteleft" horiz-adv-x="312" 
d="M132 593q-31 0 -51 28q-12 18 -12 47q0 77 93 160q26 23 33 27q9 -11 25 -34q-64 -59 -64 -105q23 -10 33 -32q8 -12 8 -28q0 -32 -29 -52q-16 -11 -36 -11z" />
    <glyph glyph-name="quoteright" horiz-adv-x="299" 
d="M140 123q31 0 51 -28q12 -18 12 -47q0 -78 -93 -160q-26 -24 -33 -27q-9 11 -25 33q64 59 64 106q-23 9 -33 31q-8 13 -8 29q0 31 29 52q16 11 36 11z" />
    <glyph glyph-name="quotedblleft" horiz-adv-x="568" 
d="M352 593q-31 0 -51 28q-12 18 -12 46q0 78 93 161q26 23 33 27q9 -11 25 -34q-64 -59 -64 -105q24 -10 33 -32q8 -12 8 -28q0 -32 -29 -52q-16 -11 -36 -11zM152 593q-31 0 -51 28q-12 18 -12 46q0 78 93 161q26 23 33 27q9 -11 25 -34q-64 -59 -64 -105q24 -10 33 -32
q8 -12 8 -28q0 -32 -29 -52q-16 -11 -36 -11z" />
    <glyph glyph-name="quotedblright" horiz-adv-x="568" 
d="M216 855q31 0 51 -28q12 -18 12 -47q0 -78 -93 -160q-26 -24 -33 -27q-9 11 -25 33q64 59 64 106q-23 9 -33 31q-8 13 -8 29q0 31 29 52q16 11 36 11zM416 855q31 0 51 -28q12 -18 12 -47q0 -78 -93 -160q-26 -24 -33 -27q-9 11 -25 33q64 59 64 106q-23 9 -33 31
q-8 13 -8 29q0 31 29 52q16 11 36 11z" />
    <glyph glyph-name="quotedblbase" horiz-adv-x="499" 
d="M140 123q31 0 51 -28q12 -18 12 -47q0 -78 -93 -160q-26 -24 -33 -27q-9 11 -25 33q64 59 64 106q-23 9 -33 31q-8 13 -8 29q0 31 29 52q16 11 36 11zM340 123q31 0 51 -28q12 -18 12 -47q0 -78 -93 -160q-26 -24 -33 -27q-9 11 -25 33q64 59 64 106q-23 9 -33 31
q-8 13 -8 29q0 31 29 52q16 11 36 11z" />
    <glyph glyph-name="dagger" horiz-adv-x="443" 
d="M173 417v115h97v-115h114v0v-96v0h-114v-320l-1 -1h-95l-1 1v320h-113v96h113z" />
    <glyph glyph-name="daggerdbl" horiz-adv-x="443" 
d="M173 417v115h97v-115h114v0v-96v0h-114v-110h114v0v-96v0h-114v-114l-1 -1h-95l-1 1v114h-113v96h113v110h-113v96h113z" />
    <glyph glyph-name="ellipsis" horiz-adv-x="652" 
d="M113 126q31 0 51 -26q12 -17 12 -35v-4q0 -24 -20 -44q-14 -13 -28 -16q-8 -1 -12 -1h-7q-16 0 -33 12t-24 32q-2 9 -2 17v4q0 23 19 43q19 18 44 18zM327 126q29 0 50 -26q12 -17 12 -35v-4q0 -24 -20 -44q-14 -13 -28 -16q-8 -1 -12 -1h-6q-16 0 -34 12q-17 12 -24 32
q-2 9 -2 17v4q0 23 19 43q19 18 45 18zM540 127q29 0 50 -27q12 -17 12 -35v-4q0 -24 -19 -44q-15 -12 -29 -15q-7 -2 -11 -2h-7q-16 0 -34 12q-17 12 -23 33q-3 9 -3 16v4q0 24 19 44q19 18 45 18z" />
    <glyph glyph-name="guilsinglleft" horiz-adv-x="340" 
d="M35 201v67q43 31 174 121q6 5 24 17h1q2 -3 29 -42q9 -12 26 -37v0q-33 -23 -133 -92q33 -23 133 -92q-53 -76 -55 -79q-66 45 -199 136v1z" />
    <glyph glyph-name="guilsinglright" horiz-adv-x="340" 
d="M304 200q-49 -34 -199 -136q-2 3 -54 79q44 31 133 92q-34 23 -133 92v0q6 9 25 37q27 39 29 42h1q6 -4 24 -17q44 -30 175 -121v-67z" />
    <glyph glyph-name="fraction" horiz-adv-x="148" 
d="M228 687h96v0q-95 -178 -377 -711q0 -1 -1 -1h-96v1q94 177 377 711h1z" />
    <glyph glyph-name="franc" horiz-adv-x="516" 
d="M196 157v-157h-1h-95h-1v157h-59v97h59v478h1h392h1v-96h-1h-296v-222h241v-96h-241v-64h96v-96v-1h-96z" />
    <glyph glyph-name="uni20a4" horiz-adv-x="648" 
d="M351 712h8q49 0 102 -25q17 -9 36 -23q7 -5 12 -12l-66 -69v0q-22 19 -54 28q-17 5 -33 5h-1q-49 0 -91 -37q-20 -21 -20 -53v-3q0 -28 16 -66h191v-96h-1h-147q5 -22 5 -30h142h1v-96h-1h-159q-6 -14 -16 -32q-13 -22 -34 -48q-1 -2 -4 -5q16 -2 28 -5q16 -5 31 -10
q16 -8 32 -21q27 -23 40 -30q24 -13 49 -13q51 0 112 62q23 -22 70 -68v0q-22 -21 -35 -31q-22 -18 -41 -29q-54 -30 -103 -30h-7q-54 0 -110 36q-14 9 -34 27q-22 16 -52 16h-1q-52 0 -122 -42q-3 -1 -10 -5q-14 19 -57 77q9 7 37 31q25 21 60 54q32 34 45 51q3 5 11 14v1
h-76h-1v96h1h107q0 5 -10 28q0 1 -1 2h-96h-1v96h54q-10 35 -10 68q0 71 47 121q17 15 29 23q20 14 41 23q45 20 87 20z" />
    <glyph glyph-name="uni20a7" horiz-adv-x="1386" 
d="M683 732h96h1v-252h124v-1v-96v0h-124v-242q0 -28 19 -37q13 -8 26 -8q20 0 56 13q1 1 4 3q9 -23 36 -91q-12 -5 -39 -13q-32 -8 -56 -8h-1q-48 0 -89 29q-7 5 -19 16q-2 4 -8 11q-8 11 -13 20q-13 31 -13 61v246h-71v0v96v1h71v252zM1145 504q91 0 155 -57
q15 -14 21 -22l6 -9q-1 -2 -27 -17q-25 -16 -55 -35q-9 11 -17 17q-34 26 -82 26h-2q-52 0 -84 -25q-17 -15 -17 -33q0 -10 9 -17q9 -8 37 -17q38 -12 118 -27q26 -5 45 -13q17 -7 35 -19q8 -6 22 -20q36 -40 36 -91v-1q0 -51 -37 -96q-16 -16 -24 -20q-20 -14 -32 -20
q-52 -23 -109 -23h-3q-76 0 -137 39q-14 9 -30 24q-14 14 -20 22q-9 13 -17 26l84 48v0q1 -2 4 -7q5 -9 17 -20q23 -21 56 -30q23 -5 44 -5q44 0 79 19q7 4 16 13q13 15 13 31q0 27 -42 43q-15 5 -52 12q-80 15 -120 32q-17 7 -34 18q-37 25 -49 62q-7 17 -7 36v4
q0 47 36 88q15 16 22 20q17 13 32 20q49 24 110 24zM88 732h240q116 0 197 -87q58 -70 58 -154q0 -109 -92 -187q-73 -54 -164 -54h-145v-249l-1 -1h-93q-1 0 -2 1v730zM182 635v-288h151q72 0 124 60q29 40 29 81v7q0 65 -63 112q-39 29 -108 29h-131q-1 0 -2 -1z" />
    <glyph glyph-name="uni2116" horiz-adv-x="1226" 
d="M87 732h108q1 -1 29 -48q39 -65 116 -194l112 -188q19 -31 76 -126v556v0h96v-732h-103q-1 1 -21 34l-120 201q-24 40 -96 161l-96 160v-556v0h-101h-1v732h1zM738 98h400l1 -1v-95l-1 -1h-400v97zM793 416q0 -54 35 -99q16 -17 24 -22q40 -31 87 -31q57 0 101 44
q17 18 24 32q20 36 20 76v1q0 58 -39 104q-17 18 -23 20q-9 7 -16 11q-33 18 -67 18q-54 0 -98 -39q-15 -16 -19 -23q-29 -41 -29 -92zM939 667q81 0 149 -53q9 -7 27 -25q34 -38 49 -79q17 -45 17 -94q0 -63 -30 -120q-11 -20 -29 -42q-19 -22 -31 -31q-14 -11 -26 -19
q-60 -36 -124 -36h-5q-68 0 -130 40q-12 9 -22 17q-19 16 -28 28q-10 12 -19 26q-10 16 -17 31q-24 52 -24 103v8q0 56 28 112q8 16 20 32q8 12 25 31q24 22 35 28q61 43 135 43z" />
    <glyph glyph-name="uni2215" horiz-adv-x="148" 
d="M228 687h96v0q-95 -178 -377 -711q0 -1 -1 -1h-96v1q94 177 377 711h1z" />
    <glyph glyph-name="uni2219" horiz-adv-x="368" 
d="M184 449q31 0 51 -26q12 -18 12 -35v-4q0 -24 -19 -44q-15 -12 -29 -16q-7 -1 -11 -1h-8q-16 0 -33 12t-23 33q-3 8 -3 16v4q0 24 19 44q19 17 44 17z" />
    <glyph glyph-name="lessequal" horiz-adv-x="432" 
d="M329 597h1q15 -19 59 -76q0 -1 -141 -110q-29 -23 -88 -69q24 -19 98 -77q33 -25 131 -102q-15 -19 -59 -76h-1q-42 33 -169 133q-107 82 -109 84v76l144 112q33 26 134 105zM43 4h346v-1v-95v-1h-346v97z" />
    <glyph glyph-name="greaterequal" horiz-adv-x="432" 
d="M238 492l144 -112v-76q-2 -2 -109 -84q-57 -45 -170 -133v0q-15 19 -59 76q32 26 131 102q24 20 97 77q-22 17 -88 69q-140 109 -140 110q19 25 59 76v0q34 -26 135 -105zM390 -93h-346q-1 0 -1 1v95l1 1h346v-97z" />
  </font>
</defs>
</svg>
